<?xml version="1.0" encoding="utf-8"?>
<!-- Generator: Adobe Illustrator 24.2.0, SVG Export Plug-In . SVG Version: 6.00 Build 0)  -->
<svg version="1.1" id="Layer_1" xmlns="http://www.w3.org/2000/svg" xmlns:xlink="http://www.w3.org/1999/xlink" x="0px" y="0px"
	 viewBox="0 0 1440.6 562.3" style="enable-background:new 0 0 1440.6 562.3;" xml:space="preserve">
<style type="text/css">
	.st0{fill:#ECECEC;}
	.st1{fill:#F7C846;}
	.st2{fill-rule:evenodd;clip-rule:evenodd;fill:#EFEFEF;}
	.st3{opacity:0.75;}
	.st4{fill:#55C1BD;}
	.st5{fill:#41969C;}
	.st6{fill:#7A7A7A;}
	.st7{fill:#FFFFFF;}
	.st8{fill:#F9D684;}
	.st9{fill:#9CA8BF;}
	.st10{fill:#551942;}
	.st11{fill:#8891A5;}
	.st12{fill:#EFB39F;}
	.st13{fill:#202020;}
	.st14{fill:#DA9A89;}
	.st15{fill:#CCCCCC;}
	.st16{fill:#666666;}
	.st17{fill:#C77A7A;}
	.st18{fill:#474747;}
	.st19{fill:#7C8CAA;}
	.st20{fill:#A5715E;}
	.st21{fill-rule:evenodd;clip-rule:evenodd;fill:#25284C;}
	.st22{fill:#3E4166;}
	.st23{fill:#535789;}
	.st24{fill:#DCDFE9;}
	.st25{fill:#C3866F;}
	.st26{fill:#8C544A;}
	.st27{fill:#2A2020;}
	.st28{fill:#2C2C2B;}
	.st29{fill:#818B9E;}
	.st30{fill:#B0BED8;}
	.st31{fill:#2D2D2D;}
	.st32{fill:#E8A19B;}
	.st33{fill:#25284C;}
	.st34{fill:#9B9B9B;}
	.st35{fill:#2D2727;}
	.st36{fill:#A7A9AC;}
	.st37{fill-rule:evenodd;clip-rule:evenodd;fill:#FFFFFF;}
	.st38{fill-rule:evenodd;clip-rule:evenodd;fill:#E30520;}
	.st39{fill-rule:evenodd;clip-rule:evenodd;fill:#FFD300;}
	.st40{fill-rule:evenodd;clip-rule:evenodd;fill:#063E85;}
</style>
<g id="Symbols">
	<g id="Group_1_">
		<g id="Fill-1">
			<path id="Path-Copy" class="st0" d="M1432.6,499.5c0-1.5,0-2.4,0-2.7c0-3.5-1.2-13.6-1.4-14.4c-3.1-13.5-3.1-13.5-6.5-21.6
				c-4.3-10.2-9.7-19.9-15.9-29c-6.2-9.1-13.4-17.6-21.3-25.3c-7.9-7.7-16.7-14.5-26.1-20.4c-9.5-5.8-19.5-10.6-30.1-14.2
				c-10.5-3.6-21.4-6.1-32.4-7.4c-11-1.3-22.2-1.4-33.2-0.2c-11,1.1-21.9,3.6-32.3,7.3c-5.9,2.1-11.7,4.6-17.3,7.3
				c-4.8,2.3-10.4,5.2-16.7,8.7l-16.4,9.3c-6.5,3.7-12.1,6.7-16.6,9c-11.2,5.9-23.1,10.4-35.4,13.5c-12.1,3.1-24.8,3.4-37.1,1
				c-7.5-1.7-14.8-4.4-21.5-8c-6.8-3.7-13.3-7.9-19.5-12.5c-2.6-1.9-5.7-4.3-9.4-7.2c-4.2-3.3-7.3-5.7-9.4-7.3
				c-7.6-5.9-14-10.5-19.2-13.8c-9-5.8-18.8-10.4-28.9-13.8c-10.1-3.4-20.7-5.3-31.4-5.7c-10.7-0.3-21.5,1.2-31.7,4.4
				c-10.2,3.2-19.7,8.4-27.9,15.2c-1.5,1.3-3.7,3.2-6.3,5.8c-2.9,2.8-5,4.7-6.3,5.8c-4.1,3.9-9,6.9-14.2,9
				c-5.8,1.8-11.9,2.4-17.9,1.7c-2.3-0.2-5.4-0.6-9.2-1.1c-4.7-0.7-7.8-1.1-9.2-1.3c-22.9-2.6-46.2,1.6-66.6,12.3
				c-12.2,6.6-23.5,14.9-33.3,24.7c-9.9,9.9-19.2,20.3-27.7,31.4c-7.8,9.6-15,19.6-21.6,30c-1,1.5-2.7,4.9-5.2,10L1432.6,499.5z"/>
			<path id="Path" class="st0" d="M8.6,499.5c22.4-28.8,37.1-46.6,44-53.3c10.4-10.1,21.8-19,34.1-26.6
				c12.4-7.6,25.5-13.9,39.3-18.6c13.7-4.7,27.9-8,42.4-9.6c14.4-1.7,29-1.8,43.4-0.3c14.4,1.5,28.6,4.7,42.3,9.5
				c7.7,2.8,15.2,6,22.6,9.5c6.3,3,13.5,6.8,21.8,11.4l21.5,12.1c8.5,4.8,15.8,8.7,21.7,11.7c14.7,7.7,30.2,13.6,46.3,17.6
				c15.9,4,32.4,4.5,48.5,1.3c9.8-2.2,19.3-5.7,28.1-10.5c8.9-4.8,17.4-10.3,25.5-16.4c3.4-2.5,7.5-5.6,12.3-9.4
				c5.4-4.3,9.5-7.5,12.2-9.6c9.9-7.7,18.3-13.7,25-18c11.8-7.5,24.5-13.6,37.8-18c13.3-4.5,27.1-7,41.1-7.4c14-0.4,28,1.5,41.4,5.8
				c13.3,4.2,25.7,10.9,36.5,19.9c2,1.7,4.8,4.2,8.3,7.5c3.8,3.6,6.6,6.2,8.3,7.6c5.4,5,11.7,9,18.5,11.7c7.5,2.4,15.5,3.1,23.4,2.3
				c3-0.2,7-0.7,12-1.5c6.2-0.9,10.2-1.5,12-1.7c30-3.5,60.3,2.1,87.1,16.1c16,8.6,30.7,19.5,43.5,32.3c5.3,5.3,13,13.4,23,24.3
				L8.6,499.5L8.6,499.5z"/>
		</g>
		<g id="Ilustraciones_x2F_Recaudos_x2F_Inscribir-factura-manual-codigo" transform="translate(809.000000, 1.000000)">
			<g id="Fill-1_1_" transform="translate(90.507289, 34.783465)">
				<path class="st1" d="M-98.2,432.4c-1.8,6.6-3.4,17-4.9,31.2h579.5c-18-55-31.9-96.1-41.5-123.4c-14.2-40.1,3.1-67.2,12.9-104.9
					c9.9-40.5,1.4-83.3-23.2-116.9c-51.9-70.2-117.2-47.1-187.6-50C119.5,63.5,49.8-34-56.6,49.6c-32.6,26.8-45.3,70.9-31.9,110.9
					c2.8,7.8,6.3,15.2,10.6,22.2c18.5,30.8,52.8,61.1,50.5,98.8C-30.6,334.6-84.2,381.6-98.2,432.4z"/>
			</g>
			<path id="Fill-99" class="st2" d="M428.9,515.4c-0.9-0.2-1.7-0.4-2.6-0.5c-0.6,0-1.5-0.1-2.6-0.1c-1.3,0-2.7,0-4.3,0
				c-1,0-2.4,0-4.3,0l-8.7,0.1c-1.8,0-3.1,0-3.9,0c-1.5,0-2.8,0.1-3.9,0.2c-2.3,0.2-4.8,0.5-7.5,0.9c-2.1,0.4-4.5,0.9-7.4,1.5
				c-1.4,0.3-2.5,0.6-3.3,0.8c-1.1,0.3-2.1,0.8-3.1,1.3c-0.2,0.1-0.3,0.2-0.5,0.3c-0.1,0.1-0.2,0.3-0.3,0.5c0,0.3,0.1,0.7,0.2,0.8
				c0.2,0.2,0.4,0.4,0.7,0.5c0.7,0.3,1.4,0.5,2.2,0.7c0.3,0.1,0.7,0.1,1.1,0.2c0.2,0,0.6,0.1,1.1,0.2c0.9,0.1,1.6,0.3,2.2,0.5
				c0.7,0.2,1.4,0.5,2,1c-0.2,0-0.3,0.2-0.4,0.5c-0.1,0.3,0,0.6,0.1,0.8c0.1,0.2,0.3,0.4,0.5,0.5c0.2,0.1,0.4,0.2,0.6,0.3
				c1,0.4,2.1,0.8,3.2,1c0.9,0.2,2,0.4,3.2,0.6c3.1,0.5,6.6,0.7,10.4,0.7c2.8,0,6.3-0.2,10.4-0.5c4.3-0.3,7.8-0.7,10.5-1.2
				c3.5-0.5,6.9-1.4,10.3-2.7c0.4-0.1,0.6-0.2,0.8-0.4c0.2-0.1,0.5-0.3,0.7-0.6c0.2-0.2,0.4-0.5,0.5-0.9c0.1-0.3,0.1-0.7,0-1.1
				c-0.1-0.4-0.4-0.8-0.7-1c-0.3-0.2-0.6-0.4-1-0.5c-1.5-0.6-3.2-1.2-5.1-1.9c0.1,0,0.3,0,0.4-0.1c0.1-0.1,0.2-0.3,0.3-0.5
				s0.1-0.4,0.1-0.6c0-0.2,0-0.4-0.1-0.6c-0.2-0.4-0.4-0.7-0.7-0.8C429.5,515.6,429.2,515.5,428.9,515.4z"/>
			<path id="Fill-99_1_" class="st2" d="M476,536.3c-0.5-0.3-1.1-0.4-1.6-0.5c-0.4,0-0.9-0.1-1.6-0.1c-0.8,0-1.7,0-2.7,0
				c-0.6,0-1.5,0-2.7,0l-5.4,0.1c-1.1,0-1.9,0-2.4,0c-0.9,0-1.7,0.1-2.4,0.2c-1.4,0.2-3,0.5-4.6,1c-1.3,0.4-2.8,0.9-4.6,1.6
				c-0.9,0.3-1.5,0.6-2,0.9c-0.7,0.3-1.3,0.8-1.9,1.4c-0.1,0.1-0.2,0.2-0.3,0.4c-0.1,0.1-0.1,0.3-0.2,0.6c0,0.3,0,0.7,0.1,0.9
				c0.1,0.2,0.3,0.4,0.4,0.5c0.4,0.3,0.9,0.6,1.3,0.7c0.2,0.1,0.4,0.1,0.7,0.2c0.1,0,0.4,0.1,0.7,0.2c0.6,0.1,1,0.3,1.4,0.5
				c0.4,0.2,0.9,0.6,1.3,1.1c-0.1,0-0.2,0.3-0.2,0.6c0,0.3,0,0.6,0.1,0.9c0.1,0.2,0.2,0.4,0.3,0.6c0.1,0.1,0.2,0.2,0.4,0.3
				c0.6,0.5,1.3,0.8,2,1.1c0.6,0.2,1.2,0.5,2,0.7c1.9,0.5,4.1,0.7,6.4,0.7c1.7,0,3.9-0.2,6.4-0.5c2.6-0.3,4.8-0.7,6.5-1.2
				c2.1-0.6,4.2-1.5,6.3-2.9c0.2-0.1,0.4-0.3,0.5-0.4c0.2-0.1,0.3-0.3,0.4-0.6c0.1-0.2,0.2-0.6,0.3-1c0.1-0.4,0.1-0.8,0-1.1
				c-0.1-0.5-0.2-0.8-0.4-1c-0.2-0.2-0.4-0.4-0.6-0.5c-0.9-0.6-2-1.2-3.1-2c0.1,0,0.2,0,0.3-0.1c0.1-0.1,0.1-0.3,0.2-0.5
				c0-0.2,0.1-0.4,0.1-0.7c0-0.2,0-0.5-0.1-0.7c-0.1-0.4-0.3-0.7-0.4-0.9C476.4,536.6,476.2,536.4,476,536.3z"/>
			<ellipse id="Oval" class="st2" cx="278" cy="524.2" rx="102.1" ry="9.3"/>
			<path id="Fill-99_2_" class="st2" d="M214.7,540.9c-1.2-0.2-2.4-0.4-3.6-0.5c-0.8,0-2.1-0.1-3.7-0.1c-1.8,0-3.8,0-6,0
				c-1.4,0-3.4,0-6,0l-12.1,0.1c-2.4,0-4.3,0-5.4,0c-2,0-3.8,0.1-5.4,0.2c-3.2,0.2-6.6,0.5-10.4,0.9c-2.9,0.4-6.3,0.9-10.3,1.5
				c-2,0.3-3.5,0.6-4.5,0.8c-1.5,0.3-2.9,0.8-4.4,1.3c-0.2,0.1-0.4,0.2-0.6,0.3c-0.2,0.1-0.3,0.3-0.4,0.5c0,0.3,0.1,0.7,0.4,0.8
				c0.3,0.2,0.6,0.4,0.9,0.5c1,0.3,2,0.5,3,0.7c0.4,0.1,0.9,0.1,1.5,0.2c0.3,0,0.9,0.1,1.5,0.2c1.2,0.1,2.3,0.3,3,0.5
				c1,0.2,1.9,0.5,2.8,1c-0.3,0-0.5,0.2-0.5,0.5c-0.1,0.3,0,0.6,0.1,0.8c0.2,0.2,0.4,0.4,0.6,0.5c0.3,0.1,0.5,0.2,0.8,0.3
				c1.4,0.4,2.9,0.8,4.4,1c1.3,0.2,2.8,0.4,4.5,0.6c4.4,0.5,9.2,0.7,14.4,0.7c3.9,0,8.7-0.2,14.4-0.5c5.9-0.3,10.7-0.7,14.5-1.2
				c4.8-0.5,9.5-1.4,14.2-2.7c0.5-0.1,0.9-0.2,1.1-0.4c0.4-0.1,0.7-0.3,1-0.6c0.3-0.2,0.5-0.5,0.7-0.9c0.1-0.3,0.1-0.7,0-1.1
				c-0.2-0.4-0.5-0.8-0.9-1c-0.4-0.2-0.9-0.4-1.3-0.5c-2-0.6-4.4-1.2-7.1-1.9c0.2,0,0.4,0,0.6-0.1c0.2-0.1,0.3-0.3,0.4-0.5
				c0.1-0.2,0.1-0.4,0.1-0.6c0-0.2-0.1-0.4-0.2-0.6c-0.2-0.4-0.6-0.7-1-0.8C215.6,541.2,215.2,541,214.7,540.9z"/>
			<g id="plano010" transform="translate(181.014577, 39.421260)">
				<g id="Group" transform="translate(0.000000, 366.385827)" class="st3">
					<g id="Layer3_0_FILL">
						<path id="Shape" class="st4" d="M-17.7,42.8c-0.2-0.1-0.4-0.2-0.6-0.3c0,1.1,0,2.2,0,3.1C-18.1,44.7-17.9,43.7-17.7,42.8
							L-17.7,42.8z M-117.6,54.2c-10.5-1.5-16.2,0.8-17.1,7c-0.5,3.3,1.3,6,5.4,8.2c4.8,2.3,9.8,3.8,15,4.7
							c8.3,1.4,14.5,2.5,18.5,3.3c5.5,0.8,10.8,2.2,16,4.1c5.2,2.1,10.2,4.6,14.9,7.6c1.4,0.9,2.5,1.7,3.4,2.4
							c0.5,0.4,0.8,0.7,1.2,1l-2.1-1c-1.9-0.8-4-1.7-6.3-2.5c-8.1-2.9-16.4-5.2-24.8-6.7c-4.6-0.9-9.3-1.3-14-1.4
							c-4.3-0.1-8.6,0.4-12.7,1.3c-3.2,0.6-6.2,2-8.8,4.1c-1.5,1.3-6.2,6.5-2.2,6.5c0.6,0,25.8,0,75.3,0c-0.6-0.9-1.1-0.3-1.6-1.3
							c-2-3.4-3.8-6.9-5.2-10.6c-1.2-1.1-2.7-2.3-4.5-3.6c-6.3-4.7-13-8.9-20-12.5C-96.8,59.6-107,56-117.6,54.2z M-59.4,34.6
							c0.2,0.6,0.4,1.2,0.5,1.8c1.8,5.9,3.8,11.8,6,17.7c1.7,1.5,3.3,2.9,5.1,4.2c2.2,1.8,4.5,3.4,6.9,4.9c-2-2.8-4.3-6.2-6.9-10.1
							C-52.5,45.9-56.4,39.8-59.4,34.6L-59.4,34.6z M-26.8,51c-0.5-1.1-1.2-2.2-1.8-3.3c-0.4,0.7-0.9,1.5-1.3,2.3
							c0.2,0.8,0.4,1.6,0.6,2.4c0.3,1.1,0.8,2.2,1.4,3.1c0.8,1.2,1.5,1.7,2.1,1.4c0.4-0.2,0.5-1,0.2-2.5
							C-25.9,53.2-26.3,52.1-26.8,51L-26.8,51z M-48.1,16.4C-51,10.6-54.6,7.5-59,7.1c-5.6-0.5-5.9,7.9-1,25.3
							C-57.3,26.2-53.3,20.7-48.1,16.4L-48.1,16.4z M-92,13.2c-1.7,2-1.4,5.2,0.8,9.7c2.7,5.1,6,10,9.6,14.6
							c2.7,3.6,7.2,9.3,13.3,17c1,1.2,1.9,2.5,2.8,3.6c0.2-5,0.8-9.9,1.8-14.7c3,3.3,6.1,6.5,9.4,9.5c-3.3-6.7-6.8-13.1-10.5-19.3
							C-77.1,13-86.2,6.2-92,13.2L-92,13.2z M-107.8,28.8c-2.8,0.1-5.6,1.2-7.7,3.1c-1.7,1.7-2.6,4-2.6,6.3
							c-0.1,2.5,0.7,4.9,2.2,6.9c1.7,2.3,4.1,4.1,6.8,5c13.3,4.7,25.7,11.7,36.6,20.8c3.3,2.7,6.4,5.7,9.2,8.8
							c-1-2.7-1.6-5.6-1.9-8.5c-0.3-3.9-0.4-7.6-0.4-11.1c-5.1-6-10.5-11.7-16.2-17.1C-92.7,33.1-101.3,28.3-107.8,28.8L-107.8,28.8
							z M176.4,49.6c-1.9-0.4-3.9-0.3-5.8,0.3c-1.4,0.4-2.7,1.5-3.4,2.8c-1.5,3-0.2,6.6,3.9,10.7c1.8,1.7,3.7,3.2,5.7,4.7
							c0.5,0.4,1.1,0.8,1.7,1.3c2.4,1.8,3.4,3.3,3.1,4.6c-0.1,0.5-0.7,0.6-1.9,0.4c-0.9-0.2-1.7-0.3-2.4-0.5c-0.5-0.1-1-0.2-1.4-0.3
							c-3.6-0.6-5.4,0.3-5.5,2.6c-0.2,2.1,0.7,4.1,2.3,5.4c1.7,1.2,3.6,2.1,5.6,2.7c3.4,1.1,5.3,1.8,5.9,2c1.6,0.5,2.9,1.8,3.4,3.4
							c0.1,0.5-0.3,0.8-1.3,1c0,0-1.1,0.1-3.3,0.4c-0.6,0.1-1.2,0.2-1.8,0.3c-2,0.5-3,1.4-3,2.8c0,0,0,0,0,0h38.4
							c0.2-0.6,0.4-1.2,0.5-1.8c0.1-0.3,0.1-0.7,0.2-1.1c0.4-1.6-0.2-3.3-1.6-4.3c-2.3-1.6-4.1-1.3-5.3,0.8
							c-0.3,0.5-0.7,1.3-1.2,2.3c-0.5,0.8-1,1-1.5,0.9c-1.4-0.4-1.9-1.5-1.7-3.2c0.5-1.9,1.1-3.8,1.8-5.6c0.8-1.9,1.2-3.9,1.2-5.9
							c-0.1-2-1.4-3.7-3.3-4.3c-0.9-0.5-2-0.5-3-0.1c-0.9,0.4-1.7,1.2-1.9,2.3c-0.3,0.6-0.6,1.5-1,2.7c-0.4,0.9-0.8,1.4-1.1,1.5
							c-0.8,0.2-1.1-0.7-0.7-2.6c0.6-2.8,1-5.1,1.3-6.8c1-6.9-1-10.7-5.9-11.5c-2.6-0.4-4.1,0.9-4.3,4c0,0.1,0,0.3,0,0.4
							c0,0.4,0,1.9,0.1,4.6c0,1,0,2-0.1,3c0,0.4-0.1,0.8-0.2,1.2c-0.3,1-0.7,0.6-1.4-1.2c-0.2-0.7-0.4-1.4-0.6-2
							c-0.6-2-1.2-3.8-1.8-5.2C182.5,54.4,179.6,50.1,176.4,49.6L176.4,49.6z"/>
						<path id="Shape_1_" class="st5" d="M-60.3,33c0.3,0.5,0.6,1,0.9,1.6c3,5.2,6.9,11.3,11.6,18.5c2.6,3.9,4.9,7.3,6.9,10.2
							c-2.4-1.5-4.7-3.1-6.9-4.9c-1.7-1.3-3.4-2.8-5.1-4.2c-0.5-0.4-0.9-0.8-1.4-1.2c-3.3-3-6.4-6.2-9.4-9.5
							c-1.1,4.8-1.7,9.8-1.8,14.7c0,0.7-0.1,1.4-0.1,2.1c-0.1,3.5,0.1,7.2,0.4,11.1c0.3,2.9,0.9,5.8,1.9,8.5
							c0.1,0.4,0.3,0.7,0.4,1.1c1.4,3.7,3.2,7.2,5.2,10.6c0.5,0.9,1,0.3,1.6,1.3h86c0.7-0.9,1.7-0.3,2.4-1.3c1-1.4,2.1-2.9,3.2-4.5
							c2.8-3.8,5.2-7.9,7.1-12.3c1.2-3.3,2-5.7,2.5-7.2c0.9-2.5,1.4-5.2,1.6-7.8c-0.6-2.9-1.8-5.7-3.3-8.2l-3.3-6l-4.6,7.1
							c-1.8,2.9-3.7,5.7-5.8,8.4c-1.1,1.1-3.9,4.3-8.4,9.5c0.9-1.1,1.9-2.5,3.2-4.4c2.5-3.6,4.6-7.4,6.4-11.4L38,42.2
							c-1.2-3-2.6-5.9-4.2-8.8c-1.1-2.1-2.4-4.2-3.9-6.1c-1.2-1.5-2-2.5-2.2-2.8C26,27,24,29.3,21.8,31.3c-0.8,0.8-1.6,1.5-2.5,2.1
							c0.5-0.8,1-1.9,1.7-3.3c1.4-2.8,2.8-5.9,4.1-9c-2.9-3.6-6.4-6.7-10.3-9.3c-2.1,6.6-4.7,12.9-8,18.9c-1.7,3.2-3.3,5.9-4.7,7.9
							c0.9-2.3,1.9-5.3,2.9-9c2-6.8,3.5-13.7,4.5-20.7C2.5,5.7-5.3,4.3-13.1,4.6c-0.3,9.5-1.3,18.9-2.9,28.3
							c-0.6,3.8-1.2,7.1-1.8,9.9c-0.2,1-0.4,1.9-0.6,2.8c0-0.9,0-2,0-3.1c0-2.3,0-5.1,0-8.3c-0.1-9.5-0.5-19.2-1.2-29.1
							c-6.6,0.7-13.1,2.5-19.2,5.3c1.3,7.2,2.7,14.9,4.4,23c-0.6-1-1.5-2.6-2.6-4.8c-2.2-4.4-4.5-9.5-6.8-15.4
							c-7.2,4.6-12.8,11.3-16.2,19.1C-60.2,32.6-60.2,32.8-60.3,33z M-28.6,47.7c0.7,1.1,1.3,2.2,1.8,3.3c0.5,1.1,0.9,2.2,1.1,3.4
							c0.3,1.5,0.3,2.3-0.2,2.5c-0.6,0.2-1.3-0.2-2.1-1.4c-0.6-1-1.1-2-1.4-3.1c-0.2-0.8-0.4-1.6-0.6-2.4c-0.1-0.7-0.3-1.3-0.4-2
							c-0.2-0.8-0.3-1.7-0.2-2.6c0.1-0.4,0.7,0.2,1.7,1.9C-28.8,47.5-28.7,47.6-28.6,47.7z M187.7,69.8c0.6,1.8,1.1,2.2,1.4,1.2
							c0.1-0.4,0.2-0.8,0.2-1.2c-0.8-0.7-1.5-1.4-2.2-2C187.3,68.4,187.5,69.1,187.7,69.8z M177.5,73.9c0.7,0.1,1.5,0.3,2.4,0.5
							c1.2,0.2,1.8,0,1.9-0.4c0.3-1.3-0.8-2.8-3.1-4.6c-0.6-0.4-1.2-0.9-1.7-1.3C176.6,70.1,176.8,72.1,177.5,73.9z M245.2,21
							c-2.5-0.9-5.2,1.5-8,7.1c-3,6.6-5.4,13.4-7.2,20.4c-0.9,3-1.5,5.5-2.1,7.5c1.6-9.2,2.8-17.5,3.5-24.8c1-7.6,1-15.2,0-22.8
							c-0.9-5.8-2.9-8.3-6.2-7.5c-3.7,0.9-6.1,8.1-7.2,21.5c-0.8,11.3-0.8,22.5-0.2,33.8c-0.4-3.2-0.7-6.2-1.1-8.9
							c-0.8-7.1-2.2-14.1-4.1-21c-1.9-6.1-4-9.3-6.4-9.6c-0.2-0.2-0.6-0.2-1.1-0.1l-0.7,0.4c-4,1.8-5.1,9.8-3.3,23.9l1,7.7
							c0.3,3.2,1,6.4,2,9.5c0.6,2.8,1.2,5.3,1.7,7.6l-2.6-3.5c-1.9-5.1-4.6-9.9-7.8-14.3c-3.1-3.9-5.9-4.6-8.3-2.4
							c-2,1.9-1.8,6.1,0.5,12.4c0.4,1.2,0.9,2.4,1.5,3.8c0.2-3.1,1.7-4.4,4.3-4c4.9,0.8,6.8,4.6,5.9,11.5c-0.2,1.7-0.7,3.9-1.3,6.8
							c-0.3,1.9-0.1,2.8,0.7,2.6c0.4-0.1,0.8-0.6,1.1-1.5c0.4-1.2,0.8-2.1,1-2.7c0.3-1,1-1.8,1.9-2.3c0.9-0.4,2-0.4,3,0.1
							c1.9,0.6,3.2,2.4,3.3,4.3c0,2-0.4,4.1-1.2,5.9c-0.7,1.8-1.3,3.7-1.8,5.6c-0.2,1.8,0.3,2.8,1.7,3.2c0.6,0.2,1.1-0.1,1.5-0.9
							c0.5-1,0.9-1.8,1.2-2.3c1.2-2.1,2.9-2.3,5.3-0.8c1.3,1,2,2.7,1.6,4.3c0,0.4-0.3,1.6-0.2,1.1c0.1-0.3,12.2-0.2,36.4,0.3
							c1.5-0.8,3-0.3,4.3-1.3c1.8-1.4,3.4-2.9,4.8-4.7c2.6-2.7,3.8-6.4,3.3-10.1c-0.7-3.4-3.3-4.2-7.6-2.4
							c-4.5,2.1-8.6,4.9-12.4,8.2v-1.9c4.1-4.7,7.7-9.7,10.9-15.1c3.2-5.7,3.9-9.8,2.2-12.1c-2.1-2.9-5.1-2.6-9,0.9
							c-3.9,4-7.3,8.5-10,13.5l-2.5,2.4c0.7-1.6,1.6-3.9,2.7-6.8c1.5-3,2.7-6.2,3.5-9.5l2.2-7.8c3.7-13.7,3.7-21.9,0-24.5
							C245.8,21.1,245.4,20.9,245.2,21z"/>
					</g>
				</g>
				<g id="Layer2_0_FILL" transform="translate(134.600583, 97.393701)">
					<path id="Shape_2_" class="st6" d="M-131.3,4.4c-2,1.9-3.1,4.5-3.1,7.2v365.1c0,2.7,1.1,5.4,3.1,7.2c1.9,2,4.6,3,7.4,3H48.9
						c2.8,0,5.4-1,7.4-3c2-1.9,3.1-4.5,3-7.2V11.7c0-2.7-1.1-5.3-3-7.2c-2-2-4.6-3-7.4-3h-172.9C-126.7,1.4-129.4,2.5-131.3,4.4
						L-131.3,4.4z M-124.2,43.1H49.2v304.2h-173.5V43.1L-124.2,43.1z M-44.3,360.4c4.1-4,10.6-4,14.7,0c2,1.9,3,4.5,3,7.2
						s-1.1,5.3-3,7.2c-4.1,4-10.6,4-14.7,0c-2-1.9-3-4.5-3-7.2S-46.3,362.3-44.3,360.4L-44.3,360.4z"/>
					<path id="Shape_3_" class="st7" d="M-37,357.5c-2.8,0-5.4,1-7.3,3c-2,1.9-3,4.5-3,7.2s1.1,5.3,3,7.2c4.1,4,10.6,4,14.7,0
						c2-1.9,3-4.5,3-7.2s-1.1-5.3-3-7.2C-31.6,358.5-34.2,357.4-37,357.5L-37,357.5z M49.2,43.1h-173.5v304.2H49.2V43.1L49.2,43.1z
						 M-21.3,177.8l-1.3,0.4L-21.3,177.8L-21.3,177.8L-21.3,177.8z M-59.7,203.9l1-0.3L-59.7,203.9L-59.7,203.9L-59.7,203.9z"/>
					<path id="Shape_4_" class="st8" d="M-58.8,203.6l-1,0.3v0L-58.8,203.6L-58.8,203.6z M-22.6,178.2l1.3-0.4l0,0L-22.6,178.2z"/>
				</g>
				<g id="Layer1_0_FILL" transform="translate(104.431487, 0.000000)">
					<path id="Shape_5_" class="st9" d="M91.4,451.8l-0.1-0.4c0.2,0.9,0.6,2,1.2,3.5c1.5,4.1,2.7,7.2,3.6,9.4c1.3,3.1,2.9,6,4.8,8.8
						c0.5,0.8,1.2,1.7,2.2,3c1.2,1.6,2.1,2.8,2.7,3.6c0,0.1,0.1,0.1,0.1,0.2c1,1.2,1.9,2.3,2.8,3.3c0.2,0.2,0.3,0.4,0.5,0.5
						c0.2,0.1,0.4,0.2,0.7,0.3c0.1,0,0.1,0,0.2,0h0c1.1,0,2-0.5,2.6-1.4l0,0c0,0,0.1-0.1,0.1-0.1c-0.2-0.1-0.4-0.2-0.5-0.4
						c0,0,0,0,0-0.1c0,0,0,0,0,0c1-1,2.4-2.4,4.2-4.3l0.4-0.4l0.1-0.1c1.1-1.3,2-2.5,2.8-3.5l0-0.1c1.3-1.6,2.5-3.2,3.6-4.9
						c0-0.1,0-0.1,0-0.1c-0.2,0-0.4-0.1-0.5-0.1c-0.1,0-0.2,0-0.3-0.1l-0.1-0.1c0,0,0,0,0,0c-2.6-1.8-5.1-3.8-7.3-6
						c-0.3,0.4-0.6,0.7-0.8,1c-1.8,2.2-3.7,4.3-5.8,6.3c-0.8,0.7-1.6,1.4-2.4,2c-0.3,0.2-0.5,0.3-0.8,0.5c-0.1,0.1-0.3,0.1-0.4,0.1
						c0,0-0.1-0.1-0.3-0.4l0,0l0,0l-0.1-0.2c0,0,0,0,0-0.1l-0.1-0.1l-0.3-0.4c-2-2.3-3.7-4.7-5.2-7.3c-1.4-2.3-2.7-4.3-3.7-6.2
						c-0.2,0.1-0.3,0.1-0.4,0.2c-0.1,0.1-0.2,0.1-0.4,0.1c-0.1,0-0.2,0-0.4,0c-0.1-0.1-0.2-0.2-0.2-0.4l-1.3-3.3
						C91.9,453.1,91.6,452.3,91.4,451.8L91.4,451.8z M119,474.1L119,474.1c0.6-0.9,1.2-1.8,1.8-2.7c0,0,0,0,0-0.1
						c0,0,0.1-0.1,0.1-0.1c0.1-0.1,0.1-0.2,0.2-0.2c0,0-0.1,0.1-0.1,0.2l-0.2,0.4c-0.1,0.1-0.1,0.3-0.2,0.4L119,474.1L119,474.1z
						 M97.9,440.4c0.2,0.2,0.4,0.4,0.5,0.5c-0.1-0.1-0.1-0.1-0.2-0.2C98.2,440.6,98.1,440.5,97.9,440.4L97.9,440.4z M91.5,442.4
						c0.1-0.1,0.2-0.2,0.4-0.2c0.3-0.1,0.6-0.2,0.9-0.1c0.3,0.1,0.7,0.2,0.9,0.5c0.3,0.2,0.5,0.5,0.7,0.8c2.4,3.4,4.4,7.1,5.9,10.9
						c0.1,0.2,0.1,0.3,0.1,0.5c-0.1,0.2-0.2,0.3-0.3,0.4c-0.4,0.3-0.8,0.5-1.2,0.7c1.6,3.4,3.9,6.5,6.6,9.1c0.1,0,0.1-0.1,0.2-0.1
						c0.1-0.1,0.2-0.1,0.4-0.2c2.3-1.4,4.5-3.1,6.5-4.9c-0.6-0.7-1.2-1.4-1.8-2c-0.6-0.7-1.2-1.4-1.7-2.1c-0.6-0.8-1.5-2-2.8-3.8
						l-0.2-0.3c-0.3-0.4-0.6-0.9-0.9-1.3l-6.2-8.9c-0.1-0.1-0.1-0.2-0.2-0.3l-0.7-0.7c-0.1,0-0.2-0.1-0.2-0.1
						c-0.2-0.1-0.5-0.1-0.8,0l-0.1,0c0,0.1,0,0.2,0,0.3c0,0-0.1,0-0.2-0.2c-0.2,0.1-1.5,0.4-3.8,0.8c-0.2,0-0.4,0.1-0.7,0.2
						C91.9,441.7,91.7,442,91.5,442.4L91.5,442.4z"/>
					<path id="Shape_6_" class="st10" d="M-117.6,502.1c-0.2,0.3-0.5,0.9-1.1,1.9c-0.5,0.8-0.8,1.6-0.9,2.5
						c-0.1,0.7,0.1,1.1,0.7,1.2c0.5,0.1,1.3-0.5,2.2-1.5c0.9-1.1,1.5-2.5,1.7-4H-117.6L-117.6,502.1z M-83.2,508.8
						c0.4-0.6,0.1-1.8-0.9-3.6l-1.9-3.1h-3.1c1.5,4.4,2.7,6.7,3.7,7.1C-84.3,509.6-83.6,509.4-83.2,508.8L-83.2,508.8z M-101,349
						c-0.1,0.1-0.2,0.3-0.2,0.5c0,0.2,0.1,0.4,0.2,0.5c0.1,0.1,0.3,0.2,0.5,0.2c0.2,0,0.4-0.1,0.5-0.2c0.1-0.1,0.2-0.3,0.2-0.5
						c0-0.2-0.1-0.4-0.2-0.5c-0.1-0.1-0.3-0.2-0.5-0.2C-100.7,348.8-100.8,348.9-101,349L-101,349z M-106.1,348.3
						c-0.1,0-0.2,0-0.2,0c-0.1,0-0.2,0.1-0.3,0.2c-0.1,0.1-0.2,0.3-0.2,0.5c0,0.2,0.1,0.4,0.2,0.5c0.1,0,0.1,0.1,0.2,0.1
						c0.1,0,0.2,0.1,0.3,0.1c0.2,0,0.4-0.1,0.5-0.2c0.1-0.1,0.2-0.3,0.2-0.5c0-0.2-0.1-0.4-0.2-0.5
						C-105.7,348.4-105.9,348.3-106.1,348.3L-106.1,348.3z"/>
					<path id="Path_1_" class="st11" d="M-103.4,414.1c-3.8,0.2-7.6-0.6-11-2.3c-2.2,13.6-3.3,27.4-3.1,41.1v49.2h2.6
						c2.1-16.6,4.1-31.5,5.9-44.6c1.5-11.6,3.8-23,7.1-34.3c5.6,26.1,9.9,52.4,13,78.9h3.1c1.2-31.2-0.1-62.5-3.8-93.5
						C-93.6,411.9-98.4,413.9-103.4,414.1z"/>
					<path id="Shape_7_" class="st12" d="M-91.9,378.7C-92,378.7-92,378.6-91.9,378.7l10.1,6l-9.7,19.2c0.6,1,1.1,2,1.6,3.1
						l15.7-23.1l-12.8-9.5c-0.4,0.5-0.9,1.2-1.4,1.9l-2.4,2.5C-91.3,378.9-91.6,378.8-91.9,378.7L-91.9,378.7z M-96.7,368.7l-0.2,0
						c-0.2,0-0.4-0.1-0.6-0.2c-0.6-0.2-1.2-0.4-1.8-0.7c-1.7,0.9-3.4,1.6-5.2,2.2c-1.7,0.6-3.4,1-5.2,1.3c-0.3,0-0.6,0.1-0.9,0.1
						c-0.1,0-0.2,0-0.4,0.1c0.2,0.5,0.5,0.9,0.8,1.3c0,0.1,0.1,0.1,0.2,0.2c0.4,0.4,0.9,0.8,1.4,1c0.6,0.3,1.1,0.5,1.7,0.5
						c1.2,0.1,2.4,0.1,3.6-0.2c0.4-0.1,0.8-0.2,1.1-0.3c0.4-0.1,0.7-0.3,1.1-0.5c0.4-0.2,0.8-0.5,1.1-0.8c0.3-0.3,0.6-0.6,0.9-1
						C-98.1,370.8-97.3,369.7-96.7,368.7L-96.7,368.7z M-129.7,359.3c-1.3,0.4-2.5,1.2-3.4,2.1c-0.5,0.5-0.9,1-1.3,1.5
						c-1.2,1.6-1.7,3.6-1.5,5.6c0.1,8.1,2.1,16,5.9,23.2c4.4-2.8,8.4-6.1,12-9.9c-0.2-1-0.1-2,0.2-3c0.1-0.2,0.1-0.4,0.2-0.7l-0.1,0
						c-0.2-0.1-0.3-0.2-0.4-0.3c-0.8-0.8-1.6-1.6-2.1-2.6c-0.1-0.1-0.2-0.3-0.2-0.5h0l0.3-0.4l-8.2,9.6c-1.9-5.2-3.5-10.5-4.7-15.9
						c0.4-0.2,0.8-0.5,1.1-0.8c0.7-0.7,1.3-1.4,1.7-2.3c0.7-1.3,1.3-2.7,1.7-4.1C-128.5,359.7-128.9,359.1-129.7,359.3L-129.7,359.3
						z M-98.8,341l-1.8,1.4c-2.2,1.6-5.1,2.3-7.8,1.8l0,0.1c-0.7,3.9-0.8,7.9-0.3,11.9c0.3,1,0.7,1.9,1.2,2.8
						c0.2,0.3,0.5,0.6,0.8,0.9c0.2,0.2,0.5,0.4,0.7,0.5c0.7,0.4,1.5,0.6,2.3,0.7c0.3,0,0.7,0.1,1.1,0.1c0.4,0,0.9-0.1,1.3-0.3
						c0.2-0.1,0.4-0.2,0.7-0.3c0.9-0.6,1.7-1.4,2.1-2.4c0.6-1.3,0.9-2.7,0.9-4.1c0.1,0.3,0.4,0.4,1,0.3c0.6-0.1,1.2-0.6,1.7-1.6
						c0.5-1,0.5-1.7,0-2.1c-0.4-0.4-1.1-0.3-1.5,0.1c-0.2,0.1-0.3,0.2-0.4,0.4c-0.7-1.8-1.2-3.7-1.6-5.6
						C-98.6,343.9-98.8,342.4-98.8,341L-98.8,341z M-98.7,347.2c-0.5-0.8-1.5-1.1-2.4-0.8C-100.2,346.1-99.2,346.4-98.7,347.2
						L-98.7,347.2z M-104.9,345.8c-0.4-0.2-0.8-0.3-1.2-0.3c-0.4,0-0.8,0.2-1.1,0.5c0.3-0.3,0.7-0.5,1.1-0.5
						C-105.7,345.5-105.3,345.6-104.9,345.8L-104.9,345.8z M-106.3,348.3c0.1,0,0.2,0,0.2,0c0.2,0,0.4,0.1,0.5,0.2s0.2,0.3,0.2,0.5
						c0,0.2-0.1,0.4-0.2,0.5c-0.1,0.1-0.3,0.2-0.5,0.2c-0.1,0-0.2,0-0.3-0.1c-0.1,0-0.1-0.1-0.2-0.1c-0.1-0.1-0.2-0.3-0.2-0.5
						c0-0.2,0.1-0.4,0.2-0.5C-106.5,348.4-106.4,348.4-106.3,348.3L-106.3,348.3z M-105.8,352.3c0.5-0.1,0.9-0.9,1.4-2.3
						c0.4-1.4,0.7-2,0.8-1.7c0,1.6-0.1,3.2-0.4,4.9c-0.4,0.6-1.2,0.5-2.3-0.2C-106.5,352.6-106.3,352.4-105.8,352.3L-105.8,352.3z
						 M-101.2,349.5c0-0.2,0.1-0.4,0.2-0.5c0.1-0.1,0.3-0.2,0.5-0.2c0.2,0,0.4,0.1,0.5,0.2c0.1,0.1,0.2,0.3,0.2,0.5
						c0,0.2-0.1,0.4-0.2,0.5c-0.1,0.1-0.3,0.2-0.5,0.2c-0.2,0-0.4-0.1-0.5-0.2C-101.1,349.9-101.2,349.7-101.2,349.5L-101.2,349.5z
						 M-106,355.4c0.1,0.3,0.7,0.5,1.7,0.5c0.9,0.1,1.8-0.2,2.4-0.8c0.2,0.5,0.1,1-0.2,1.5c-0.3,0.4-0.7,0.7-1.2,0.8
						C-104.3,357.7-105.3,357-106,355.4L-106,355.4z M97.4,419.1c-0.2,0-0.5-0.1-0.7-0.1c-0.3,0-0.8-0.1-1.3-0.2
						c-0.4-0.1-0.9,0-1.3,0.1c-0.2,0.1-0.3,0.2-0.4,0.5c-0.1,0.2-0.1,0.3-0.1,0.5c0.4,0.7,0.6,1.4,0.7,2.2c0,0.6-0.1,1.3-0.3,1.9
						c0,0.1,0,0.1,0,0.2c-0.2,0.6-0.4,1.3-0.9,1.8c-0.2,0.2-0.3,0.4-0.5,0.5c-0.1,0.1-0.2,0.3-0.2,0.5c-0.2,0.4-0.2,0.9,0,1.3
						c0.1,0.1,0.1,0.3,0.1,0.4v0l0.2,0.5c0.1,0.2,0.2,0.5,0.2,0.7c0.1,0.2,0,0.3,0,0.5c-0.1,0.1-0.3,0.2-0.4,0.3l0,0
						c-0.2,0.1-0.4,0.1-0.6,0.1c-0.2,0-0.4-0.1-0.5-0.2l0,0c-0.1-0.1-0.2-0.2-0.2-0.3c-0.3-0.5-0.5-0.8-0.6-0.9
						c-0.2-0.3-0.4-0.6-0.7-0.8c-0.5-0.5-1.2-0.9-1.9-0.9h-0.3c-0.1,0-0.1,0-0.2,0c-0.2,0.1-0.3,0.2-0.4,0.3
						c-0.3,0.4-0.5,0.9-0.4,1.4c0,0.2,0.1,0.5,0.2,0.7c0.1,0.3,0.2,0.5,0.4,0.8c0.5,0.7,1.2,1.3,2,1.5c0.3,0.1,0.6,0.2,0.8,0.2h0
						c0,0.1,0.1,0.1,0.1,0.3l0.8,1.6c0.3,0.6,0.6,1.1,0.9,1.6l0,0l0.1,0.1c0.3,0.4,0.7,0.8,1.2,1.1c0.6,0.5,1.2,0.8,2,0.9
						c0.3,0,0.5,0.1,0.8,0.1c0.2,0,0.5,0,0.7,0c0.1,0,0.2,0,0.3-0.1c0.1,0,0.2,0,0.2-0.1c0.7-0.1,1.4-0.5,2-0.9
						c0.9-0.8,1.5-1.9,1.6-3.1c0.1-0.6,0.1-1.2,0.1-1.8c0-0.4-0.1-1-0.1-1.8l0-0.5l0,0c-0.1-0.8-0.1-1.5-0.2-1.9
						c-0.1-0.9-0.3-1.7-0.5-2.6c0.1,0,0.2,0,0.2,0.1c0,0,0,0,0,0.1c-0.1-0.7-0.2-1.3-0.3-1.8C99.1,422,98.4,420.5,97.4,419.1
						L97.4,419.1z M95.9,422.2c0.1,0,0.2-0.1,0.3-0.1c0.1,0,0.2,0,0.3,0c0.2,0,0.3,0,0.5,0.1c0.1,0,0.2,0.1,0.2,0.2
						c0,0,0.1,0,0.1,0.1c0,0,0,0.1,0,0.2c-0.1,0-0.1,0.1-0.2,0.1l-0.2,0l-0.2-0.1c-0.1,0-0.3-0.1-0.4-0.1c-0.1,0-0.2,0-0.3,0
						l-0.2,0.1c-0.2,0.1-0.2,0.2-0.2,0.2c-0.1,0.1-0.2,0.2-0.2,0.4c-0.1,0.2-0.2,0.4-0.2,0.6c0,0,0,0.1,0,0.1s-0.1,0.1-0.1,0.1
						c0,0-0.1,0-0.1,0c0,0,0,0,0,0c-0.1,0-0.1-0.1-0.1-0.2c0-0.3,0.1-0.6,0.2-0.9c0.1-0.2,0.2-0.4,0.4-0.6
						C95.6,422.4,95.7,422.3,95.9,422.2L95.9,422.2z M96.1,425.8c0-0.1,0.1-0.2,0.1-0.3c0.1,0,0.1-0.1,0.2-0.1c0.1,0,0.2,0,0.2,0.1
						c0.1,0.1,0.2,0.2,0.3,0.4c0.1,0.2,0.1,0.5,0.2,0.7c0,0.1,0,0.2,0,0.3c-0.1,0.1-0.2,0.2-0.3,0.2c-0.2,0-0.4-0.1-0.5-0.3
						l-0.1-0.2c0-0.1-0.1-0.2-0.1-0.4C96.1,426,96.1,425.9,96.1,425.8L96.1,425.8z M99.6,433.4C99.7,433.4,99.7,433.4,99.6,433.4
						c0.2,0.1,0.1,0.1,0.1,0.2c-0.2,0.1-0.4,0.2-0.6,0.2c-1,0-2-0.3-2.8-0.9c-0.1-0.1-0.2-0.2-0.3-0.3c-0.1-0.1-0.1-0.1-0.1-0.2
						c0-0.1,0-0.2,0.1-0.2s0.2,0,0.3,0.1c0.5,0.5,1.1,0.9,1.8,1c0.3,0.1,0.5,0.1,0.8,0.1c0.2,0,0.3,0,0.5,0L99.6,433.4L99.6,433.4z
						 M124.4,442.2c-0.2,0-0.5,0.1-0.7,0.3c-0.3,0.2-0.6,0.5-0.9,0.9l0,0.1c-0.2,0.4-0.5,0.8-0.7,1.2c-0.7,1.2-1,2.6-1,4
						c0,0.3,0.1,0.6,0.2,0.9c0,0,0,0-0.1,0.1l-2.2,3.1c-0.6,0.9-1.1,1.6-1.5,2c-0.3,0.4-0.7,0.8-1.1,1.2l-0.4,0.4
						c-0.9,1-1.9,1.9-2.8,2.7c-0.2,0.2-0.4,0.4-0.6,0.6c-2,1.8-4.2,3.5-6.5,4.9c-0.1,0.1-0.2,0.1-0.4,0.2c-0.1,0-0.1,0.1-0.2,0.1
						c-2.7-2.6-4.9-5.7-6.6-9.1c-0.4,0.2-0.9,0.4-1.5,0.6c-1.1,0.4-1.9,0.8-2.4,1c1,1.9,2.2,3.9,3.7,6.2c1.5,2.6,3.3,5,5.2,7.3
						l0.3,0.4l0.1,0.1c0,0,0,0,0,0.1l0.1,0.2l0,0l0,0c0.2,0.2,0.3,0.4,0.3,0.4c0.2,0,0.3,0,0.4-0.1c0.2-0.1,0.5-0.3,0.8-0.5
						c0.9-0.6,1.7-1.3,2.4-2c2-2,4-4.1,5.8-6.3c0.2-0.3,0.5-0.6,0.8-1c0.4-0.5,0.8-0.9,1.2-1.5c0.9-1.2,2-2.6,3.3-4.2
						c0.1-0.1,0.1-0.1,0.2-0.2c0.5-0.7,0.8-1.1,0.9-1.3c0.2-0.4,0.6-0.8,0.9-1.5l2.5-3.9c0,0,0.1-0.1,0.1-0.1
						c0.1-0.1,0.2-0.2,0.3-0.3c0.1-0.1,0.2-0.3,0.3-0.4c0.4-0.5,0.8-1.1,1-1.7c0.1-0.2,0.1-0.5,0.2-0.7c0.2-0.8,0.2-1.6,0-2.4
						c-0.1-0.4-0.2-0.8-0.4-1.2c-0.1-0.2-0.3-0.4-0.5-0.5C124.8,442.2,124.6,442.2,124.4,442.2L124.4,442.2z"/>
					<path id="Shape_8_" class="st13" d="M-106.7,359.8c-0.3-0.3-0.5-0.6-0.8-0.9c-0.4,2.8-0.8,5.4-1.2,7.8l0.4-0.2
						c0.7-0.3,1.2-0.7,1.7-1.3c0.7-1.5,0.9-3.2,0.7-4.9C-106.2,360.1-106.4,360-106.7,359.8L-106.7,359.8z M-101.2,333.4
						c-2.2,0.2-3.9,1.8-4.4,4c-2.1,1.6-3.4,4-3.7,6.6c0.3,0,0.6,0.1,0.9,0.2c2.7,0.5,5.6-0.2,7.8-1.8l1.8-1.4c0,1.5,0.2,2.9,0.5,4.3
						c0.3,1.9,0.8,3.8,1.6,5.6c0.1-0.1,0.3-0.3,0.4-0.4c0.4-0.4,1-0.5,1.5-0.1c0.5,0.5,0.5,1.2,0,2.1c-0.5,1-1.1,1.5-1.7,1.6
						c-0.6,0.1-0.9,0-1-0.3c0,1.4-0.3,2.8-0.9,4.1c-0.4,1-1.2,1.8-2.1,2.4c-0.2,0.1-0.4,0.2-0.7,0.3c-0.3,1.4-0.3,2.8-0.1,4.1
						c0.1,1,0.7,1.9,1.6,2.5c0.2,0.1,0.3,0.2,0.5,0.4c0.6,0.3,1.2,0.6,1.8,0.7c0.2,0.1,0.4,0.1,0.6,0.2l0.2,0c0.2,0,0.3,0,0.4,0.1
						l0.5,0.1l0.3,0.1c0.7,0.3,1.2,0.5,1.5,0.6c0.5,0.2,1,0.6,1.6,1c1.1-5.5,1.9-11.2,2.5-17c0.8-7.4,0.3-12.8-1.5-16
						C-93.1,334.4-96.4,333-101.2,333.4L-101.2,333.4z M-105.1,337.1c0.1-0.1,0.2-0.2,0.2-0.3c1.7-1.9,4.4-2.5,6.8-1.6
						c2.6,0.5,4.7,2.3,5.4,4.8c0.6,1.9,0.3,4-0.8,5.7c0-0.2,0.1-0.3,0.1-0.5c0.4-1.6,0-3.4-0.9-4.7c-0.9-1.1-1.7-1.4-2.4-0.8
						c-0.5-1.6-1.7-2.8-3.3-3.3C-101.7,336.1-103.5,336.3-105.1,337.1L-105.1,337.1z"/>
					<path id="Shape_9_" class="st14" d="M-103.7,361c-0.8-0.1-1.6-0.3-2.3-0.7c0.3,1.7,0,3.4-0.7,4.9c-0.4,0.6-1,1.1-1.7,1.3
						l-0.4,0.2c-0.2,0.1-0.3,0.1-0.5,0.2c-0.3,0.1-0.6,0.3-0.9,0.4l-0.1,0l-0.1,0c0,0-0.1,0-0.1,0c-0.2,0-0.3,0.1-0.5,0.1
						c-0.2,0-0.4,0.1-0.7,0.1c0,0.7,0.1,1.3,0.1,1.7c0.1,0.7,0.2,1.5,0.5,2.1c0.1,0,0.2,0,0.4-0.1c0.3,0,0.6-0.1,0.9-0.1
						c1.8-0.3,3.5-0.8,5.2-1.3c1.8-0.6,3.5-1.3,5.2-2.2c-0.2-0.1-0.4-0.2-0.5-0.4c-0.8-0.6-1.4-1.5-1.6-2.5
						c-0.2-1.4-0.1-2.8,0.1-4.1c-0.4,0.2-0.8,0.3-1.3,0.3C-103,361-103.4,361-103.7,361L-103.7,361z M106.5,451.5
						c-0.1,0.1-0.2,0.3-0.3,0.4c1.2,1.7,2.2,3,2.8,3.8c0.6,0.7,1.1,1.4,1.7,2.1c0.8,0.5,1.7,1,2.5,1.5c0.9-0.9,1.9-1.8,2.8-2.7
						c-2-0.9-3.9-2-5.8-3.2l-0.2-0.1c-0.9-0.7-1.7-1.3-2.3-1.8c-0.2-0.2-0.4-0.4-0.6-0.5L106.5,451.5L106.5,451.5z M131,443.2
						c-0.1,0-0.3-0.1-0.4-0.1l-1,4.8l-3.1,0.6v0c-0.1,0.4-0.2,0.7-0.2,0.7s0,0.1-0.1,0.1l0,0l-2.8,3.3c-1.1,1.4-2.4,2.6-3.8,3.7
						c0,0.1-0.1,0.1-0.2,0.2c-1.2,1.6-2.3,3-3.3,4.2l0.3,0.1c0.5,0.3,1.1,0.5,1.7,0.6c0.6,0.1,1.2,0.1,1.7-0.1
						c0.3-0.1,0.6-0.3,0.9-0.5l1.3-1.6c3.9-4.8,6.4-8,7.6-9.5c1.2-1.5,1.9-2.4,2-2.6c0.6-0.9,0.7-2.1,0.2-3.1
						C131.7,443.7,131.4,443.4,131,443.2L131,443.2z M91.6,435.8c0,0.1,0.1,0.3,0.2,0.5c0.2,0.6,0.4,1.7,0.8,3.4l0.1,0.6
						c0.1,0.3,0.1,0.6,0.2,0.9c2.4-0.5,3.7-0.8,3.8-0.8c0.1,0.2,0.1,0.2,0.2,0.2c0-0.1,0-0.2,0-0.3c0-0.2-0.1-0.6-0.2-1
						c-0.2-0.8-0.3-1.2-0.3-1.3c-0.2,0-0.5,0.1-0.7,0c-0.3,0-0.5,0-0.8-0.1c-0.7-0.1-1.4-0.5-2-0.9C92.4,436.6,92,436.2,91.6,435.8
						L91.6,435.8L91.6,435.8L91.6,435.8l-0.1-0.2C91.6,435.7,91.6,435.8,91.6,435.8L91.6,435.8z"/>
					<path id="Shape_10_" class="st7" d="M-116.4,369.5c-0.2,0.3-0.6,0.7-1,1.2l-2.8,3.7l-0.3,0.4h0c0.1,0.2,0.1,0.3,0.2,0.5
						c0.6,1,1.3,1.9,2.1,2.6c0.1,0.1,0.3,0.2,0.4,0.3l0.1,0c-0.1,0.3-0.2,0.5-0.2,0.7c-0.3,1-0.4,2-0.2,3c0.1,0.3,0.2,0.6,0.3,0.9
						c0.2,0.3,0.4,0.6,0.6,0.9c0.1,0.2,0.2,0.3,0.3,0.5c0.4,0.4,0.7,0.8,0.9,1.3c0.1,0.2,0.3,0.5,0.4,0.8c0.2,0.6,0.4,1.2,0.6,1.8
						c0.7,2.5,1.1,5,1.2,7.6c0.1,1.8,0.1,4.4,0,7.8c-0.1,2.9-0.2,5.1-0.4,6.6c-0.1,0.6-0.1,1.2-0.2,1.8c8.1,4,17.8,2.7,24.7-3.2
						l0.3-0.3c-0.2-0.5-0.4-0.9-0.6-1.4c-0.5-1.1-1-2.1-1.6-3.1c-0.9-1.5-1.8-3-2.9-4.4l0,0l0,0l0,0l0,0c-0.1-0.2-0.3-0.4-0.4-0.6
						c-2.4-3.1-3.3-7.1-2.5-10.9c0.6-3.6,2.1-7,4.3-9.9c0.4,0.2,0.7,0.4,1.1,0.6c0,0,0.1,0,0.1,0c0.3,0.1,0.6,0.2,0.9,0.1l2.4-2.5
						c0.6-0.7,1-1.4,1.4-1.9l0,0c-0.3-0.2-0.6-0.4-0.9-0.7c0,0-0.7-0.5-1.9-1.4c-0.8-0.6-1.6-1.2-2.3-1.6c-0.6-0.4-1.2-0.7-1.6-1
						c-0.3-0.1-0.8-0.4-1.5-0.6l-0.3-0.1l-0.5-0.1c-0.2,0-0.3-0.1-0.4-0.1c-0.7,1.1-1.4,2.1-2.2,3.1c-0.3,0.4-0.7,0.7-0.9,1
						c-0.3,0.3-0.7,0.6-1.1,0.8c-0.3,0.2-0.7,0.4-1.1,0.5c-0.4,0.1-0.7,0.2-1.1,0.3c-1.2,0.3-2.4,0.4-3.6,0.2
						c-0.6-0.1-1.2-0.3-1.7-0.5c-0.5-0.2-1-0.6-1.4-1c-0.1-0.1-0.1-0.1-0.2-0.2c-0.3-0.4-0.6-0.8-0.8-1.3c-0.3-0.7-0.4-1.4-0.5-2.1
						c-0.1-0.4-0.1-1-0.1-1.7c-0.2,0-0.4,0.1-0.6,0.1c-0.4,0.1-0.8,0.1-1.2,0.1c-0.1,0-0.1,0-0.2,0.1c-0.6,0.1-1.1,0.4-1.6,0.6
						C-115.6,368.8-116,369.1-116.4,369.5L-116.4,369.5z M-104.3,355.9c-1,0-1.5-0.2-1.7-0.5c0.7,1.6,1.6,2.3,2.7,2
						c0.5-0.1,0.9-0.4,1.2-0.8c0.3-0.4,0.3-1,0.2-1.5C-102.5,355.6-103.4,355.9-104.3,355.9L-104.3,355.9z M-104.8,336.8
						c-0.1,0.1-0.2,0.2-0.2,0.3c1.6-0.8,3.3-1,5.1-0.6c1.6,0.5,2.8,1.8,3.3,3.3c0.7-0.6,1.5-0.4,2.4,0.8c1,1.4,1.3,3.1,0.9,4.7
						c0,0.2-0.1,0.3-0.1,0.5c1.2-1.7,1.5-3.8,0.8-5.7c-0.7-2.5-2.8-4.4-5.4-4.8C-100.4,334.3-103.1,335-104.8,336.8L-104.8,336.8z"
						/>
					<path id="Shape_11_" class="st15" d="M-126.1,352.2l-1-0.5l0.5,15.6l1-0.7L-126.1,352.2L-126.1,352.2z M-129.2,356.1
						c0.2,0,0.3-0.1,0.4-0.3c0.1-0.2,0.2-0.5,0.2-0.7c0-0.2-0.1-0.5-0.2-0.7c-0.1-0.2-0.2-0.3-0.4-0.3c-0.2,0-0.4,0.1-0.4,0.3
						c-0.1,0.2-0.2,0.5-0.2,0.7c0,0.2,0.1,0.5,0.2,0.7C-129.6,356-129.4,356.1-129.2,356.1L-129.2,356.1z"/>
					<path id="Shape_12_" class="st16" d="M-127,351.7l-6.5,1.5l0.4,8.3c1-1,2.1-1.7,3.4-2.1c0.8-0.2,1.2,0.3,1.1,1.5
						c-0.4,1.4-0.9,2.8-1.7,4.1c-0.4,0.9-1,1.6-1.7,2.3h5.5L-127,351.7L-127,351.7z M-128.8,355.8c-0.1,0.2-0.2,0.3-0.4,0.3
						c-0.2,0-0.4-0.1-0.4-0.3c-0.1-0.2-0.2-0.5-0.2-0.7c0-0.2,0.1-0.5,0.2-0.7c0.1-0.2,0.2-0.3,0.4-0.3c0.2,0,0.3,0.1,0.4,0.3
						c0.1,0.2,0.2,0.5,0.2,0.7C-128.6,355.4-128.7,355.6-128.8,355.8L-128.8,355.8z"/>
					<path id="Path_2_" class="st17" d="M-104.4,350c-0.4,1.4-0.9,2.2-1.4,2.3c-0.5,0.1-0.6,0.4-0.4,0.7c1.1,0.7,1.9,0.7,2.3,0.2
						c0.3-1.6,0.4-3.2,0.4-4.9C-103.8,348-104,348.5-104.4,350z"/>
					<path id="Shape_13_" class="st18" d="M28,151.9c1.4-0.4,1.4-1.7-0.2-3.9c-1.5-2.2-3.2-4.1-5.3-5.7c-2.4,1-5.1,0.9-7.4-0.3
						c1.5,3.1,3.7,5.7,6.6,7.6C24.5,151.5,26.6,152.2,28,151.9L28,151.9z M-16.8,147.7c-2.1,1.9-2.5,3-1,3.5c2.1,0.4,4.3,0,6.1-1.1
						c2.1-0.9,4.1-2,6-3.4c1.2-0.9,2.1-2.1,2.7-3.6c-2.3,1.2-5,1.1-7.3-0.1C-12.6,144.4-14.7,145.9-16.8,147.7L-16.8,147.7z"/>
					<path id="Path_3_" class="st19" d="M-12.6,84.3c-3-1.8-5.5-2-7.6-0.5c-2,1.4-3,4.5-2.8,9.2c0.4,6.3,1.6,12.6,3.4,18.7l9.4,31.3
						c2.2,1.3,5,1.3,7.3,0.1l-4.7-42.7c9.7,0.9,19.5,0.9,29.2,0c-1.4,13.1-3.3,25.8-5.7,38.2l-0.6,3.4c2.3,1.2,5,1.3,7.4,0.3
						c0.5-1.2,0.9-2.4,1.3-3.7C29.7,122,34.3,105,37.6,87.8c0.4-2.9-1.3-5.7-4-6.7c-2.8-1.1-6.1,0-9.7,3.3c-1.1,1-2.2,1.9-3.3,2.7
						c-2.6,2-5.4,3.6-8.4,4.8C7.9,93.5,3,93.1-1,90.7c-1.9-1-3.7-1.9-5.3-2.8C-8.7,86.5-10.8,85.3-12.6,84.3z"/>
					<path id="Shape_14_" class="st20" d="M-0.6,33.9v0.3c0,1.4,0.6,2.8,1.6,3.7c2.2,2.1,5.6,2.1,7.8,0c1-1,1.6-2.3,1.6-3.7v-2.7
						c-0.1,0.1-0.3,0.3-0.4,0.4c-2.8,2.7-7.2,2.7-9.9,0c-0.2-0.2-0.4-0.5-0.6-0.7L-0.6,33.9L-0.6,33.9z M-3.3,17.9
						C-3.4,17.9-3.4,17.9-3.3,17.9c-0.2,0-0.4,0.1-0.5,0.3c-1.1,1.1-1.1,2.8,0,3.9c0.5,0.5,1.1,0.8,1.7,0.8v-2.6h-0.1
						c-0.1,0-0.3,0-0.4-0.1c0,0,0,0-0.1-0.1l0,0c-0.2-0.2-0.3-0.4-0.4-0.7C-3.2,18.9-3.3,18.4-3.3,17.9L-3.3,17.9z M13.4,17.9
						c-0.1-0.1-0.2-0.2-0.3-0.2l0,0.5c0,0.2,0,0.4-0.1,0.6c-0.1,0.2-0.2,0.5-0.4,0.6c-0.1,0.1-0.2,0.2-0.4,0.2c-0.1,0-0.2,0-0.3,0v3
						c1-0.2,1.8-0.9,2.1-1.9C14.4,19.7,14.1,18.6,13.4,17.9L13.4,17.9z"/>
					<path id="Shape_15_" class="st21" d="M-0.6,34.2v-0.3c-3.7,0.7-7.1,2.5-9.7,5.2c-2.7,2.7-4.5,6.2-5.2,10l-3,14.9
						c-0.9,3.6-1.4,5.7-1.6,6.3h0c-0.5,1.4-0.9,2.9-0.9,4.4c0,0.6,0,1.2,0.2,1.8c0,0,0,0,0,0.1l0,0c0.1,0.7,0.4,1.3,0.8,1.9
						c0.4,0.7,1,1.3,1.6,1.8c0.5,0.4,1,0.7,1.5,0.9c0.6,0.3,1.4,0.4,2.1,0.5c0.1,0,0.1,0,0.2,0c0,0,0.1,0,0.1,0c0.7,0,1.5,0,2.2-0.2
						c2.2-0.4,4.1-1.5,5.6-3.2c0.2,3.1,0.3,6.3,0.5,9.6c1.6,0.9,3.4,1.8,5.3,2.8c4,2.4,8.9,2.9,13.3,1.3c3-1.2,5.8-2.8,8.4-4.8
						c-0.1-4-0.1-7.9-0.2-11.7C22,77,23.9,78,26,78.4c0,0,0.1,0,0.1,0c0.3,0.1,0.6,0.1,1,0.1c0.2,0,0.4,0,0.6,0c0.1,0,0.1,0,0.2,0
						c0,0,0,0,0.1,0c0,0,0.1,0,0.1,0c0.7,0,1.5-0.2,2.2-0.5c0.5-0.2,1-0.5,1.4-0.8c0.6-0.4,1.1-1,1.5-1.6c0.3-0.5,0.5-1.1,0.7-1.7
						l0,0c0,0,0,0,0,0c0.1-0.3,0.1-0.7,0.1-1c0-0.2,0-0.4,0-0.6c-0.1-1.4-0.5-2.7-1.1-4l-6.3-19.9c-0.9-3.9-2.9-7.4-5.8-10.1
						c-2.9-2-6-3.5-9.4-4.4c-0.4-0.1-0.8-0.2-1.1-0.3v0.6c0,1.4-0.6,2.8-1.6,3.7C6.5,40,3.1,40,1,38C-0.1,37-0.6,35.7-0.6,34.2
						L-0.6,34.2z M-13,79.6c-0.5,0.2-1.1,0.2-1.6,0.2c-1.4-0.1-2.5-1.2-3.1-3.2c-0.8-2.8,0.2-5.7,2.6-7.4c2.3-2,4.7-3.8,7.2-5.6
						c2.2-1.5,4.3-3.3,6.1-5.4c-0.1-1.6,0.2-3.2,1-4.7c0.5-1.2,1.6-2.1,2.8-2.4c-0.3-1.4-0.3-2.2,0.1-2.4v-3h9.2l-0.1,0.8l-0.1,1.5
						l0-0.1c1.4,0.4,2.5,1.3,3.1,2.6c0.8,1.4,1.1,3,1,4.7c1.8,2.1,3.8,3.9,6.1,5.4c2.5,1.7,4.9,3.6,7.2,5.6c2.4,1.7,3.4,4.6,2.6,7.4
						c-0.6,2.1-1.6,3.2-3.1,3.2c-0.2,0-0.5,0-0.8,0c-0.2,0-0.4-0.1-0.6-0.1c-0.1,0-0.1,0-0.2-0.1c-2.3-0.8-4.9-3.1-7.7-7.2
						c-2.8-4-4.8-6.8-5.9-8.2c-0.7-0.9-1.5-1.7-2.5-2.3l-0.1,1.6H5.8c-0.4,0.2-0.8,0.4-1.2,0.5c-1.6,0.7-2.9,1.8-3.9,3.1
						c-1.1,1.4-3.1,4.2-6,8.2C-8.1,76.5-10.6,78.9-13,79.6z"/>
					<path id="Shape_16_" class="st22" d="M8.7,58.8c-0.9,0.7-1.8,1.3-2.9,1.8h4.2l0.1-1.6l0.2-2.2C10,57.5,9.4,58.2,8.7,58.8
						L8.7,58.8z M11.1,48.3c0-0.1,0-0.1,0-0.2l0-0.1l0.1-1.5H2.1v7.3c2.1-0.3,4-0.7,5.7-1.1c1-0.2,2-0.5,3-1l0.1-1
						C10.9,50,11,49.2,11.1,48.3L11.1,48.3z M3.3,47.9c0.2-0.2,0.5-0.3,0.8-0.3H5c0.3,0,0.6,0.1,0.8,0.3c0.2,0.2,0.3,0.5,0.3,0.8
						c0,0.3-0.1,0.6-0.3,0.8c-0.2,0.2-0.3,0.2-0.5,0.3c-0.1,0-0.1,0-0.2,0H4.1c-0.3,0-0.6-0.1-0.8-0.3c-0.1-0.1-0.2-0.2-0.2-0.3
						C3.1,49,3,48.8,3,48.7C3,48.4,3.1,48.1,3.3,47.9L3.3,47.9z M4.5,48.5c0,0-0.1-0.1-0.1-0.2c-0.1-0.1-0.2-0.2-0.4-0.2
						c-0.1,0-0.3,0.1-0.4,0.2c-0.2,0.1-0.2,0.4-0.1,0.5s0.3,0.3,0.5,0.3c0.1,0,0.2,0,0.2-0.1c0,0,0.1-0.1,0.1-0.1
						c0.1-0.1,0.2-0.2,0.2-0.4C4.6,48.6,4.5,48.6,4.5,48.5L4.5,48.5z M149.4,472.3l-0.6-0.9c-0.2-0.4-0.5-0.7-0.9-0.9
						c-0.6-0.1-1.1,0.1-1.6,0.4c-6.5,3.9-13.2,7.4-20.1,10.4c-1,0.5-1.8,0.8-2.4,1c-0.3,0.1-0.5,0.2-0.8,0.3
						c-0.6,0.2-1.2,0.4-1.7,0.5l0,0c-0.1,0-0.2,0.1-0.3,0.1c-0.1,0,2.3-0.6,7-2c4.5-1.2,8.8-2.9,13-4.9
						C144.9,474.5,147.7,473.1,149.4,472.3L149.4,472.3z M162.8,458c-0.1,0-0.1-0.1-0.2-0.1c-0.2-0.3-3.2,0.5-9.1,2.3
						c1.9,3.1,3.6,6.3,5.1,9.6c0,0,0,0.1,0,0.1c0,0,0.1,0,0.1,0c0.7,0.6,1.4,1.3,1.8,2.1c0.9,1.5,2.1,3.1,3.4,4.9
						c0.8,1.1,1.6,2.5,2.6,3.9c3.9,5.9,7.1,10.8,9.8,14.7c0.6,0.9,1.1,1.9,1.7,2.8c0.3,0.6,0.6,1.1,1,1.6c0.1,0.2,0.2,0.3,0.4,0.4
						c0.1,0,0.1,0,0.2,0c0.1,0,0.2-0.1,0.3-0.2l0,0l1.4-0.6c0.1,0,0.2-0.1,0.4-0.2c0.1-0.1,0.2-0.2,0.3-0.3c0.1,0,0.1-0.1,0.2-0.1
						c0,0,0-0.1,0-0.1c0-0.1,0-0.3-0.1-0.5c-0.6-1.6-1.4-3.3-2.3-5.2c-0.1-0.3-0.3-0.6-0.4-1c0,0,0-0.1-0.1-0.1
						c-0.4-1-1-2.1-1.6-3.4c0,0-0.1-0.1-0.1-0.2c-0.1-0.2-0.1-0.3-0.2-0.5l-3.9-8.1c-2.4-6.1-5.2-12.1-8.4-18
						c-0.3-0.6-0.6-1.1-0.9-1.5C163.8,459.4,163.3,458.7,162.8,458L162.8,458z"/>
					<polygon id="Path_4_" class="st23" points="2.1,53.8 2.1,51.5 2.1,51.4 2.1,53.8 					"/>
					<path id="Shape_17_" class="st24" d="M11.2,46.6l0.1-0.8H2.1v0.8H11.2L11.2,46.6z M4.1,47.6c-0.3,0-0.6,0.1-0.8,0.3
						S3,48.4,3,48.7c0,0.1,0,0.3,0.1,0.4c0,0.1,0.1,0.2,0.2,0.3c0.2,0.2,0.5,0.3,0.8,0.3H5c0.1,0,0.2,0,0.2,0c0.2,0,0.4-0.1,0.5-0.3
						C6,49.2,6.1,49,6.1,48.7c0-0.3-0.1-0.6-0.3-0.8c-0.2-0.2-0.5-0.3-0.8-0.3L4.1,47.6L4.1,47.6z M4.4,48.3c0,0,0.1,0.1,0.1,0.2
						c0,0.1,0.1,0.1,0,0.2c0,0.1-0.1,0.3-0.2,0.4c0,0-0.1,0.1-0.1,0.1c-0.1,0-0.2,0.1-0.2,0.1c-0.2,0-0.4-0.1-0.5-0.3s0-0.4,0.1-0.5
						c0.1-0.1,0.2-0.2,0.4-0.2C4.2,48.2,4.3,48.2,4.4,48.3z"/>
					<path id="Shape_18_" class="st25" d="M-14.6,79.8c0.5,0,1.1-0.1,1.6-0.2c2.3-0.8,4.9-3.1,7.7-7.2c2.8-4,4.8-6.8,5.9-8.2
						c1-1.4,2.4-2.5,3.9-3.2c0.4-0.2,0.8-0.3,1.2-0.5c1-0.5,2-1.1,2.9-1.8c0.7-0.6,1.3-1.3,1.7-2.1l-0.2,2.2
						c0.9,0.7,1.8,1.4,2.5,2.3c1.1,1.5,3.1,4.2,5.9,8.2c2.8,4,5.4,6.4,7.7,7.2c0.1,0,0.1,0,0.2,0.1c0.2,0.1,0.4,0.1,0.6,0.1
						c0.2,0,0.5,0.1,0.8,0c1.5-0.1,2.5-1.2,3.1-3.2c0.8-2.8-0.2-5.7-2.6-7.4c-2.3-2-4.7-3.8-7.2-5.6c-2.2-1.5-4.3-3.3-6.1-5.4
						c0.1-1.6-0.2-3.2-1-4.7c-0.6-1.3-1.7-2.2-3.1-2.6l0,0.1l0,0.1c0,0.1,0,0.1,0,0.2c-0.1,0.8-0.1,1.7-0.2,2.5l-0.1,1
						c-1,0.4-2,0.8-3,1c-1.6,0.4-3.5,0.7-5.7,1.1h0v-2.5l0,0.1v-2.7c-0.4,0.2-0.4,1-0.1,2.4c-1.3,0.3-2.3,1.2-2.8,2.4
						c-0.7,1.4-1.1,3-1,4.7c-1.8,2.1-3.8,3.9-6.1,5.4c-2.5,1.7-4.9,3.6-7.2,5.6c-2.4,1.7-3.4,4.6-2.6,7.4
						C-17,78.7-16,79.8-14.6,79.8L-14.6,79.8z M12,19.5c-0.1,0-0.2-0.1-0.3-0.2c-0.2-0.2-0.2-0.4-0.3-0.6c0-0.2,0-0.5,0-0.7l0.2-2.2
						c-0.1-0.1-0.3-0.2-0.4-0.3c-0.3-0.2-0.5-0.6-0.7-0.9c-0.2-0.3-0.2-0.7-0.2-1c0-0.4,0.1-0.7,0.3-1c-0.2,0-0.5-0.1-0.7-0.2
						c-0.5-0.2-0.8-0.6-0.9-1.1c-0.1-0.2,0-0.5,0-0.7c-0.3,0-0.6-0.1-0.9-0.2C7.8,10.2,7.5,10,7.3,9.8C7.2,9.7,7.1,9.5,7,9.3
						C7,9.1,7,9,7,8.9C6.8,9.1,6.6,9.3,6.3,9.4C6,9.6,5.7,9.7,5.3,9.7c-0.7,0-1.4-0.1-2.1-0.4c0,0.3-0.1,0.5-0.3,0.7
						c-0.2,0.2-0.4,0.3-0.7,0.4c-0.5,0.2-1.1,0.3-1.7,0.3c0.1,0.3,0.1,0.6,0,0.8c-0.1,0.4-0.3,0.7-0.6,0.9C-0.3,12.8-0.6,13-1,13.1
						c0.1,0.2,0.3,0.4,0.3,0.6s0.1,0.5,0.1,0.7c0,0.5-0.2,0.9-0.5,1.3c-0.1,0.2-0.3,0.4-0.5,0.5l0,0c0,0.3,0,0.8,0.1,1.5
						c0,0.5,0.1,0.9,0.1,1.3c0,0.1,0,0.2,0,0.3c0,0.1,0,0.2-0.1,0.4c0,0.1-0.1,0.1-0.1,0.2l0,0v0L-1.6,20c-0.1,0.1-0.2,0.2-0.3,0.2
						l-0.1,0c0,0-0.1,0-0.1,0v2.6l0,0v4.2c0,1.5,0.5,3,1.4,4.3c0.2,0.2,0.4,0.5,0.6,0.7c2.8,2.7,7.2,2.7,9.9,0
						c0.1-0.1,0.3-0.3,0.4-0.4c1.1-1.2,1.7-2.9,1.6-4.5v-4.5c0,0,0,0,0.1,0L12,19.5L12,19.5L12,19.5z M1.6,19.5
						c0.1-0.1,0.3-0.2,0.5-0.2c0.3,0,0.5,0.2,0.6,0.4c0.1,0.3,0,0.5-0.2,0.8c-0.1,0.1-0.3,0.2-0.5,0.2s-0.4-0.1-0.5-0.2
						C1.4,20.2,1.4,19.8,1.6,19.5L1.6,19.5z M8.6,20c0,0.2-0.1,0.4-0.2,0.5c-0.1,0.1-0.3,0.2-0.5,0.2s-0.3-0.1-0.5-0.2
						c-0.1-0.1-0.2-0.3-0.2-0.5c0-0.2,0.1-0.4,0.2-0.5c0.1-0.1,0.3-0.2,0.5-0.2C8.4,19.3,8.6,19.6,8.6,20L8.6,20z M7.1,16.1
						c0.4-0.3,1-0.4,1.5-0.2s1,0.5,1.2,1c-0.2-0.5-0.7-0.8-1.2-1S7.5,15.8,7.1,16.1L7.1,16.1z M3.2,16.1c-0.5-0.3-1-0.4-1.5-0.2
						s-1,0.5-1.2,1c0.3-0.5,0.7-0.8,1.2-1C2.2,15.7,2.7,15.8,3.2,16.1L3.2,16.1z M4.2,29c1,0.3,2.2,0,2.8-0.8
						C6.4,29,5.3,29.3,4.2,29L4.2,29z M6.3,24.8c-0.7,0.3-1.6,0.4-2.3,0.1l1.1-5.3L6.3,24.8z"/>
					<path id="Path_5_" class="st26" d="M4,24.9c0.7,0.3,1.6,0.2,2.3-0.1L5,19.6L4,24.9z"/>
					<path id="Shape_19_" class="st27" d="M8.4,20.5c0.1-0.1,0.2-0.3,0.2-0.5c0-0.4-0.3-0.7-0.7-0.7c-0.2,0-0.3,0.1-0.5,0.2
						c-0.1,0.1-0.2,0.3-0.2,0.5s0.1,0.4,0.2,0.5c0.1,0.1,0.3,0.2,0.5,0.2C8.1,20.7,8.3,20.6,8.4,20.5L8.4,20.5z M2.1,19.3
						c-0.3,0-0.5,0.2-0.6,0.4c-0.1,0.2,0,0.5,0.1,0.7c0.1,0.1,0.3,0.2,0.5,0.2s0.3-0.1,0.5-0.2c0.2-0.2,0.2-0.5,0.2-0.7
						S2.4,19.3,2.1,19.3L2.1,19.3z"/>
					<path id="Path_6_" class="st28" d="M15,8.9c-0.2-0.3-0.5-0.6-0.9-0.7c0.2-0.2,0.3-0.5,0.3-0.7c0-0.3,0-0.5-0.1-0.8
						c-0.2-0.5-0.4-0.9-0.9-1.3c-0.4-0.4-0.9-0.6-1.4-0.7c0.1-0.2,0.1-0.4,0.1-0.6c0-0.2-0.1-0.4-0.2-0.5c-0.2-0.3-0.5-0.6-0.9-0.7
						C10.6,2.6,10,2.4,9.4,2.4c-0.3,0-0.6,0-0.9,0.2C8.2,2.7,8,2.8,7.8,3c0-0.4-0.2-0.8-0.5-1.1C6.9,1.5,6.4,1.1,5.9,1
						C4.8,0.6,3.6,0.7,2.8,1.4C2.3,1.8,2,2.2,1.7,2.7C1.6,2.6,1.3,2.4,1.1,2.4c-0.3,0-0.5,0-0.8,0C0.1,2.5-0.2,2.6-0.4,2.8
						C-0.6,3-0.8,3.2-1,3.4c-0.2,0.2-0.3,0.5-0.4,0.8C-1.4,4.4-1.5,4.7-1.5,5c0,0.1,0,0.2,0,0.3c-0.4,0-0.9,0.1-1.2,0.3
						c-0.4,0.2-0.8,0.5-1.1,0.9c-0.3,0.5-0.5,0.9-0.6,1.5c-0.1,0.3-0.1,0.6,0,0.8c0,0.1,0,0.2,0,0.2c0,0.1,0,0.1,0,0.2
						c0,0.1-0.1,0.1-0.2,0.1C-5,9.6-5.3,10-5.4,10.5c-0.1,0.5-0.1,1,0,1.5c0,0.2,0.1,0.4,0.2,0.6c0,0.1,0.1,0.2,0.1,0.3
						c0,0.1-0.1,0.2-0.1,0.4c-0.2,0.3-0.2,0.7-0.2,1.1c0,0.4,0.1,0.8,0.2,1.1s0.4,0.7,0.6,1c0.2,0.3,0.5,0.6,0.8,0.8
						c0.2,0.1,0.3,0.3,0.4,0.5c0,0,0,0.1,0.1,0.1c0,0,0,0.1,0.1,0.1c0,0.5,0.1,0.9,0.3,1.4c0.1,0.2,0.2,0.5,0.4,0.7l0,0
						c0,0,0,0,0.1,0.1c0.1,0.1,0.2,0.1,0.4,0.1h0.1c0,0,0.1,0,0.1,0l0.1,0c0.1,0,0.2-0.1,0.3-0.2l0.1-0.1v0l0,0c0,0,0.1-0.1,0.1-0.2
						c0-0.1,0.1-0.2,0.1-0.4c0-0.1,0-0.2,0-0.3c0-0.4,0-0.8-0.1-1.3c-0.1-0.7-0.1-1.2-0.1-1.5l0,0c0.2-0.1,0.3-0.3,0.5-0.5
						c0.3-0.4,0.4-0.8,0.5-1.3c0-0.2,0-0.5-0.1-0.7S-0.8,13.2-1,13c0.4-0.1,0.7-0.3,0.9-0.6c0.3-0.3,0.5-0.6,0.6-0.9
						c0.1-0.3,0.1-0.6,0-0.8c0.6,0,1.2-0.1,1.7-0.3c0.2-0.1,0.5-0.2,0.7-0.4c0.2-0.2,0.3-0.4,0.3-0.7c0.7,0.3,1.4,0.4,2.1,0.4
						c0.4,0,0.7-0.1,1-0.3C6.6,9.3,6.8,9.1,7,8.9C7,9,7,9.1,7,9.3c0.1,0.2,0.2,0.4,0.3,0.6c0.2,0.2,0.4,0.4,0.7,0.5
						c0.3,0.1,0.6,0.2,0.9,0.2c-0.1,0.2-0.1,0.5,0,0.7c0.1,0.5,0.4,0.9,0.9,1.1c0.2,0.1,0.5,0.2,0.7,0.2c-0.2,0.3-0.3,0.6-0.3,1
						c0,0.4,0.1,0.7,0.2,1c0.2,0.4,0.4,0.7,0.7,0.9c0.1,0.1,0.3,0.2,0.4,0.3L11.5,18c0,0.2,0,0.5,0,0.7c0,0.2,0.1,0.5,0.3,0.6
						c0.1,0.1,0.2,0.1,0.3,0.2l0,0c0.1,0,0.2,0,0.3,0c0.1,0,0.3-0.1,0.4-0.2c0.2-0.2,0.3-0.4,0.4-0.6c0-0.2,0.1-0.4,0.1-0.6l0-0.5
						l0-0.3c0-0.1,0-0.2,0-0.3c0-0.2,0.1-0.4,0.1-0.5c0.5-0.2,0.9-0.5,1.3-0.8c0.4-0.4,0.7-0.9,0.8-1.5c0.2-0.6,0.2-1.2,0.1-1.8
						c0-0.4-0.3-0.8-0.6-1c0.1-0.1,0.1-0.2,0.2-0.3c0.1-0.2,0.2-0.3,0.2-0.3c0.1-0.3,0.2-0.6,0.1-1C15.3,9.5,15.2,9.2,15,8.9L15,8.9
						z"/>
					<path id="Shape_20_" class="st29" d="M99.2,441.7l-0.4-0.4l6.2,8.9c0.3,0.5,0.6,0.9,0.9,1.3l0.2,0.3c0.1-0.1,0.2-0.2,0.3-0.4
						l0.6-0.6c-0.1-0.1-0.2-0.2-0.1-0.1c0,0,0.1,0,0.1,0.1l0,0l0.3-0.4c0.1-0.1,0.2-0.3,0.2-0.4c0,0-0.6-0.6-1.8-1.8
						c-1.3-1.3-3.5-3.4-6.4-6.1C99.4,442,99.3,441.8,99.2,441.7L99.2,441.7z M98.6,441.1l1,1c1.1,1,2,1.9,2.8,2.7
						c-0.5-0.5-1.8-1.8-4-3.9c-0.2-0.2-0.3-0.3-0.5-0.5L98.6,441.1z"/>
					<path id="Path_7_" class="st30" d="M91.9,442.2c-0.1,0.1-0.3,0.1-0.4,0.2c-0.1,0.1-0.2,0.2-0.3,0.4c-0.4,0.5-0.6,1.1-0.7,1.7
						c-0.2,1.6-0.2,3.3,0.2,4.9c0.2,0.6,0.3,1.3,0.6,2l0.1,0.4c0.2,0.5,0.5,1.3,0.8,2.3l1.3,3.3c0,0.1,0.1,0.3,0.2,0.4
						c0.1,0.1,0.2,0.1,0.4,0c0.1,0,0.2-0.1,0.4-0.1c0.1,0,0.2-0.1,0.4-0.2c0.5-0.2,1.3-0.6,2.4-1c0.6-0.2,1.1-0.4,1.5-0.6
						c0.4-0.2,0.8-0.4,1.2-0.7c0.2-0.1,0.3-0.2,0.3-0.4c0-0.2,0-0.4-0.1-0.5c-1.5-3.9-3.5-7.5-5.9-10.9c-0.2-0.3-0.4-0.6-0.7-0.8
						c-0.2-0.2-0.6-0.4-0.9-0.5C92.5,442,92.2,442.1,91.9,442.2L91.9,442.2z"/>
					<path id="Shape_21_" class="st31" d="M99.7,433.4C99.7,433.4,99.7,433.3,99.7,433.4l-0.4,0c-0.2,0-0.3,0-0.5,0
						c-0.3,0-0.5-0.1-0.8-0.1c-0.7-0.2-1.3-0.5-1.8-1c-0.1-0.1-0.2-0.1-0.3-0.1c-0.1,0-0.1,0.1-0.1,0.2c0,0.1,0.1,0.1,0.1,0.2
						c0.1,0.1,0.2,0.2,0.3,0.3c0.8,0.6,1.8,0.9,2.8,0.9c0.2,0,0.5,0,0.6-0.2C99.8,433.5,99.8,433.4,99.7,433.4L99.7,433.4z
						 M96.2,425.5c-0.1,0.1-0.1,0.2-0.1,0.3c0,0.1,0,0.3,0,0.4c0,0.1,0,0.2,0.1,0.4l0.1,0.2c0.1,0.2,0.3,0.3,0.5,0.3
						c0.1,0,0.2-0.1,0.3-0.2c0-0.1,0.1-0.2,0-0.3c0-0.2-0.1-0.5-0.2-0.7c0-0.2-0.1-0.3-0.3-0.4c-0.1,0-0.1-0.1-0.2-0.1
						C96.3,425.4,96.3,425.4,96.2,425.5L96.2,425.5z M96.2,422.1c-0.1,0-0.2,0.1-0.3,0.1c-0.2,0.1-0.3,0.1-0.4,0.3
						c-0.2,0.2-0.3,0.4-0.4,0.6c-0.2,0.3-0.2,0.6-0.2,0.9c0,0.1,0,0.2,0.1,0.2c0,0,0,0,0,0c0,0,0.1,0,0.1,0c0.1,0,0.1,0,0.1-0.1
						c0,0,0-0.1,0-0.1c0.1-0.2,0.1-0.4,0.2-0.6c0.1-0.1,0.1-0.2,0.2-0.4c0,0,0.1-0.1,0.2-0.2l0.2-0.1c0.1,0,0.2,0,0.3,0
						c0.2,0,0.3,0,0.4,0.1l0.2,0.1l0.2,0c0.1,0,0.1,0,0.2-0.1c0-0.1,0-0.1,0-0.2c0,0-0.1,0-0.1-0.1c-0.1-0.1-0.2-0.1-0.2-0.2
						c-0.2-0.1-0.3-0.1-0.5-0.1C96.4,422.1,96.3,422.1,96.2,422.1L96.2,422.1z M86.3,419.1c-0.1,0.4-0.2,0.8-0.3,1.1
						c-0.2,1.1-0.2,2.2,0,3.4c0.1,0.5,0.2,0.9,0.3,1.4c0.1,0.7,0.3,1.4,0.6,2c0,0.1,0.1,0.2,0.2,0.3c0,0,0,0,0,0c0.1,0,0.1,0,0.2,0
						h0.3c0.7,0,1.4,0.3,1.9,0.9c0.3,0.3,0.5,0.5,0.7,0.8c0.1,0.2,0.3,0.5,0.6,0.9c0.1,0.1,0.2,0.2,0.2,0.3l0,0
						c0.1,0.1,0.3,0.2,0.5,0.2c0.2,0,0.4,0,0.6-0.1l0,0c0.2,0,0.3-0.1,0.4-0.3c0.1-0.1,0.1-0.3,0-0.5c-0.1-0.2-0.1-0.5-0.2-0.7
						l-0.2-0.5v0c0-0.1-0.1-0.3-0.1-0.4c-0.2-0.4-0.2-0.9,0-1.3c0.1-0.2,0.2-0.3,0.2-0.5c0.2-0.2,0.3-0.3,0.5-0.5
						c0.4-0.5,0.7-1.1,0.9-1.8c0-0.1,0-0.1,0-0.2c0.2-0.6,0.3-1.2,0.3-1.9c-0.1-0.8-0.3-1.5-0.7-2.2c0-0.2,0-0.4,0.1-0.5
						c0.1-0.2,0.2-0.4,0.4-0.5c0.4-0.2,0.9-0.2,1.3-0.1c0.6,0.1,1,0.1,1.3,0.2c0.2,0,0.4,0.1,0.7,0.1c0.2,0,0.5,0,0.8,0.1
						c0.7,0,1.4,0,2-0.2c0.8-0.3,1.4-0.9,1.7-1.6c0.3-0.7,0.5-1.5,0.5-2.3c0-0.5-0.1-1.1-0.3-1.5c0-0.1-0.1-0.1-0.2-0.2
						c-0.2,0-0.3,0.1-0.4,0.4c-0.2,0.6-0.6,1.2-1.1,1.7c-0.5,0.5-1.1,0.8-1.8,0.9c0.4-0.2,0.8-0.6,1.1-1c0.3-0.4,0.5-0.9,0.6-1.4
						c0.1-0.5,0.1-1,0-1.5c-0.1-0.5-0.3-1-0.5-1.4c-0.1-0.1-0.2-0.2-0.3-0.2c-0.1,0-0.3,0-0.3,0.2c-0.1,0.1-0.1,0.2-0.1,0.4
						c-0.1,0.8-0.4,1.5-0.8,2.2c-0.4,0.7-1.1,1.2-1.8,1.4c0.4-0.4,0.6-1,0.5-1.5c-0.1-0.5-0.2-1.1-0.5-1.6c-0.2-0.4-0.4-0.9-0.7-1.3
						c-0.2-0.3-0.4-0.4-0.5-0.3c-0.1,0.1-0.2,0.2-0.2,0.5c0,0.4,0,0.9-0.1,1.3c-0.1,0.4-0.3,0.7-0.6,1c-0.5,0.6-1.1,1.1-1.8,1.4
						c-0.3,0.1-0.6,0.3-1,0.4l-1,0.3c-1.1,0.3-2,0.9-2.8,1.6c-0.7,0.6-1.2,1.3-1.5,2.2C86.5,418.9,86.4,419,86.3,419.1L86.3,419.1z
						 M178.9,505.1c0-0.1-0.1-0.2-0.2-0.3c-0.6-0.7-1.2-1.3-1.9-1.8c-1.4-0.9-2.9-1.6-4.6-2.1c-0.6-0.2-1.2-0.3-1.8-0.4
						c-0.2,0-0.4-0.1-0.6-0.1c0,0-0.1,0-0.1,0c0,0-0.1,0-0.1,0c-0.1,0.1-0.1,0.1-0.2,0.1l-0.3,0.1l-0.2,0.1
						c-0.2,0.1-0.3,0.2-0.5,0.2l-0.8,0.3c0,0.1-0.1,0.1-0.1,0.2c-0.1,0.3-0.2,0.6-0.2,1c1.1,0.2,2.4,0.6,4.1,1l2.9,0.7
						c1.9,0.5,3.4,0.9,4.3,1.2l0,0C178.9,505.3,178.9,505.2,178.9,505.1L178.9,505.1z M182.2,498.6c0,0,0,0.1,0,0.1
						c0,0.1-0.1,0.1-0.2,0.1c-0.1,0.1-0.2,0.2-0.3,0.3c-0.2,0.1-0.3,0.2-0.4,0.2l-1.4,0.6l0,0c-0.1,0.1-0.2,0.1-0.3,0.2
						c-0.1,0-0.1,0-0.2,0c0,0,0,0.1,0,0.1c1.7,0.5,4.1,1.1,7.1,1.7c1.7,0.4,3.2,0.7,4.5,1c0,0,0,0,0,0c0.3,0,0.5-0.1,0.5-0.3
						c0-0.1,0-0.3-0.2-0.5c-0.1,0-0.1-0.1-0.2-0.1c-0.1-0.1-0.3-0.1-0.4-0.2c-0.4-0.2-0.7-0.3-1-0.5c-1.1-0.6-2.3-1.1-3.5-1.6
						c-0.5-0.1-1-0.3-1.5-0.4c-0.8-0.2-1.4-0.4-1.8-0.5C182.7,498.7,182.5,498.7,182.2,498.6L182.2,498.6z M169.4,500.3
						c-0.3,0-0.6,0-0.9,0.1c-0.2,0.1-0.3,0.2-0.4,0.3l0.4-0.1C168.9,500.5,169.2,500.4,169.4,500.3L169.4,500.3z"/>
					<path id="Path_8_" class="st7" d="M123.7,442.5c0.2-0.1,0.4-0.2,0.7-0.3c0.2-0.1,0.5,0,0.7,0.1c0.2,0.1,0.4,0.3,0.5,0.5
						c0.2,0.4,0.3,0.8,0.4,1.2c0.1,0.8,0.1,1.6,0,2.4c-0.1,0.2-0.1,0.5-0.2,0.7c-0.3,0.6-0.6,1.2-1,1.7l1.9-0.4v0l3.1-0.6l1-4.8
						l2.5-9.7l-7.2-4.2l-3.1,14.2C123,443.1,123.3,442.8,123.7,442.5L123.7,442.5z"/>
					<path id="Path_9_" class="st32" d="M103.5,429.3c-0.3-0.1-0.5-0.2-0.7-0.4l-1.1-0.8c-0.4-0.3-0.7-0.6-1-1
						c-0.2-0.2-0.3-0.4-0.4-0.6l0-0.1c0-0.1-0.1-0.1-0.1-0.2c-0.1-0.2-0.2-0.4-0.2-0.5c0-0.1,0-0.2-0.1-0.2c0,0,0,0,0-0.1
						c-0.1,0-0.1-0.1-0.2-0.1c0.2,0.8,0.4,1.7,0.5,2.6c0.1,0.4,0.1,1.1,0.2,1.9l0,0c0,0,0.1,0,0.1,0c0.4,0.3,0.9,0.4,1.4,0.4
						c0.5,0,0.9-0.1,1.4-0.3c0.1,0,0.2-0.1,0.3-0.1c0.1,0,0.1-0.1,0.2-0.2C103.6,429.5,103.6,429.4,103.5,429.3L103.5,429.3z"/>
					<path id="Shape_22_" class="st33" d="M149.9,457.7c-0.6,0.1-1.1,0.2-1.7,0.4c-8.5,2.4-16.6,6-24.1,10.8c-0.1,0-0.1,0.1-0.2,0.1
						c-0.2-0.1-0.4-0.2-0.6-0.3c-1.1,1.7-2.3,3.3-3.6,4.9l0,0.1c-0.8,1.3-1.8,2.5-2.9,3.7l-0.4,0.4c-1.8,1.8-3.2,3.3-4.2,4.3
						c0,0,0,0,0,0c0,0,0,0,0,0.1c0.2,0.2,0.3,0.3,0.5,0.4c0.1,0,0.2,0.1,0.3,0.1c1.3,0.5,2.7,0.8,4.1,0.9c1.4,0.1,2.8,0,4.1-0.3l0,0
						c0.5-0.1,1.1-0.3,1.7-0.5c0.2-0.1,0.5-0.2,0.8-0.3c0.6-0.2,1.4-0.5,2.4-1c6.9-3.1,13.6-6.5,20.1-10.4c0.4-0.4,1-0.5,1.6-0.4
						c0.4,0.2,0.7,0.5,0.9,0.9l0.6,0.9l6.6,10.1c3,5.5,5.5,9.9,7.4,13.3c1.1,2.3,2.1,4.1,2.7,5.3c0.2,0.5,0.6,0.9,0.9,1.3l0.1,0.1
						l0.4,0.1c0-0.3,0.1-0.6,0.2-1c0-0.1,0.1-0.2,0.1-0.2l0.8-0.3c0.2-0.1,0.4-0.1,0.5-0.2l0.2-0.1l0.3-0.1c0.1,0,0.1-0.1,0.2-0.1
						c0,0,0.1,0,0.1,0c0,0,0-0.1,0-0.1c-0.1-0.7-0.2-1.4-0.4-2c-0.1-0.5-0.3-1.2-0.6-2c-0.8-2.4-1.8-5-2.9-7.9
						c-0.6-1.7-1.6-4.3-3-7.8c-1.8-4.7-3.3-8.2-4.3-10.6c0,0,0-0.1,0-0.1c-1.5-3.3-3.2-6.5-5.1-9.6c-0.1-0.2-0.2-0.4-0.4-0.6
						c-0.2-0.4-0.4-0.7-0.7-1c-0.3-0.3-0.6-0.6-0.9-0.7C151,457.7,150.4,457.6,149.9,457.7L149.9,457.7z M168.5,500.4
						c0.3-0.1,0.6-0.2,0.9-0.1c-0.2,0.1-0.6,0.2-1,0.3l-0.4,0.1C168.2,500.6,168.4,500.5,168.5,500.4L168.5,500.4z"/>
				</g>
				<g id="Layer1_0_1_STROKES" transform="translate(109.072886, 352.472441)">
					<path id="Shape_23_" class="st34" d="M-133.9,4c-0.3,0-0.6-0.2-0.7-0.5c-0.1-0.3-0.2-0.6-0.2-0.9c0-0.3,0.1-0.6,0.2-0.9l0,0
						c0.1-0.3,0.4-0.4,0.7-0.5c0.3,0,0.6,0.2,0.7,0.5c0.1,0.3,0.2,0.6,0.2,0.9c0,0.3-0.1,0.6-0.2,0.9C-133.3,3.8-133.6,4-133.9,4z
						 M-134,2.1c-0.1,0.2-0.1,0.4-0.1,0.6c0,0.2,0,0.4,0.1,0.6c0,0.1,0.1,0.1,0.1,0.1c0,0,0.1-0.1,0.1-0.1c0.1-0.2,0.1-0.4,0.1-0.6
						c0-0.2,0-0.4-0.1-0.6c-0.1-0.1-0.1-0.1-0.1-0.1C-133.9,2-134,2-134,2.1z"/>
				</g>
				<g id="Layer1_0_2_STROKES" transform="translate(132.279883, 343.196850)">
					<path id="Shape_24_" class="st10" d="M-126.6,4.3c-0.1,0-0.2-0.1-0.3-0.1c-0.4-0.7-1.3-0.9-2-0.7c-0.1,0-0.2,0-0.3-0.1
						s-0.1-0.2-0.1-0.3s0.1-0.2,0.2-0.2c1-0.3,2.1,0.1,2.7,1c0.1,0.1,0.1,0.2,0,0.3C-126.3,4.2-126.4,4.3-126.6,4.3L-126.6,4.3z
						 M-135.1,3.1c-0.1,0-0.3-0.1-0.3-0.2s0-0.3,0.1-0.4c0.4-0.4,0.8-0.6,1.3-0.6l0,0c0.5,0,0.9,0.1,1.3,0.3
						c0.2,0.1,0.2,0.3,0.1,0.5c-0.1,0.2-0.3,0.2-0.4,0.2c-0.3-0.2-0.7-0.3-1-0.3c-0.3,0-0.6,0.2-0.9,0.4
						C-134.9,3.1-135,3.1-135.1,3.1L-135.1,3.1z"/>
				</g>
				<g id="Layer1_0_3_STROKES" transform="translate(243.673469, 25.507874)">
					<path id="Path_10_" class="st35" d="M-134.1,3.9c-0.3,0-0.6,0-0.9-0.1c-0.1,0-0.2-0.1-0.2-0.2c0-0.1,0-0.2,0.1-0.3
						c0.1-0.1,0.2-0.1,0.3-0.1c0.9,0.3,1.9,0,2.6-0.7c0.1-0.1,0.2-0.1,0.3-0.1s0.2,0.1,0.2,0.2c0,0.1,0,0.2-0.1,0.3
						C-132.5,3.5-133.3,3.9-134.1,3.9L-134.1,3.9z"/>
				</g>
				<g id="Layer1_0_4_STROKES" transform="translate(239.032070, 13.913386)">
					<path id="Shape_25_" class="st35" d="M-124.8,3.2c-0.1,0-0.2,0-0.2-0.1c-0.5-0.9-1.3-1.1-2.4-0.6c-0.1,0.1-0.3,0-0.3-0.1
						c-0.1-0.1,0-0.3,0.1-0.4c0.5-0.3,1.1-0.4,1.7-0.3c0.6,0.1,1.1,0.5,1.4,1.1c0.1,0.1,0.1,0.2,0,0.3
						C-124.6,3.1-124.7,3.2-124.8,3.2L-124.8,3.2z M-134.2,3.2c-0.1,0-0.2,0-0.2-0.1s-0.1-0.2,0-0.3c0.3-0.5,0.8-0.9,1.4-1.1
						s1.2-0.1,1.7,0.3c0.1,0.1,0.2,0.2,0.1,0.4s-0.2,0.2-0.4,0.1c-1.1-0.5-1.9-0.3-2.4,0.6C-134,3.1-134.1,3.2-134.2,3.2L-134.2,3.2
						z"/>
				</g>
			</g>
			<path id="Shape_26_" class="st36" d="M159.6,165.9l-0.1,9c-1.7,0.6-3.3,1.2-4.9,2.1l-6.3-6.3c-5.6,3.5-10.4,8.3-14,13.9l6.3,6.3
				c-1.1,1.9-1.9,4-2.5,6.1l-8.9,0.1c-1.4,6.4-1.3,12.9,0.1,19.3l8.9,0c0.5,1.6,1.1,3.3,1.9,4.8l-6.4,6.3
				c3.6,6.1,8.7,11.1,14.7,14.9l6.2-6.4c1.4,0.8,3,1.4,4.5,1.9l-0.1,9c3.6,0.9,7.2,1.4,10.9,1.3c3.3,0,6.5-0.3,9.7-1.1l0-8.9
				c2.1-0.6,4-1.4,5.9-2.5l6.3,6.3c5.6-3.6,10.4-8.4,13.9-14.1l-6.4-6.3c0.9-1.8,1.7-3.7,2.3-5.7l8.9-0.1c0.7-3.1,1-6.3,1-9.5
				c0-3.4-0.4-6.8-1.1-10.1l-8.9,0.1c-0.6-2.1-1.5-4-2.5-5.9l6.2-6.4c-1.7-2.6-3.6-5-5.9-7.2c-2.5-2.5-5.2-4.6-8.2-6.5l-6.4,6.3
				c-1.6-0.8-3.3-1.5-5.1-2.1l0-8.9C173.2,164.2,166.2,164.3,159.6,165.9L159.6,165.9z M153.9,197.8c0.9-1.5,2-2.9,3.2-4.1
				c1-1,2.1-1.9,3.2-2.7c1.8-1.2,3.8-2.1,6-2.6c2.9-0.7,6-0.7,9-0.1c2.1,0.4,4,1.2,5.8,2.3c1.4,0.9,2.7,1.9,3.9,3.1
				c1.2,1.2,2.2,2.4,3.1,3.9c0.9,1.5,1.6,3.1,2,4.7c0.5,1.7,0.7,3.5,0.7,5.4c0,1.6-0.2,3.1-0.5,4.6c-0.4,1.8-1.1,3.6-2.1,5.2
				c-0.9,1.5-2,2.9-3.2,4.1c-1.2,1.2-2.5,2.2-4,3.1c-1.5,0.9-3.1,1.6-4.8,2c-3.3,0.8-6.8,0.9-10.1,0.1c-2.1-0.5-4.2-1.4-6-2.7
				c-1.1-0.8-2.1-1.6-3-2.5c-1.2-1.2-2.2-2.5-3.1-4c-1.1-1.8-1.9-3.9-2.3-6c-0.2-1.3-0.4-2.7-0.4-4c0-1.7,0.2-3.4,0.6-5.1
				C152.4,200.8,153.1,199.2,153.9,197.8L153.9,197.8z"/>
			<path id="Shape-Copy-2" class="st36" d="M-34.3,333.8c-1.1,0.4-2.2,0.8-3.3,1.4l-4.2-4.2c-3.8,2.4-6.9,5.5-9.3,9.2l4.2,4.2
				c-0.7,1.3-1.3,2.7-1.7,4.1l-5.9,0c-0.9,4.2-0.9,8.6,0.1,12.9l5.9,0c0.3,1.1,0.8,2.2,1.3,3.2l-4.2,4.2c2.4,4,5.8,7.4,9.8,9.9
				l4.2-4.2c1,0.5,2,1,3,1.3l0,6c2.4,0.6,4.8,0.9,7.2,0.9c2.2,0,4.4-0.2,6.5-0.7l0-6c1.4-0.4,2.7-1,3.9-1.6l4.2,4.2
				c3.8-2.4,6.9-5.6,9.3-9.4l-4.2-4.2c0.6-1.2,1.1-2.5,1.5-3.8l6,0c0.4-2.1,0.7-4.2,0.7-6.3c0-2.3-0.2-4.5-0.8-6.8l-6,0
				c-0.4-1.4-1-2.7-1.7-3.9l4.2-4.2c-1.1-1.7-2.4-3.3-3.9-4.8c-1.6-1.6-3.5-3.1-5.5-4.3l-4.3,4.2c-1.1-0.5-2.2-1-3.4-1.4l0-5.9
				c-4.5-1-9.1-1-13.6,0.1L-34.3,333.8z M-37.2,345.7c0.7-0.6,1.5-1.2,2.3-1.7c1.3-0.8,2.7-1.4,4.2-1.7c2.1-0.4,4.2-0.5,6.3-0.1
				c1.5,0.3,2.9,0.8,4.1,1.5c1,0.6,1.9,1.2,2.7,2c0.8,0.8,1.6,1.6,2.2,2.5c0.6,1,1.1,2,1.4,3.1c0.3,1.1,0.5,2.3,0.5,3.5
				c0,1-0.1,2-0.4,3c-0.3,1.2-0.8,2.3-1.4,3.4c-0.6,1-1.4,1.9-2.3,2.7c-0.8,0.8-1.8,1.5-2.8,2c-1.1,0.6-2.2,1-3.4,1.3
				c-2.3,0.5-4.8,0.5-7.1,0c-1.5-0.3-2.9-0.9-4.2-1.7c-0.8-0.5-1.5-1-2.2-1.6c-0.8-0.8-1.6-1.6-2.2-2.6c-0.8-1.2-1.3-2.5-1.6-3.9
				c-0.2-0.9-0.3-1.7-0.3-2.6c0-1.1,0.1-2.2,0.4-3.3c0.3-1.1,0.8-2.1,1.3-3C-38.8,347.4-38,346.5-37.2,345.7z"/>
			<path id="Shape-Copy" class="st36" d="M375.9,307l0,6.5c-1.2,0.4-2.4,0.9-3.5,1.5l-4.6-4.5c-4.1,2.6-7.5,6-10.1,10l4.5,4.5
				c-0.8,1.4-1.4,2.9-1.8,4.4l-6.4,0.1c-1,4.6-1,9.4,0.1,13.9l6.4,0c0.4,1.2,0.8,2.4,1.4,3.5l-4.6,4.5c2.6,4.4,6.3,8,10.6,10.8
				l4.5-4.6c1,0.6,2.1,1,3.3,1.4l0,6.5c2.6,0.6,5.2,1,7.9,1c2.4,0,4.7-0.2,7-0.8l0-6.5c1.5-0.4,2.9-1,4.3-1.8l4.6,4.5
				c4.1-2.6,7.5-6.1,10.1-10.2l-4.6-4.6c0.7-1.3,1.2-2.7,1.6-4.1l6.5,0c0.5-2.2,0.7-4.5,0.7-6.9c0-2.5-0.3-4.9-0.8-7.3l-6.5,0.1
				c-0.5-1.5-1.1-2.9-1.8-4.3l4.5-4.6c-1.2-1.9-2.6-3.6-4.2-5.2c-1.8-1.8-3.8-3.4-5.9-4.7l-4.6,4.6c-1.2-0.6-2.4-1.1-3.6-1.5l0-6.4
				C385.8,305.8,380.8,305.8,375.9,307L375.9,307z M371.3,329.3c0.6-1.1,1.4-2.1,2.3-2.9c0.7-0.7,1.5-1.3,2.3-1.9
				c1.3-0.9,2.7-1.5,4.2-1.8c2.1-0.5,4.2-0.5,6.3-0.1c1.5,0.3,2.9,0.8,4.1,1.6c1,0.6,1.9,1.3,2.7,2.2c0.8,0.8,1.5,1.7,2.2,2.7
				c0.6,1,1.1,2.2,1.4,3.3c0.3,1.2,0.5,2.5,0.5,3.8c0,1.1-0.1,2.2-0.4,3.3c-0.3,1.3-0.8,2.5-1.4,3.6c-0.6,1.1-1.4,2-2.3,2.9
				c-0.8,0.9-1.8,1.6-2.8,2.2c-1.1,0.6-2.2,1.1-3.4,1.4c-2.3,0.6-4.8,0.6-7.1,0c-1.5-0.4-2.9-1-4.2-1.9c-0.8-0.5-1.5-1.1-2.1-1.8
				c-0.9-0.8-1.6-1.8-2.2-2.8c-0.8-1.3-1.3-2.7-1.6-4.2c-0.2-0.9-0.3-1.9-0.3-2.8c0-1.2,0.1-2.4,0.4-3.6
				C370.3,331.5,370.7,330.4,371.3,329.3L371.3,329.3z"/>
			<g id="Page-1" transform="translate(360.065486, 290.308147)">
				<g id="Group-3" transform="translate(0.000000, 0.412675)">
					<g id="Clip-2">
					</g>
					<path id="Fill-1_2_" class="st37" d="M-34.3,56.4L-34.3,56.4c0-0.1-4.6-12.7-4.7-12.8c-0.3-0.7-0.6-1.2-1-1.7
						c1.8-0.5,3.2-1.4,4-2.9c0.4-0.7,0.7-1.6,0.7-2.8c0-0.8-0.2-1.8-0.6-2.8L-39.9,23c-1.1-2.3-2.6-4.1-5.8-4.8
						c0.6-1.6,0.4-3.4-0.6-5.1l0.3,0.6l-3.7-8.5L-49.8,5c-2-3.5-4.6-3.9-6.3-4.2c-5.7-0.9-18.1-0.8-28.4,0.3
						c-4.8,0.4-10,1.1-16.3,2.3c-4.7,0.9-11,2.3-17.7,4.2c-2.3,0.8-3.9,2-4.8,3.7c-0.3,0.7-0.7,1.7-0.7,2.9c0,0.8,0.1,1.6,0.4,2.6
						l3.3,9.4c0.2,0.7,0.9,2,2.1,3.1c-2.9,1-12,4.2-12,4.2c-3.8,1.5-6.1,4.7-6.1,8.1c0,0.5,0.1,1,0.2,1.5c0,0.1,3.5,14.1,3.5,14.1
						c0.6,2.1,2,3.8,3.9,4.7c2.1,1.1,4.7,1.1,7.2,0.2c5.6-2.1,11.7-4.2,17.9-6c-0.4,1.6-0.3,3.3,0.3,5c0,0,6.1,17.1,6.1,17.2
						c1.6,4.6,6.4,7.1,10.9,5.5l29-10.8l14.5-5.6l4.5-1.8C-34.7,64.1-33.1,60.6-34.3,56.4"/>
				</g>
				<path id="Fill-4" class="st38" d="M-38.1,57.9c0.5,1.9,0.4,3.6-1.9,4.5c-2.7,1.1-4.7,1.8-8,3.1c-1.7,0.6-3.3,1.3-5.2,2
					c-1.8,0.7-3.7,1.4-5.7,2.2c-8.1,3.1-17.4,6.6-28.9,10.8c-2.5,0.8-5-0.4-5.9-3.1c-1.9-6-4-11.9-6.1-17.3
					c-0.9-2.5,0.4-4.8,2.8-5.5c5.9-1.7,11.1-3,16.2-4.2c5.1-1.2,9.5-2.3,13.8-3.2c8.5-1.9,14-3.1,19.8-4.1c2.8-0.5,3.8,0.7,4.6,2.5
					C-40.9,49.6-39.5,53.7-38.1,57.9"/>
				<path id="Fill-6" class="st39" d="M-43.6,24.9c-0.8-1.6-1.5-2.5-4.5-2.6c-8.2-0.2-17.7,0.4-32,2.6c-7.2,1-14.9,2.5-23.4,4.6
					c-4.2,1.1-8.4,2.2-12.7,3.6c-4.5,1.4-8.6,2.9-12.8,4.5c-2.5,1-3.9,3.2-3.5,5.1c1.1,4.4,2.2,8.9,3.5,14c0.6,2.2,3.2,3.2,5.9,2.2
					c9.3-3.5,19.1-6.6,28.2-9.1c9.2-2.4,17-4.2,24.2-5.8c14.2-3.1,21.7-4.1,29.4-5.4c1.7-0.3,2.5-1.4,1.7-3.3L-43.6,24.9z"/>
				<path id="Fill-8" class="st40" d="M-53.2,7.3c-1.1-1.9-2.2-2-3.6-2.3C-62,4.2-74.1,4.4-84.2,5.4c-5.1,0.4-10.3,1.2-16,2.3
					c-5.7,1.1-11.3,2.4-17.3,4.2c-2,0.6-3.2,1.8-2.4,4.1c1.1,3.1,2,5.7,3.2,9.4c0.8,2.4,2.9,2.4,5.2,1.8c6.7-2,13-3.5,19.1-4.7
					c6.2-1.2,11.7-2,17-2.7c10.6-1.3,19.6-1.5,24.7-1.6c1.2,0,2-1.1,1.1-2.4L-53.2,7.3z"/>
			</g>
		</g>
	</g>
</g>
</svg>
