<?xml version="1.0" encoding="utf-8"?>
<!-- Generator: Adobe Illustrator 24.2.0, SVG Export Plug-In . SVG Version: 6.00 Build 0)  -->
<svg version="1.1" id="Layer_1" xmlns="http://www.w3.org/2000/svg" xmlns:xlink="http://www.w3.org/1999/xlink" x="0px" y="0px"
	 viewBox="0 0 150 109" style="enable-background:new 0 0 150 109;" xml:space="preserve">
<style type="text/css">
	.st0{fill:#FFFFFF;fill-opacity:0;}
	.st1{fill-rule:evenodd;clip-rule:evenodd;fill:#55C1BD;}
	.st2{fill-rule:evenodd;clip-rule:evenodd;fill:#41969C;}
	.st3{fill-rule:evenodd;clip-rule:evenodd;fill:#FFCC00;}
	.st4{fill-rule:evenodd;clip-rule:evenodd;fill:#E29F33;}
	.st5{fill-rule:evenodd;clip-rule:evenodd;fill:#E2A037;}
	.st6{fill-rule:evenodd;clip-rule:evenodd;fill:#F5B63F;}
	.st7{fill-rule:evenodd;clip-rule:evenodd;fill:#F9D684;}
	.st8{fill-rule:evenodd;clip-rule:evenodd;fill:#FCEABF;}
	.st9{fill-rule:evenodd;clip-rule:evenodd;fill:#F7F7F7;}
	.st10{fill-rule:evenodd;clip-rule:evenodd;fill:#D1D3DD;}
	.st11{fill-rule:evenodd;clip-rule:evenodd;fill:#C7C7C7;}
	.st12{fill-rule:evenodd;clip-rule:evenodd;fill:#D29C8B;}
	.st13{fill-rule:evenodd;clip-rule:evenodd;fill:#757B84;}
	.st14{fill-rule:evenodd;clip-rule:evenodd;fill:#3E4166;}
	.st15{fill-rule:evenodd;clip-rule:evenodd;fill:#A97460;}
	.st16{fill-rule:evenodd;clip-rule:evenodd;fill:#C8D3E2;}
	.st17{fill-rule:evenodd;clip-rule:evenodd;fill:#C1836C;}
	.st18{fill-rule:evenodd;clip-rule:evenodd;fill:#C28777;}
	.st19{fill-rule:evenodd;clip-rule:evenodd;fill:#936352;}
	.st20{fill-rule:evenodd;clip-rule:evenodd;fill:#C3866F;}
	.st21{fill-rule:evenodd;clip-rule:evenodd;fill:#2C2C2C;}
	.st22{fill-rule:evenodd;clip-rule:evenodd;fill:#E0E3ED;}
	.st23{fill-rule:evenodd;clip-rule:evenodd;fill:#362D2D;}
	.st24{fill-rule:evenodd;clip-rule:evenodd;fill:#551942;}
	.st25{fill-rule:evenodd;clip-rule:evenodd;fill:#212338;}
	.st26{fill-rule:evenodd;clip-rule:evenodd;fill:#3A3E42;}
	.st27{fill-rule:evenodd;clip-rule:evenodd;fill:#FFFFFF;}
	.st28{fill-rule:evenodd;clip-rule:evenodd;fill:#E6E6E6;}
</style>
<g>
	<path class="st0" d="M0.4,0H149v108.3H0.4V0z"/>
	<path class="st1" d="M59.9,85.5c0,0-0.1,0-0.1-0.1c0,0.2,0,0.4,0,0.6C59.8,85.9,59.9,85.7,59.9,85.5 M46.9,89.6
		c-1.8-1-3.7-1.6-5.7-2c-2-0.3-3,0.1-3.2,1.3c-0.1,0.6,0.2,1.1,1,1.5c0.9,0.4,1.8,0.7,2.8,0.9c1.5,0.3,2.7,0.5,3.5,0.6
		c1,0.2,2,0.4,3,0.8c1,0.4,1.9,0.8,2.8,1.4c0.3,0.2,0.5,0.3,0.6,0.4c0.1,0.1,0.2,0.1,0.2,0.2l-0.4-0.2c-0.3-0.2-0.7-0.3-1.2-0.5
		c-1.5-0.5-3.1-0.9-4.6-1.2c-0.9-0.2-1.7-0.2-2.6-0.2c-0.8,0-1.6,0.1-2.4,0.2c-0.6,0.1-1.2,0.4-1.6,0.7c-0.3,0.2-0.4,0.6-0.4,1
		c0,0.1,0,0.2,0.1,0.3c0,0.1,0,0.1,0.1,0.2h14c-0.1-0.2-0.2-0.3-0.3-0.5c-0.4-0.6-0.7-1.3-1-2c-0.2-0.2-0.5-0.4-0.8-0.7
		C49.5,91,48.2,90.2,46.9,89.6 M52.1,84l0.1,0.3c0.3,1.1,0.7,2.2,1.1,3.3c0.3,0.3,0.6,0.5,0.9,0.8c0.4,0.3,0.8,0.6,1.3,0.9
		c-0.4-0.5-0.8-1.1-1.3-1.9C53.4,86.1,52.7,85,52.1,84 M58.2,87c-0.1-0.2-0.2-0.4-0.3-0.6c-0.1,0.1-0.2,0.3-0.2,0.4
		c0,0.1,0.1,0.3,0.1,0.4c0.1,0.2,0.1,0.4,0.3,0.6c0.2,0.2,0.3,0.3,0.4,0.3c0.1,0,0.1-0.2,0-0.5C58.4,87.4,58.3,87.2,58.2,87
		 M54.2,80.7c-0.5-1.1-1.2-1.6-2-1.7c-1-0.1-1.1,1.5-0.2,4.7C52.5,82.5,53.3,81.5,54.2,80.7 M46,80.1c-0.3,0.4-0.3,1,0.1,1.8
		c0.5,0.9,1.1,1.8,1.8,2.7c0.5,0.7,1.3,1.7,2.5,3.1c0.2,0.2,0.4,0.5,0.5,0.7c0-0.9,0.1-1.8,0.3-2.7c0.6,0.6,1.1,1.2,1.8,1.8
		c-0.6-1.2-1.3-2.4-2-3.5C48.8,80,47.1,78.8,46,80.1"/>
	<path class="st1" d="M43.1,82.9c-0.5,0-1,0.2-1.4,0.6c-0.3,0.3-0.5,0.7-0.5,1.2c0,0.5,0.1,0.9,0.4,1.3c0.3,0.4,0.8,0.8,1.3,0.9
		c2.5,0.9,4.8,2.2,6.8,3.8c0.6,0.5,1.2,1,1.7,1.6c-0.2-0.5-0.3-1-0.4-1.6c-0.1-0.7-0.1-1.4-0.1-2c-1-1.1-2-2.2-3-3.1
		C45.9,83.7,44.3,82.9,43.1,82.9"/>
	<path class="st2" d="M52,83.6l0,0.1l0.2,0.3c0.6,1,1.3,2.1,2.2,3.4c0.5,0.7,0.9,1.3,1.3,1.9c-0.5-0.3-0.9-0.6-1.3-0.9
		c-0.3-0.2-0.6-0.5-1-0.8l-0.3-0.2c-0.6-0.6-1.2-1.1-1.8-1.8c-0.2,0.9-0.3,1.8-0.3,2.7c0,0.1,0,0.3,0,0.4c0,0.7,0,1.3,0.1,2
		c0,0.5,0.2,1.1,0.4,1.6l0.1,0.2c0.3,0.7,0.6,1.3,1,2c0.1,0.2,0.2,0.3,0.3,0.5h16.1c0.1-0.2,0.3-0.3,0.4-0.5
		c0.2-0.3,0.4-0.5,0.6-0.8c0.5-0.7,1-1.5,1.3-2.3c0.2-0.6,0.4-1,0.5-1.3c0.2-0.5,0.3-0.9,0.3-1.4c-0.1-0.5-0.3-1-0.6-1.5L70.7,86
		l-0.9,1.3c-0.3,0.5-0.7,1.1-1.1,1.5c-0.2,0.2-0.7,0.8-1.6,1.8c0.2-0.2,0.4-0.5,0.6-0.8c0.5-0.7,0.9-1.4,1.2-2.1l1.3-2.3
		c-0.2-0.6-0.5-1.1-0.8-1.6c-0.2-0.4-0.5-0.8-0.7-1.1c-0.2-0.3-0.4-0.5-0.4-0.5c-0.3,0.5-0.7,0.9-1.1,1.3c-0.1,0.1-0.3,0.3-0.5,0.4
		c0.1-0.1,0.2-0.3,0.3-0.6c0.3-0.5,0.5-1.1,0.8-1.7c-0.6-0.7-1.2-1.2-1.9-1.7c-0.4,1.2-0.9,2.4-1.5,3.5c-0.3,0.6-0.6,1.1-0.9,1.5
		c0.2-0.4,0.4-1,0.6-1.7c0.4-1.2,0.7-2.5,0.8-3.8c-1.3-0.6-2.8-0.9-4.2-0.8c-0.1,1.7-0.2,3.5-0.5,5.2c-0.1,0.7-0.2,1.3-0.3,1.8
		c0,0.2-0.1,0.4-0.1,0.5c0-0.2,0-0.4,0-0.6c0-0.4,0-0.9,0-1.5c0-1.8-0.1-3.5-0.2-5.4c-1.2,0.1-2.5,0.5-3.6,1
		c0.2,1.3,0.5,2.7,0.8,4.2c-0.1-0.2-0.3-0.5-0.5-0.9c-0.4-0.8-0.8-1.8-1.3-2.8C53.7,80.9,52.6,82.2,52,83.6"/>
	<path class="st2" d="M57.8,86.4L57.8,86.4c0.2,0.3,0.3,0.5,0.4,0.7c0.1,0.2,0.2,0.4,0.2,0.6c0.1,0.3,0.1,0.4,0,0.5
		c-0.1,0-0.2,0-0.4-0.3c-0.1-0.2-0.2-0.4-0.3-0.6c0-0.1-0.1-0.3-0.1-0.4c0-0.1-0.1-0.2-0.1-0.4c0-0.2-0.1-0.3,0-0.5
		C57.5,85.9,57.7,86,57.8,86.4 M98.2,90.1c0,0.1,0.1,0.2,0.1,0.4c0.1,0.3,0.2,0.4,0.3,0.2c0-0.1,0-0.1,0-0.2
		C98.5,90.3,98.4,90.2,98.2,90.1 M96.3,90.2c-0.1,0.4,0,0.7,0.1,1.1c0.1,0,0.3,0.1,0.4,0.1c0.2,0,0.3,0,0.4-0.1
		c0.1-0.2-0.1-0.5-0.6-0.8L96.3,90.2"/>
	<path class="st3" d="M108.4,19.2c-0.7-1-1.5-2-2.3-2.8c-0.7-0.7-1.4-1.4-2.2-2c-2-1.6-4.2-2.9-6.5-3.9c-1.7-0.7-3.4-1.4-5.2-1.9
		c-2.7-0.8-5.5-1.3-8.3-1.6c-1.5-0.2-3.1-0.2-4.6-0.3c-1.3,0-2.6,0-3.9,0.1c-3.1,0.2-6.1,0.7-9,1.6c-1,0.3-2,0.6-3.1,0.9
		c-0.9,0.3-1.9,0.7-3,1.1c-2.9,1.1-5.4,2.2-7.7,3.3c-2.5,1.2-5,2.6-7.3,4.2c-2.4,1.6-4.6,3.4-6.6,5.5c-2,2.1-3.8,4.4-5.3,6.9
		c-1.8,3.2-2.9,6.3-3.1,9.3c0,0.5,0,1.1,0,1.6l0,0.1c0,0.1,0,0.2,0,0.2c0.1,1,0.2,1.9,0.4,2.8c0.1,0.5,0.3,1.1,0.5,1.6
		c0.3,1,0.8,2,1.3,2.9c0.8,1.4,1.7,2.7,2.8,3.9c1.1,1.2,2.4,2.2,3.8,3.1c0.7,0.4,1.2,0.7,1.6,0.9c0.5,0.3,1.1,0.7,1.6,1
		c1,0.7,1.7,1.7,2.1,2.8c0.2,1,0.2,2.1-0.1,3.1c-0.1,0.4-0.3,0.9-0.5,1.6c-0.2,0.7-0.4,1.2-0.5,1.5c-0.4,1.4-0.6,2.8-0.5,4.2
		c0,1.4,0.2,2.8,0.6,4.2c0.4,1.4,0.9,2.7,1.6,4c0.7,1.3,1.4,2.4,2.3,3.6c1.2,1.4,2.5,2.7,3.9,3.9c1.4,1.2,2.9,2.3,4.5,3.3
		c1,0.6,1.8,1.2,2.7,1.7c1,0.6,1.9,1.1,2.8,1.5c1.8,0.8,3.7,1.5,5.7,2c1.9,0.5,3.9,0.8,5.9,1c1.3,0.1,2.5,0.2,3.8,0.3
		c2.1,0.1,4.2,0.1,6.3-0.1c3.3-0.3,6.6-0.9,9.7-1.9c3.1-1,6.1-2.4,8.9-4.2c2.8-1.8,5.2-4,7.3-6.5c1-1.2,1.9-2.4,2.6-3.7
		c0.8-1.3,1.3-2.8,1.7-4.2c0.2-0.9,0.4-1.9,0.4-2.9c0-0.6,0-1.2-0.1-1.8c-0.2-1.5-0.7-3-1.5-4.3c-0.5-0.7-1.1-1.4-1.7-2
		c-0.6-0.6-1.3-1.2-2.1-1.7c-0.4-0.3-1.2-0.8-2.2-1.5c-1-0.6-1.7-1.1-2.2-1.5c-0.6-0.4-1.1-0.8-1.5-1.3c-0.5-0.5-0.8-1.1-1.1-1.7
		c-0.3-0.9-0.4-1.9-0.2-2.8c0.2-0.9,0.6-1.8,1.1-2.6c0.5-0.7,1.1-1.4,1.8-2c0.1-0.1,0.5-0.4,1-0.9c0.4-0.4,0.7-0.7,1-0.9
		c2.1-2.2,3.7-4.8,4.7-7.7c1-2.9,1.6-5.9,1.6-9c0-0.7,0-1.4-0.1-2c0-0.3-0.1-0.6-0.1-0.9c-0.1-0.9-0.3-1.9-0.5-2.8
		C110.6,23.1,109.7,21.1,108.4,19.2"/>
	<path class="st4" d="M107.1,76.6C102.4,80,98,78,97.4,72c-0.6-6,2.8-13.6,7.5-17c4.8-3.5,9.1-1.4,9.7,4.5
		C115.3,65.5,111.9,73.1,107.1,76.6 M118.1,45.3l-0.4-0.7l-4.7-2.2c-0.1-0.1-0.3-0.1-0.4-0.2l-0.1-0.1l0,0
		c-3.2-1.3-7.2-0.6-11.3,2.5C92.4,51,86.2,64.9,87.3,75.8c0.5,5.2,2.6,8.7,5.6,10.3h0l0.1,0c0.3,0.2,4,2,4.3,2.1l1.1-0.6l1.7,0.9
		c2.4-0.1,5.2-1,8-3.1c8.7-6.3,14.9-20.3,13.8-31.1C121.4,50.3,120,47.2,118.1,45.3"/>
	<path class="st4" d="M96.3,49.2l11,4.5c0.3-0.1,0.7-0.2,1-0.3l-0.6-5.8l-6.9-2.8C99.2,46.1,97.7,47.5,96.3,49.2 M105.5,87l-0.9-9.1
		c-3.3,1.1-6.1-0.6-7-4.4l-10.2-4.1c-0.3,2.1-0.3,4.3-0.1,6.5c0.2,1.7,0.5,3.3,1.1,4.8l16.5,6.7C105.1,87.2,105.3,87.1,105.5,87
		 M97.3,70.9c0-1.9,0.3-3.8,0.8-5.7l0-0.3l-8.8-3.6c-0.7,1.8-1.2,3.7-1.6,5.6L97.3,70.9z M95.4,62.4l-0.2-1.6l-4.8-1.9
		c-0.2,0.4-0.4,0.9-0.6,1.3C89.9,60.2,95.4,62.4,95.4,62.4z M101.4,54.7l-0.2-1.6l-6.1-2.4c-0.3,0.4-0.6,0.8-0.9,1.2
		C94.2,51.9,101.4,54.7,101.4,54.7z"/>
	<path class="st5" d="M109,77.4c-4.8,3.5-9.1,1.4-9.7-4.5c-0.6-6,2.8-13.6,7.5-17c4.8-3.5,9.1-1.4,9.7,4.5
		C117.1,66.3,113.7,73.9,109,77.4 M105.9,46.9C97.2,53.3,91,67.1,92.1,78c1.1,10.9,9.1,14.6,17.8,8.3c8.7-6.3,14.9-20.3,13.8-31.1
		S114.5,40.6,105.9,46.9"/>
	<path class="st6" d="M99.3,73c-0.6-6,2.8-13.6,7.5-17c4.8-3.5,9.1-1.4,9.7,4.5c0.6,6-2.8,13.6-7.5,17.1C104.2,81,99.9,79,99.3,73
		 M123.7,55.3c-1.1-10.9-9.1-14.6-17.8-8.3C97.2,53.4,91,67.3,92.1,78.2c1.1,10.9,9.1,14.6,17.8,8.3
		C118.6,80.2,124.8,66.2,123.7,55.3"/>
	<path class="st6" d="M121.6,56.6c-1-9.5-7.9-12.7-15.5-7.2c-7.6,5.5-13,17.7-12,27.1c1,9.5,7.9,12.7,15.5,7.2
		C117.2,78.3,122.6,66.1,121.6,56.6"/>
	<path class="st7" d="M120.6,57.4c-0.9-8.8-7.3-11.8-14.4-6.7c-7,5.1-12,16.4-11.1,25.2c0.9,8.8,7.3,11.8,14.4,6.7
		C116.5,77.4,121.5,66.2,120.6,57.4"/>
	<path class="st5" d="M106.3,51c7-5.1,13.4-2.1,14.3,6.5c0,0,0-0.1,0-0.2c-0.9-8.8-7.3-11.8-14.4-6.7c-7,5.1-12,16.4-11.1,25.2
		l0,0.2C94.3,67.2,99.3,56,106.3,51"/>
	<path class="st8" d="M102,58.4c-0.1,0.2-0.1,0.4,0,0.5c0,0.1,0.1,0.2,0.2,0.2c0.1,0.1,0.2,0.1,0.3,0.1c0.1,0,0.3-0.1,0.3-0.2
		c0.1-0.1,0.1-0.2,0.1-0.4c0-0.1,0-0.3-0.1-0.4c-0.1-0.1-0.1-0.2-0.2-0.2c-0.1,0-0.2,0-0.3,0C102.2,58.2,102.1,58.3,102,58.4
		 M102.7,57.2c0,0.1,0.1,0.2,0.2,0.3c0.1,0.1,0.2,0.2,0.4,0.2c0.2,0,0.3,0,0.4-0.1c0.4-0.2,0.7-0.4,1-0.7c0.2-0.2,0.4-0.5,0.6-0.7
		c0-0.1,0.1-0.2,0.1-0.3c0,0,0.1-0.1,0.1-0.1c0.2-0.3,0.3-0.6,0.3-0.9c0.1-0.2,0.1-0.4,0.1-0.7c0-0.2-0.1-0.4-0.3-0.6
		c-0.1-0.1-0.3-0.2-0.5-0.2c-0.2,0-0.3,0-0.5,0c-0.3,0.1-0.6,0.3-0.9,0.6c-0.5,0.5-0.9,1.1-1.2,1.8
		C102.5,56.3,102.5,56.8,102.7,57.2 M97.3,59.9c0,0.1,0,0.2,0,0.3c0,0,0.1,0.1,0.1,0.1c0,0,0.1,0,0.1,0c0.1,0,0.1-0.1,0.2-0.1
		c0-0.1,0.1-0.1,0.1-0.2c0-0.1,0-0.1-0.1-0.2c-0.1-0.1-0.2-0.1-0.3-0.1C97.3,59.7,97.3,59.8,97.3,59.9 M97.5,59.1
		c0,0.1,0.1,0.1,0.1,0.1c0.1,0,0.1,0.1,0.2,0c0.1,0,0.2,0,0.2-0.1c0.2-0.1,0.4-0.3,0.5-0.5c0.1-0.2,0.2-0.3,0.3-0.5
		c0-0.1,0-0.1,0.1-0.2c0,0,0,0,0.1-0.1c0.1-0.2,0.1-0.4,0.1-0.5c0-0.1,0-0.3,0-0.4c0-0.1-0.1-0.2-0.2-0.3c-0.1,0-0.2-0.1-0.3-0.1
		c-0.1,0-0.2,0-0.3,0.1c-0.2,0.1-0.3,0.2-0.4,0.4c-0.3,0.3-0.5,0.7-0.5,1.2C97.4,58.6,97.4,58.8,97.5,59.1"/>
	<path class="st5" d="M110.7,67.1c0-0.4,0-0.9,0-1.3c0.1,0,0.2,0.1,0.3,0.1c0.5,0.3,0.9,0.7,1.2,1.1c0.3,0.6,0.5,1.2,0.5,1.8
		c0,0.6-0.1,1.3-0.3,1.9c-0.1,0.5-0.3,1-0.6,1.5c-0.2,0.4-0.4,0.7-0.7,1.1c0,0,0,0,0,0c0-0.5-0.1-0.8-0.1-1.1
		C110.8,71,110.8,69.3,110.7,67.1z M108.5,65.5c0.3,0,0.5,0,0.8,0c0,0.3,0,0.6,0,1l0,0.4c0,1.4,0.1,2.9,0.1,4.5l0.1,1.9
		c0,0,0,0.1,0,0.1c0,0.5,0,0.8,0,1.2c-0.4,0.2-0.9,0.4-1.4,0.5c-0.2,0-0.4,0-0.6,0c0-0.1,0-0.2,0-0.3c-0.1-1.5-0.2-2.5-0.2-3.2
		l0-5.9C107.5,65.6,108,65.5,108.5,65.5z M105.1,61.9C105.1,61.9,105.1,61.9,105.1,61.9c0-0.1,0-0.2,0-0.3c0,0,0-0.1,0-0.2
		c0-0.6,0.2-1.2,0.5-1.7c0,1,0,1.9,0,2.9c-0.1-0.1-0.2-0.1-0.2-0.2C105.3,62.3,105.2,62.1,105.1,61.9L105.1,61.9z M107.2,58.2
		c0.2-0.2,0.5-0.3,0.7-0.4c0.4-0.1,0.7-0.2,1.1-0.3c0,1.7,0.1,3.5,0.2,5.6c-0.6,0-1,0-1.3,0.1c-0.2,0-0.5,0-0.7,0l0-2.1
		C107.2,59.9,107.2,58.9,107.2,58.2z M106.9,54.1c0-0.2-0.1-0.3-0.2-0.3c-0.1-0.1-0.2-0.2-0.4-0.1c0,0-0.1,0-0.1,0.1
		c-0.1,0.1-0.2,0.2-0.3,0.3c-0.1,0.4-0.2,0.8-0.2,1.3l0,1.4c-0.1,0.1-0.2,0.1-0.2,0.2c-0.5,0.4-1,0.9-1.4,1.5
		c-0.1,0.1-0.1,0.2-0.2,0.3c-0.5,0.8-0.8,1.7-0.9,2.6c-0.2,0.9-0.1,1.8,0.3,2.6c0.4,0.9,1.3,1.5,2.3,1.6c0,0,0.1,0,0.1,0
		c0,1.3,0.1,2.5,0.1,3.8c0,1.9,0,3.6,0,5.1c-0.1,0-0.2-0.1-0.3-0.1c-0.3-0.1-0.5-0.3-0.7-0.5c-0.2-0.2-0.4-0.4-0.6-0.5
		c-0.2-0.1-0.5-0.2-0.7,0c-0.1,0.1-0.3,0.2-0.3,0.4c-0.1,0.1-0.2,0.3-0.3,0.5c-0.1,0.3-0.1,0.6,0.1,0.9c0.2,0.4,0.4,0.7,0.8,0.9
		c0.6,0.6,1.3,1.1,2.2,1.3l0,0.3c0,0.6,0.1,1.2,0.1,1.8c0.1,0.6,0.2,0.9,0.5,0.9c0.2,0,0.4,0,0.5-0.2c0,0,0,0,0-0.1
		c0.1,0,0.1-0.1,0.1-0.1c0.1-0.1,0.2-0.3,0.2-0.4c0.1-0.3,0.1-0.6,0.1-0.9c0-0.4,0-0.8,0-1.2c0.3,0,0.6-0.1,0.9-0.2
		c0.2-0.1,0.5-0.1,1-0.3l0.1,0c0,0.5,0,1.1,0.1,1.6l0,0.2c0,0.2,0,0.3,0,0.5c0,0.2,0.1,0.3,0.1,0.4c0.1,0.2,0.2,0.2,0.4,0.3
		c0.2,0,0.4-0.1,0.5-0.2c0.1-0.1,0.2-0.2,0.2-0.3c0.2-0.4,0.3-0.8,0.2-1.2l0-0.4l0-1.4c0.3-0.1,0.5-0.3,0.8-0.5
		c0.2-0.2,0.5-0.4,0.7-0.7c0.2-0.2,0.3-0.3,0.5-0.5c0.5-0.6,0.8-1.2,1.1-1.9c0.3-0.8,0.6-1.5,0.7-2.3c0.1-0.8,0.2-1.6,0.1-2.4
		c0-0.5-0.1-1-0.3-1.4c0-0.1,0-0.1-0.1-0.2c-0.2-0.5-0.4-0.9-0.7-1.4c-0.2-0.2-0.4-0.5-0.6-0.7c-0.2-0.2-0.3-0.3-0.5-0.5
		c0,0-0.1-0.1-0.1-0.1c-0.4-0.3-0.9-0.6-1.5-0.7c-0.2,0-0.3-0.1-0.5-0.1c0-0.5,0-0.9-0.1-1.2c-0.1-1.1-0.1-2-0.2-2.6
		c0-0.6-0.1-1.2-0.1-1.7l0,0c0.1,0,0.2,0,0.4,0.1c0.1,0,0.3,0,0.4,0c0.3-0.1,0.6-0.3,0.8-0.6c0.2-0.3,0.2-0.6,0.1-0.9
		c0-0.3-0.1-0.6-0.3-0.8c-0.3-0.4-0.8-0.5-1.3-0.5c-0.1,0-0.2,0-0.3,0v0c0-0.6-0.1-1.2-0.2-1.8c0-0.3-0.1-0.5-0.3-0.7c0,0,0,0,0,0
		c0,0,0,0,0,0c-0.1-0.1-0.3-0.1-0.4,0c-0.2,0.1-0.3,0.3-0.3,0.5c-0.1,0.2-0.1,0.4-0.1,0.7c0,0.1,0,0.4,0,0.7l0.1,0.6
		c0,0.1,0,0.1,0,0.2c-0.6,0.2-1.2,0.4-1.8,0.7c-0.1,0-0.1,0.1-0.2,0.1c0-0.2,0-0.4,0-0.5l0,0c0-0.3,0-0.5,0-0.8
		C107,54.3,106.9,54.2,106.9,54.1L106.9,54.1z"/>
	<path class="st6" d="M111.2,66.7c0-0.4,0-0.9,0-1.3c0.1,0,0.2,0.1,0.3,0.1c0.5,0.3,0.9,0.7,1.2,1.1c0.3,0.6,0.5,1.2,0.5,1.8
		c0,0.6-0.1,1.3-0.3,1.9c-0.1,0.5-0.3,1-0.6,1.5c-0.2,0.4-0.4,0.7-0.7,1.1c0,0,0,0,0,0c0-0.5-0.1-0.8-0.1-1.1
		C111.3,70.6,111.2,68.9,111.2,66.7 M108.9,65.1c0.3,0,0.5,0,0.8,0c0,0.3,0,0.6,0,1l0,0.4c0,1.4,0.1,2.9,0.1,4.5l0.1,1.9
		c0,0,0,0.1,0,0.1c0,0.5,0,0.8,0,1.2c-0.4,0.2-0.9,0.4-1.4,0.5c-0.2,0-0.4,0-0.6,0c0-0.1,0-0.2,0-0.3c-0.1-1.5-0.2-2.5-0.2-3.2
		l0-5.9L108.9,65.1 M105.6,61.5C105.6,61.5,105.6,61.5,105.6,61.5c0-0.1,0-0.2,0-0.3c0,0,0-0.1,0-0.2c0-0.6,0.2-1.2,0.5-1.7
		c0,1,0,1.9,0,2.9c-0.1-0.1-0.2-0.1-0.2-0.2C105.7,61.9,105.6,61.7,105.6,61.5 M107.6,57.8c0.2-0.2,0.5-0.3,0.7-0.4
		c0.4-0.1,0.7-0.2,1.1-0.3c0,1.7,0.1,3.5,0.2,5.6c-0.6,0-1,0-1.3,0.1c-0.2,0-0.5,0-0.7,0l0-2.1C107.7,59.5,107.6,58.5,107.6,57.8
		 M107.3,53.7c0-0.2-0.1-0.3-0.2-0.3c-0.1-0.1-0.2-0.2-0.4-0.1c0,0-0.1,0-0.1,0.1c-0.1,0.1-0.2,0.2-0.3,0.3
		c-0.1,0.4-0.2,0.8-0.2,1.3l0,1.4c-0.1,0.1-0.2,0.1-0.2,0.2c-0.5,0.4-1,0.9-1.4,1.5c-0.1,0.1-0.1,0.2-0.2,0.3
		c-0.5,0.8-0.8,1.7-0.9,2.6c-0.2,0.9-0.1,1.8,0.3,2.6c0.4,0.9,1.3,1.5,2.3,1.6c0,0,0.1,0,0.1,0c0,1.3,0.1,2.5,0.1,3.8
		c0,1.9,0,3.6,0,5.1c-0.1,0-0.2-0.1-0.3-0.1c-0.3-0.1-0.5-0.3-0.7-0.5c-0.2-0.2-0.4-0.4-0.6-0.5c-0.2-0.1-0.5-0.2-0.7,0
		c-0.1,0.1-0.3,0.2-0.3,0.4c-0.1,0.1-0.2,0.3-0.3,0.5c-0.1,0.3-0.1,0.6,0.1,0.9c0.2,0.4,0.4,0.7,0.8,0.9c0.6,0.6,1.3,1.1,2.2,1.3
		l0,0.3c0,0.6,0.1,1.2,0.1,1.8c0.1,0.6,0.2,0.9,0.5,0.9c0.2,0,0.4,0,0.5-0.2c0,0,0,0,0-0.1c0.1,0,0.1-0.1,0.1-0.1
		c0.1-0.1,0.2-0.3,0.2-0.4c0.1-0.3,0.1-0.6,0.1-0.9c0-0.4,0-0.8,0-1.2c0.3,0,0.6-0.1,0.9-0.2c0.2-0.1,0.5-0.1,1-0.3c0,0,0,0,0.1,0
		c0,0.5,0,1.1,0.1,1.6l0,0.2c0,0.2,0,0.3,0,0.5c0,0.2,0.1,0.3,0.1,0.4c0.1,0.2,0.2,0.2,0.4,0.3c0.2,0,0.4-0.1,0.5-0.2
		c0.1-0.1,0.2-0.2,0.2-0.3c0.2-0.4,0.3-0.8,0.2-1.2l0-0.4c0-0.5,0-1,0-1.4c0.3-0.1,0.5-0.3,0.8-0.5c0.2-0.2,0.5-0.4,0.7-0.7
		c0.2-0.2,0.3-0.3,0.5-0.5c0.5-0.6,0.8-1.2,1.1-1.9c0.3-0.8,0.6-1.5,0.7-2.3c0.1-0.8,0.2-1.6,0.1-2.4c0-0.5-0.1-1-0.3-1.4
		c0-0.1,0-0.1-0.1-0.2c-0.2-0.5-0.4-0.9-0.7-1.4c-0.2-0.2-0.4-0.5-0.6-0.7c-0.2-0.2-0.3-0.4-0.5-0.5l-0.1-0.1
		c-0.4-0.3-0.9-0.6-1.5-0.7c-0.2,0-0.3-0.1-0.5-0.1c0-0.5,0-0.9-0.1-1.2c-0.1-1.1-0.1-2-0.2-2.6c0-0.6-0.1-1.2-0.1-1.7l0,0
		c0.1,0,0.2,0,0.4,0.1c0.1,0,0.3,0,0.4,0c0.3-0.1,0.6-0.3,0.8-0.6c0.2-0.3,0.2-0.6,0.1-0.9c0-0.3-0.1-0.6-0.3-0.8
		c-0.3-0.4-0.8-0.5-1.3-0.5c-0.1,0-0.2,0-0.3,0v0c0-0.6-0.1-1.2-0.2-1.8c0-0.3-0.1-0.5-0.3-0.7l0,0c0,0,0,0,0,0
		c-0.1-0.1-0.3-0.1-0.4,0c-0.2,0.1-0.3,0.3-0.3,0.5c-0.1,0.2-0.1,0.4-0.1,0.7c0,0.1,0,0.4,0,0.7l0.1,0.7c0,0.1,0,0.1,0,0.2
		c-0.6,0.2-1.2,0.4-1.8,0.7c-0.1,0-0.1,0.1-0.2,0.1c0-0.2,0-0.4,0-0.5c0,0,0,0,0,0c0-0.3,0-0.5,0-0.8
		C107.4,53.9,107.4,53.8,107.3,53.7"/>
	<path class="st7" d="M120.2,69.1c-0.1,0-0.1,0.1-0.1,0.1c0,0.1-0.1,0.2-0.2,0.3l-0.1,0.2c-0.1,0.2-0.2,0.4-0.3,0.5l-0.2,0.5
		l-0.1,0.3l-0.1,0.3c0,0,0,0.1,0,0.1c0,0,0,0.1,0,0.1c0,0.1,0.1,0.1,0.1,0.2c0.1,0,0.1,0,0.2,0c0.1,0,0.3-0.1,0.3-0.2
		c0.1-0.1,0.1-0.2,0.2-0.3c0.1-0.2,0.3-0.5,0.4-0.7c0-0.1,0.1-0.2,0.1-0.2l0.1-0.2l0.1-0.4c0-0.1,0-0.2,0-0.2c0-0.1,0-0.2-0.1-0.2
		c-0.1,0-0.1-0.1-0.2-0.1C120.3,69.1,120.2,69.1,120.2,69.1 M118.9,72.1c-0.1,0-0.2,0-0.2,0.1c-0.1,0.1-0.1,0.2-0.1,0.3
		c0,0,0,0.1,0,0.1c0,0,0.1,0.1,0.1,0.1c0.1,0,0.1,0,0.2,0c0.1,0,0.1,0,0.2-0.1c0,0,0.1-0.1,0.1-0.1c0-0.1,0-0.1,0-0.2
		c0-0.1,0-0.1-0.1-0.1C119,72.1,119,72.1,118.9,72.1"/>
	<path class="st4" d="M111,82.8c-2.8,2-5.3,0.8-5.7-2.6c-0.4-3.5,1.6-7.9,4.4-9.9c2.8-2,5.3-0.8,5.7,2.6
		C115.8,76.3,113.8,80.8,111,82.8 M117.4,64.6l-0.2-0.4l-2.7-1.3c-0.1,0-0.2-0.1-0.2-0.1l-0.1,0h0c-1.8-0.7-4.2-0.3-6.6,1.4
		c-5.1,3.7-8.7,11.8-8,18.2c0.3,3,1.5,5.1,3.2,6h0l0,0c0.2,0.1,2.3,1.2,2.5,1.2l0.7-0.4l1,0.5c1.4,0,3-0.6,4.7-1.8
		c5.1-3.7,8.7-11.8,8-18.2C119.4,67.5,118.6,65.7,117.4,64.6"/>
	<path class="st4" d="M104.7,66.8l6.4,2.6c0.2-0.1,0.4-0.1,0.6-0.2l-0.3-3.4l-4-1.6C106.4,65,105.5,65.9,104.7,66.8 M110.1,88.9
		l-0.5-5.3c-1.9,0.7-3.5-0.3-4.1-2.6l-5.9-2.4c-0.2,1.3-0.2,2.5-0.1,3.8c0.1,1,0.3,1.9,0.6,2.8l9.6,3.9C109.9,89,110,89,110.1,88.9
		 M105.3,79.5c0-1.1,0.2-2.2,0.5-3.3l0-0.2l-5.1-2.1c-0.4,1.1-0.7,2.2-0.9,3.3L105.3,79.5L105.3,79.5z M104.2,74.5l-0.1-1l-2.8-1.1
		c-0.1,0.3-0.2,0.5-0.3,0.8C101,73.2,104.2,74.5,104.2,74.5z M107.7,70.1l-0.1-1l-3.6-1.4c-0.2,0.2-0.3,0.5-0.5,0.7L107.7,70.1
		L107.7,70.1z"/>
	<path class="st5" d="M112.1,83.3c-2.8,2-5.3,0.8-5.7-2.6c-0.4-3.5,1.6-7.9,4.4-9.9c2.8-2,5.3-0.8,5.7,2.6
		C116.9,76.8,114.9,81.3,112.1,83.3 M110.3,65.5c-5.1,3.7-8.7,11.8-8,18.2c0.6,6.4,5.3,8.5,10.4,4.8s8.7-11.8,8-18.2
		C120,64,115.3,61.8,110.3,65.5"/>
	<path class="st6" d="M106.4,80.8c-0.4-3.5,1.6-7.9,4.4-9.9c2.8-2,5.3-0.8,5.7,2.6c0.4,3.5-1.6,7.9-4.4,9.9
		C109.3,85.4,106.8,84.2,106.4,80.8 M120.7,70.4c-0.6-6.4-5.3-8.5-10.4-4.8c-5.1,3.7-8.7,11.8-8,18.2c0.6,6.4,5.3,8.5,10.4,4.8
		C117.7,84.9,121.3,76.8,120.7,70.4"/>
	<path class="st6" d="M119.5,71.2c-0.6-5.5-4.6-7.4-9-4.2c-4.4,3.2-7.6,10.3-7,15.8c0.6,5.5,4.6,7.4,9,4.2
		C116.9,83.8,120,76.7,119.5,71.2"/>
	<path class="st7" d="M118.9,71.6c-0.5-5.1-4.3-6.9-8.4-3.9c-4.1,3-7,9.6-6.5,14.7c0.5,5.1,4.3,6.9,8.4,3.9
		C116.5,83.3,119.4,76.7,118.9,71.6"/>
	<path class="st5" d="M110.5,67.9c4.1-3,7.8-1.2,8.4,3.8l0-0.1c-0.5-5.1-4.3-6.9-8.4-3.9c-4.1,3-7,9.6-6.5,14.7c0,0,0,0.1,0,0.1
		C103.6,77.4,106.5,70.8,110.5,67.9"/>
	<path class="st8" d="M108.1,72.2c0,0.1-0.1,0.2,0,0.3c0,0.1,0.1,0.1,0.1,0.1c0,0,0.1,0.1,0.2,0.1c0.1,0,0.2,0,0.2-0.1
		c0-0.1,0.1-0.1,0.1-0.2c0-0.1,0-0.1-0.1-0.2c0-0.1-0.1-0.1-0.1-0.1c-0.1,0-0.1,0-0.2,0C108.1,72.1,108.1,72.2,108.1,72.2
		 M108.4,71.5c0,0.1,0.1,0.1,0.1,0.2c0.1,0.1,0.1,0.1,0.2,0.1c0.1,0,0.2,0,0.3,0c0.2-0.1,0.4-0.2,0.6-0.4c0.1-0.1,0.3-0.3,0.4-0.4
		c0-0.1,0-0.1,0.1-0.2c0,0,0,0,0.1,0c0.1-0.2,0.2-0.3,0.2-0.5c0-0.1,0-0.3,0-0.4c0-0.1-0.1-0.2-0.2-0.3c-0.1-0.1-0.2-0.1-0.3-0.1
		c-0.1,0-0.2,0-0.3,0c-0.2,0.1-0.4,0.2-0.5,0.3c-0.3,0.3-0.6,0.6-0.7,1.1C108.3,71,108.3,71.3,108.4,71.5 M105.3,73.1
		c0,0.1,0,0.1,0,0.2c0,0,0,0,0.1,0.1c0,0,0.1,0,0.1,0c0,0,0.1,0,0.1-0.1c0,0,0-0.1,0-0.1c0,0,0-0.1,0-0.1c0-0.1-0.1-0.1-0.2,0
		C105.3,73,105.3,73,105.3,73.1 M105.4,72.6C105.4,72.6,105.5,72.7,105.4,72.6c0.1,0.1,0.2,0.1,0.2,0.1c0.1,0,0.1,0,0.1-0.1
		c0.1-0.1,0.2-0.2,0.3-0.3c0.1-0.1,0.1-0.2,0.2-0.3c0,0,0-0.1,0-0.1c0,0,0,0,0,0c0-0.1,0.1-0.2,0.1-0.3c0-0.1,0-0.1,0-0.2
		c0-0.1-0.1-0.1-0.1-0.2c0,0-0.1,0-0.2,0c-0.1,0-0.1,0-0.2,0.1c-0.1,0.1-0.2,0.1-0.3,0.2c-0.2,0.2-0.3,0.4-0.3,0.7
		C105.4,72.3,105.4,72.5,105.4,72.6"/>
	<path class="st5" d="M113.1,77.3c0-0.3,0-0.5,0-0.7c0.1,0,0.1,0,0.1,0.1c0.3,0.2,0.5,0.4,0.7,0.7c0.2,0.3,0.3,0.7,0.3,1.1
		c0,0.4-0.1,0.7-0.2,1.1c-0.1,0.3-0.2,0.6-0.3,0.9c-0.1,0.2-0.3,0.4-0.4,0.6c0,0,0,0,0,0c0-0.3,0-0.5,0-0.6
		C113.2,79.6,113.2,78.6,113.1,77.3 M111.8,76.4c0.2,0,0.3,0,0.5,0c0,0.2,0,0.4,0,0.6c0,0.1,0,0.2,0,0.2c0,0.8,0,1.7,0.1,2.6
		l0.1,1.1V81c0,0.3,0,0.5,0,0.7c-0.3,0.1-0.5,0.2-0.8,0.3c-0.1,0-0.2,0-0.4,0c0-0.1,0-0.1,0-0.2c-0.1-0.9-0.1-1.5-0.1-1.9l0-3.5
		L111.8,76.4 M109.9,74.3L109.9,74.3c0,0,0-0.1,0-0.2V74c0-0.3,0.1-0.7,0.3-1c0,0.6,0,1.1,0,1.7c-0.1,0-0.1-0.1-0.1-0.1
		C109.9,74.5,109.9,74.4,109.9,74.3 M111,72.1c0.1-0.1,0.3-0.2,0.4-0.2c0.2-0.1,0.4-0.1,0.7-0.2c0,1,0.1,2.1,0.1,3.3
		c-0.3,0-0.6,0-0.8,0c-0.1,0-0.3,0-0.4,0l0-1.2C111.1,73.1,111.1,72.5,111,72.1 M110.9,69.7c0-0.1-0.1-0.2-0.1-0.2
		c-0.1-0.1-0.1-0.1-0.2-0.1c0,0-0.1,0-0.1,0c-0.1,0.1-0.1,0.1-0.2,0.2c-0.1,0.2-0.1,0.5-0.1,0.7l0,0.8c0,0-0.1,0.1-0.1,0.1
		c-0.3,0.2-0.6,0.5-0.8,0.9c0,0.1-0.1,0.1-0.1,0.2c-0.3,0.5-0.5,1-0.5,1.5c-0.1,0.5,0,1,0.2,1.5c0.3,0.5,0.8,0.9,1.4,0.9
		c0,0,0.1,0,0.1,0c0,0.7,0,1.5,0.1,2.2c0,1.1,0,2.1,0,3l-0.2-0.1c-0.2-0.1-0.3-0.2-0.4-0.3c-0.1-0.1-0.2-0.2-0.4-0.3
		c-0.1-0.1-0.3-0.1-0.4,0c-0.1,0.1-0.1,0.1-0.2,0.2c-0.1,0.1-0.1,0.2-0.2,0.3c0,0.2,0,0.4,0,0.5c0.1,0.2,0.2,0.4,0.4,0.5
		c0.3,0.4,0.8,0.6,1.3,0.8l0,0.2c0,0.3,0,0.7,0.1,1c0,0.3,0.1,0.5,0.3,0.6c0.1,0,0.2,0,0.3-0.1c0,0,0,0,0,0c0,0,0.1-0.1,0.1-0.1
		c0.1-0.1,0.1-0.2,0.1-0.2c0-0.2,0.1-0.4,0.1-0.5c0-0.2,0-0.4,0-0.7c0.2,0,0.4-0.1,0.5-0.1c0.1,0,0.3-0.1,0.6-0.2l0,0
		c0,0.3,0,0.6,0,0.9l0,0.1c0,0.1,0,0.2,0,0.3c0,0.1,0,0.2,0.1,0.2c0,0.1,0.1,0.1,0.2,0.2c0.1,0,0.2-0.1,0.3-0.1
		c0.1-0.1,0.1-0.1,0.1-0.2c0.1-0.2,0.2-0.5,0.1-0.7l0-0.2l0-0.8c0.2-0.1,0.3-0.2,0.5-0.3c0.1-0.1,0.3-0.3,0.4-0.4
		c0.1-0.1,0.2-0.2,0.3-0.3c0.3-0.3,0.5-0.7,0.6-1.1c0.2-0.4,0.3-0.9,0.4-1.4c0.1-0.5,0.1-0.9,0.1-1.4c0-0.3-0.1-0.6-0.2-0.8
		c0,0,0-0.1,0-0.1c-0.1-0.3-0.2-0.6-0.4-0.8c-0.1-0.1-0.2-0.3-0.3-0.4c-0.1-0.1-0.2-0.2-0.3-0.3l-0.1-0.1c-0.3-0.2-0.6-0.3-0.9-0.4
		c-0.1,0-0.2,0-0.3,0c0-0.3,0-0.5,0-0.7c0-0.7-0.1-1.2-0.1-1.5c0-0.4,0-0.7-0.1-1l0,0c0.1,0,0.1,0,0.3,0c0.1,0,0.2,0,0.3,0
		c0.2,0,0.4-0.2,0.5-0.3c0.1-0.2,0.1-0.4,0.1-0.5c0-0.2-0.1-0.3-0.2-0.5c-0.2-0.2-0.5-0.3-0.8-0.3c-0.1,0-0.1,0-0.1,0v0
		c0-0.4-0.1-0.7-0.1-1.1c0-0.2-0.1-0.3-0.2-0.4c0,0,0,0,0,0c0,0,0,0,0,0c-0.1-0.1-0.2,0-0.2,0c-0.1,0.1-0.2,0.2-0.2,0.3
		c0,0.1,0,0.3,0,0.4c0,0.1,0,0.2,0,0.4l0,0.4v0.1c-0.4,0.1-0.7,0.2-1,0.4c0,0-0.1,0-0.1,0.1l0-0.3l0,0c0-0.2,0-0.3,0-0.5
		C110.9,69.8,110.9,69.8,110.9,69.7"/>
	<path class="st6" d="M113.4,77l0-0.7c0.1,0,0.1,0,0.1,0.1c0.3,0.2,0.5,0.4,0.7,0.7c0.2,0.3,0.3,0.7,0.3,1.1c0,0.4-0.1,0.7-0.2,1.1
		c-0.1,0.3-0.2,0.6-0.3,0.9c-0.1,0.2-0.3,0.4-0.4,0.6c0,0,0,0,0,0c0-0.3,0-0.5,0-0.6C113.5,79.3,113.4,78.3,113.4,77 M112.1,76.1
		c0.2,0,0.3,0,0.5,0c0,0.2,0,0.4,0,0.6l0,0.2c0,0.8,0,1.7,0.1,2.6l0.1,1.1v0.1c0,0.3,0,0.5,0,0.7c-0.3,0.1-0.5,0.2-0.8,0.3
		c-0.1,0-0.2,0-0.4,0l0-0.2c-0.1-0.9-0.1-1.5-0.1-1.9l0-3.5L112.1,76.1 M110.1,74.1C110.1,74,110.1,74,110.1,74.1l0-0.2v-0.1
		c0-0.3,0.1-0.7,0.3-1c0,0.6,0,1.1,0,1.7c-0.1,0-0.1-0.1-0.1-0.1C110.2,74.3,110.2,74.2,110.1,74.1 M111.3,71.8
		c0.1-0.1,0.3-0.2,0.4-0.2c0.2-0.1,0.4-0.1,0.7-0.2c0,1,0.1,2.1,0.1,3.3c-0.3,0-0.6,0-0.8,0c-0.1,0-0.3,0-0.4,0l0-1.2
		C111.3,72.8,111.3,72.3,111.3,71.8 M111.2,69.5c0-0.1-0.1-0.2-0.1-0.2c-0.1-0.1-0.1-0.1-0.2-0.1c0,0,0,0-0.1,0
		c-0.1,0.1-0.1,0.1-0.2,0.2c-0.1,0.2-0.1,0.5-0.1,0.7l0,0.8c0,0-0.1,0.1-0.1,0.1c-0.3,0.2-0.6,0.5-0.8,0.9c0,0.1-0.1,0.1-0.1,0.2
		c-0.3,0.5-0.5,1-0.5,1.5c-0.1,0.5,0,1,0.2,1.5c0.3,0.5,0.8,0.9,1.4,0.9c0,0,0.1,0,0.1,0c0,0.7,0,1.5,0.1,2.2c0,1.1,0,2.1,0,3
		l-0.2-0.1c-0.2-0.1-0.3-0.2-0.4-0.3c-0.1-0.1-0.2-0.2-0.4-0.3c-0.1-0.1-0.3-0.1-0.4,0c-0.1,0.1-0.1,0.1-0.2,0.2
		c-0.1,0.1-0.1,0.2-0.2,0.3c0,0.2,0,0.4,0,0.5c0.1,0.2,0.2,0.4,0.4,0.5c0.3,0.4,0.8,0.6,1.3,0.8l0,0.2c0,0.3,0,0.7,0.1,1
		c0,0.3,0.1,0.5,0.3,0.6c0.1,0,0.2,0,0.3-0.1c0,0,0,0,0,0c0,0,0.1-0.1,0.1-0.1c0.1-0.1,0.1-0.2,0.1-0.2c0-0.2,0.1-0.4,0.1-0.5
		c0-0.2,0-0.4,0-0.7c0.2,0,0.4-0.1,0.5-0.1c0.1,0,0.3-0.1,0.6-0.2l0,0c0,0.3,0,0.6,0,0.9l0,0.1c0,0.1,0,0.2,0,0.3
		c0,0.1,0,0.2,0.1,0.3c0,0.1,0.1,0.1,0.2,0.2c0.1,0,0.2-0.1,0.3-0.1c0-0.1,0.1-0.1,0.1-0.2c0.1-0.2,0.2-0.5,0.1-0.7l0-0.2l0-0.8
		c0.2-0.1,0.3-0.2,0.5-0.3c0.1-0.1,0.3-0.3,0.4-0.4c0.1-0.1,0.2-0.2,0.3-0.3c0.3-0.3,0.5-0.7,0.6-1.1c0.2-0.4,0.3-0.9,0.4-1.4
		c0.1-0.5,0.1-0.9,0.1-1.4c0-0.3-0.1-0.6-0.2-0.8c0,0,0-0.1,0-0.1c-0.1-0.3-0.2-0.6-0.4-0.8c-0.1-0.1-0.2-0.3-0.3-0.4
		c-0.1-0.1-0.2-0.2-0.3-0.3c0,0-0.1,0-0.1-0.1c-0.3-0.2-0.6-0.3-0.9-0.4c-0.1,0-0.2,0-0.3,0c0-0.3,0-0.5,0-0.7
		c0-0.7-0.1-1.2-0.1-1.5c0-0.4,0-0.7-0.1-1l0,0c0.1,0,0.1,0,0.2,0c0.1,0,0.2,0,0.3,0c0.2,0,0.4-0.2,0.4-0.3c0.1-0.2,0.1-0.4,0.1-0.5
		c0-0.2-0.1-0.3-0.2-0.5c-0.2-0.2-0.5-0.3-0.7-0.3c-0.1,0-0.1,0-0.1,0v0c0-0.4-0.1-0.7-0.1-1.1c0-0.2-0.1-0.3-0.2-0.4l0,0
		c0,0,0,0,0,0c-0.1-0.1-0.2,0-0.2,0c-0.1,0.1-0.2,0.2-0.2,0.3c0,0.1,0,0.3,0,0.4c0,0.1,0,0.2,0,0.4c0,0.1,0,0.2,0,0.4
		c0,0,0,0.1,0,0.1c-0.4,0.1-0.7,0.2-1,0.4l-0.1,0.1c0-0.1,0-0.2,0-0.3l0,0c0-0.2,0-0.3,0-0.5C111.2,69.6,111.2,69.5,111.2,69.5"/>
	<path class="st7" d="M118.7,78.5C118.6,78.5,118.6,78.5,118.7,78.5c-0.1,0.1-0.1,0.2-0.2,0.3l-0.1,0.1c-0.1,0.1-0.1,0.2-0.1,0.3
		l-0.1,0.3l-0.1,0.2l-0.1,0.2c0,0,0,0.1,0,0.1c0,0,0,0.1,0,0.1c0,0,0,0.1,0.1,0.1c0,0,0.1,0,0.1,0c0.1,0,0.1-0.1,0.2-0.1
		c0,0,0.1-0.1,0.1-0.2c0.1-0.1,0.2-0.3,0.2-0.4c0,0,0-0.1,0.1-0.1l0-0.1l0.1-0.2c0,0,0-0.1,0-0.1c0-0.1,0-0.1-0.1-0.1
		C118.8,78.5,118.8,78.5,118.7,78.5C118.7,78.5,118.7,78.5,118.7,78.5 M117.9,80.2c0,0-0.1,0-0.1,0c-0.1,0-0.1,0.1-0.1,0.2
		c0,0,0,0.1,0,0.1c0,0,0,0.1,0.1,0.1c0,0,0.1,0,0.1,0c0,0,0.1,0,0.1,0c0,0,0,0,0.1-0.1c0,0,0-0.1,0-0.1
		C118,80.3,118,80.2,117.9,80.2C118,80.2,117.9,80.2,117.9,80.2"/>
	<path class="st9" d="M89.1,21.3L89.1,21.3c1.3-1.2,2.6-2.3,3.9-3.3c-1.6,0.8-3.1,1.7-4.5,2.7c-3.6,2.4-6.9,5.3-9.8,8.6l-3-4.3
		l-3.2,2.7c2.6,1.8,4.6,4.4,5.9,7.3C81.3,30,84.9,25.4,89.1,21.3"/>
	<path class="st1" d="M89.1,21.4L89.1,21.4c-4.2,4-7.8,8.6-10.7,13.6c-1.3-2.9-3.3-5.4-5.9-7.3l3.2-2.7l3,4.3
		c2.9-3.3,6.2-6.2,9.8-8.6c-4.6-4.6-12-4.8-17-0.6c-2.6,2.1-4.1,5.1-4.3,8.4c-0.3,3.3,0.8,6.5,3,8.9c2.1,2.5,5.2,4,8.5,4.2
		c0.2,0,0.4,0,0.6,0l3.5,4.9l-0.2-5.2c1.9-0.5,3.8-1.4,5.3-2.7c2.6-2.1,4.1-5.1,4.3-8.4C92.4,27.1,91.3,23.8,89.1,21.4 M103.6,85.7
		c-0.7,0.1-1.4,1.1-2.1,3c-0.1,0.3-0.3,0.7-0.4,1.2c-0.1,0.1-0.1,0.3-0.2,0.5c-0.2,0.4-0.3,0.5-0.3,0.3c0-0.1,0-0.2-0.1-0.3
		c0-0.2,0-0.5,0-0.7c0-0.6,0-1,0-1.1l0-0.1c-0.1-0.7-0.4-1-1-0.9c-1.2,0.2-1.6,1.1-1.4,2.7c0.1,0.4,0.2,0.9,0.3,1.6
		c0.1,0.4,0,0.6-0.2,0.6c-0.1,0-0.2-0.1-0.3-0.4c-0.1-0.3-0.2-0.5-0.2-0.6c0-0.1,0-0.1-0.1-0.2c-0.2-0.4-0.7-0.5-1.1-0.3
		c-0.4,0.1-0.8,0.5-0.8,1c0,0.5,0.1,0.9,0.3,1.4c0.2,0.4,0.3,0.9,0.4,1.3c0.1,0.4-0.1,0.7-0.4,0.7c-0.1,0-0.3,0-0.4-0.2
		c-0.1-0.2-0.2-0.4-0.3-0.5c-0.3-0.5-0.7-0.5-1.2-0.2c-0.3,0.2-0.5,0.6-0.4,1c0,0.1,0,0.2,0,0.2c0,0.1,0.1,0.3,0.1,0.4h9.1v0
		c0-0.3-0.2-0.5-0.7-0.6c-0.1,0-0.3-0.1-0.4-0.1l-0.8-0.1c-0.2,0-0.3-0.1-0.3-0.2c0.1-0.4,0.4-0.7,0.8-0.8c0.1-0.1,0.6-0.2,1.4-0.5
		c0.5-0.1,0.9-0.3,1.3-0.6c0.4-0.3,0.6-0.8,0.5-1.2c0-0.5-0.5-0.8-1.3-0.6c-0.1,0-0.2,0-0.3,0.1c-0.2,0-0.3,0.1-0.6,0.1
		c-0.3,0-0.4,0-0.5-0.1c-0.1-0.3,0.2-0.7,0.7-1.1l0.4-0.3c0.5-0.3,0.9-0.7,1.4-1.1c1-1,1.3-1.8,0.9-2.5c-0.2-0.3-0.4-0.6-0.8-0.7
		C104.5,85.6,104,85.6,103.6,85.7"/>
	<path class="st2" d="M87.1,79.2c-0.9,0.6-0.9,2.5,0,5.7l0.5,1.8c0.2,0.8,0.5,1.5,0.8,2.2c0.3,0.7,0.5,1.2,0.6,1.6l-0.6-0.6
		c-0.6-1.1-1.4-2.2-2.4-3.1c-0.9-0.8-1.6-0.9-2.1-0.2c-0.4,0.6-0.2,1.5,0.5,2.8c0.7,1.2,1.6,2.4,2.6,3.5v0.4
		c-0.9-0.8-1.9-1.4-2.9-1.9c-1-0.4-1.6-0.2-1.8,0.6c-0.1,0.9,0.2,1.7,0.8,2.4c0.3,0.4,0.7,0.8,1.1,1.1c0.3,0.2,0.6,0.5,1,0.7H94
		c-0.1-0.1-0.1-0.3-0.1-0.4c0-0.1,0-0.2,0-0.2c-0.1-0.4,0.1-0.8,0.4-1c0.6-0.4,1-0.3,1.2,0.2c0.1,0.1,0.2,0.3,0.3,0.5
		c0.1,0.2,0.2,0.2,0.4,0.2c0.3-0.1,0.5-0.3,0.4-0.7c-0.1-0.4-0.2-0.9-0.4-1.3c-0.2-0.4-0.3-0.9-0.3-1.4c0-0.5,0.3-0.9,0.8-1
		c0.1,0,0.1-0.1,0.2-0.1c0.4-0.1,0.9,0.1,1,0.6c0.1,0.1,0.1,0.4,0.2,0.6c0.1,0.2,0.2,0.3,0.3,0.4c0.2,0,0.2-0.2,0.2-0.6
		c-0.1-0.7-0.2-1.2-0.3-1.6c-0.2-1.6,0.2-2.5,1.4-2.7c0.6-0.1,1,0.2,1,0.9c0.1-0.3,0.3-0.6,0.4-0.9c0.6-1.5,0.6-2.4,0.1-2.9
		c-0.6-0.5-1.2-0.3-2,0.5c-0.8,1-1.4,2.1-1.8,3.3l-0.6,0.8c0.1-0.5,0.3-1.1,0.4-1.8c0.2-0.7,0.4-1.5,0.5-2.2l0.2-1.8
		c0.4-3.3,0.2-5.1-0.8-5.6l-0.2-0.1c-0.1,0-0.2,0-0.3,0c-0.6,0.1-1.1,0.8-1.5,2.2c-0.5,1.6-0.8,3.2-1,4.9c-0.1,0.6-0.2,1.3-0.3,2.1
		c0.1-2.6,0.1-5.2-0.1-7.9c-0.3-3.1-0.8-4.8-1.7-5c-0.8-0.2-1.3,0.4-1.5,1.8c-0.2,1.8-0.2,3.5,0,5.3c0.2,1.7,0.4,3.6,0.8,5.8
		c-0.1-0.5-0.3-1.1-0.5-1.8c-0.4-1.6-1-3.2-1.7-4.7c-0.7-1.3-1.3-1.9-1.9-1.7C87.3,79,87.2,79.1,87.1,79.2"/>
	<path class="st10" d="M80.1,88.8h0.2v-4.3h-0.2V88.8z"/>
	<path class="st11" d="M89.2,94.1c-0.2-0.1-0.5-0.2-0.7-0.2c-0.7-0.1-1.3-0.2-2-0.2c-0.5,0-1.2,0-2.1,0c-1,0-2.1,0-3.4,0
		c-0.8,0-1.9,0-3.4,0l-6.8,0c-1.4,0-2.4,0-3.1,0c-1.1,0-2.2,0-3.1,0.1C63,93.8,61.1,94,59,94.2c-1.6,0.2-3.5,0.4-5.8,0.7
		c-1.1,0.2-1.9,0.3-2.5,0.4c-0.8,0.2-1.6,0.4-2.4,0.7c-0.1,0-0.2,0.1-0.4,0.2c-0.1,0.1-0.2,0.2-0.2,0.3c0,0.2,0.1,0.3,0.2,0.4
		c0.2,0.1,0.3,0.2,0.5,0.3c0.5,0.2,1.1,0.3,1.7,0.3c0.2,0,0.5,0.1,0.9,0.1l0.9,0.1c0.7,0.1,1.3,0.1,1.7,0.2c0.5,0.1,1.1,0.3,1.6,0.5
		c-0.1,0-0.3,0.1-0.3,0.3c0,0.1,0,0.3,0.1,0.4c0.1,0.1,0.2,0.2,0.4,0.3c0.1,0.1,0.3,0.1,0.5,0.2c0.8,0.2,1.6,0.4,2.5,0.5
		c0.7,0.1,1.6,0.2,2.5,0.3c2.5,0.2,5.1,0.3,8.1,0.3c2.2,0,4.9-0.1,8.1-0.2c3.3-0.2,6-0.3,8.1-0.6c2.7-0.3,5.3-0.7,8-1.3
		c0.3-0.1,0.5-0.1,0.6-0.2c0.2-0.1,0.4-0.2,0.6-0.3c0.2-0.1,0.3-0.3,0.4-0.4c0.1-0.2,0.1-0.4,0-0.5c-0.1-0.2-0.3-0.4-0.5-0.5
		c-0.2-0.1-0.5-0.2-0.8-0.2c-1.1-0.3-2.5-0.6-4-0.9c0.1,0,0.2,0,0.3-0.1c0.1-0.1,0.2-0.1,0.2-0.2c0.1-0.1,0.1-0.2,0.1-0.3
		c0-0.1,0-0.2-0.1-0.3C89.6,94.3,89.4,94.2,89.2,94.1"/>
	<path class="st12" d="M76.9,71.8C76.9,71.8,76.9,71.7,76.9,71.8c-0.2-0.1-0.3-0.1-0.4,0c-0.1,0-0.2,0.1-0.2,0.2c0,0,0,0,0,0.1
		c0,0,0.1,0,0.1,0c0.1,0,0.3,0,0.4,0c0,0,0.1,0,0.1,0C76.9,72,76.9,71.9,76.9,71.8"/>
	<path class="st13" d="M80.7,64.8c0-0.1,0.1-0.2,0-0.2c0-0.1-0.1-0.2-0.2-0.2l-3.4-1.8c-0.1,0-0.2-0.1-0.2,0c-0.1,0-0.2,0.1-0.2,0.2
		l-2.2,4.1l0,0c0.1,0,0.2,0,0.3,0.1l1.9-3.5l3.3,1.8l-3.1,5.6c0.2-0.1,0.3-0.1,0.5-0.1l0.4-0.7c0,0,0,0,0,0l0.3-0.5l0.3-0.6l0.4-0.7
		l0.4-0.7L80.7,64.8L80.7,64.8z M75.2,70.6c0,0.2,0,0.3-0.2,0.4c-0.1,0-0.2,0-0.2,0c-0.1,0-0.1-0.1-0.2-0.2c0-0.2,0-0.3,0.2-0.4
		C75,70.4,75.2,70.5,75.2,70.6L75.2,70.6z M76.5,71.2c0-0.1,0-0.1,0.1-0.2l-2.8-1.5c0,0.3-0.1,0.6-0.2,0.9l2.7,1.4l0,0l0,0l0,0
		c0-0.1,0-0.2,0.1-0.3c0.1-0.1,0.2-0.2,0.3-0.2C76.5,71.4,76.5,71.3,76.5,71.2z"/>
	<path class="st14" d="M75.5,66.5L75.5,66.5l0.1,0l0,0.1l0.1,0l0-0.1l0.1,0l0-0.1l-0.1,0l0.1-0.1l-0.1,0l-0.1,0.1l-0.1-0.1l-0.1,0.1
		l0.1,0.1L75.5,66.5L75.5,66.5z M76.2,66.7l-0.1,0.1l0,0.1L76.2,66.7l0.1,0.2l0.1,0l0-0.1l0.1,0l0-0.1l-0.1,0l0.1-0.1l-0.1,0
		L76.2,66.7l0-0.2L76.2,66.7C76.1,66.6,76.2,66.7,76.2,66.7z M77,66.9L77,66.9L76.9,67l-0.1-0.1L76.7,67l0.1,0.1l-0.1,0.1l0,0.1
		l0.1-0.1l0,0.1l0.1,0l0-0.1l0.1,0l0-0.1l-0.1,0C76.9,67,77,66.9,77,66.9z M77.6,67.3L77.6,67.3l-0.1,0.1l-0.1-0.1l-0.1,0.1l0.1,0.1
		l-0.1,0.1l0,0.1l0.1-0.1l0,0.1l0.1,0l0-0.1l0.1,0l0-0.1l-0.1,0L77.6,67.3L77.6,67.3z M77.9,67.8L77.9,67.8l0.1,0l0,0.1l0.1,0l0-0.1
		l0.1,0l0-0.1l-0.1,0l0.1-0.1l-0.1,0l-0.1,0.1L78,67.6l-0.1,0.1l0.1,0.1L77.9,67.8z M75.2,70.9c0-0.1,0.1-0.2,0-0.2
		c-0.1-0.2-0.2-0.3-0.4-0.2c-0.2,0-0.3,0.2-0.2,0.4c0,0.1,0.1,0.1,0.2,0.2c0.1,0,0.2,0,0.2,0C75.1,71,75.2,70.9,75.2,70.9z"/>
	<path class="st15" d="M74.1,67c-0.1,0.1-0.1,0.2,0,0.3c0,0,0.1,0.1,0.2,0.1c0,0,0.1,0,0.1,0c0.1,0,0.3-0.1,0.3-0.2l0,0h0
		c0-0.1-0.1-0.2-0.2-0.3l0,0C74.4,66.8,74.2,66.9,74.1,67 M79.4,67.9c0.1-0.1,0.1-0.3-0.1-0.4l-0.4,0.7C79.1,68.1,79.3,68,79.4,67.9
		 M78.9,69l-0.4-0.3l-0.3,0.6c0.2,0.1,0.3,0.1,0.5,0.1c0.1,0,0.3-0.1,0.4-0.2C79.1,69.2,79.1,69.1,78.9,69 M78,69.9L78,69.9
		l-0.4,0.7c-0.2,0-0.3,0.1-0.5,0.1c-0.1,0-0.2,0.1-0.3,0.1c-0.1,0.1-0.2,0.1-0.2,0.2c0,0.1-0.1,0.1-0.1,0.2c0,0.1,0.1,0.2,0.2,0.2
		c0-0.1,0-0.2,0.1-0.3l0,0c0,0,0.1,0,0.1-0.1c0.1,0,0.2-0.1,0.3,0c0.1,0,0.1,0,0.1,0.1c0,0.1,0,0.2,0,0.3c0-0.1,0-0.2,0-0.3
		c0-0.1-0.1-0.1-0.1-0.1c-0.1,0-0.2,0-0.3,0c0,0-0.1,0-0.1,0.1l0,0c-0.1,0.1-0.2,0.2-0.1,0.3c-0.1,0-0.2,0.1-0.3,0.2
		c-0.1,0.1-0.1,0.2-0.1,0.3l0,0l0.1,0.1c0,0,0,0,0-0.1c0-0.1,0.1-0.2,0.2-0.2c0.1-0.1,0.2-0.1,0.3,0c0,0,0.1,0,0.1,0.1
		c0,0.1,0,0.2,0,0.2c0.1,0,0.3-0.1,0.4-0.1c0.1-0.1,0.2-0.2,0.3-0.3c0.1-0.1,0.1-0.2,0-0.3c0.1,0,0.1,0,0.2-0.1
		c0.2-0.1,0.4-0.3,0.3-0.6C78.1,70.4,78,70.1,78,69.9"/>
	<path class="st16" d="M77.9,67.9L77.9,67.9l0.1-0.1l-0.1-0.1l0.1-0.1l0.1,0.1l0.1-0.1l0.1,0l-0.1,0.1l0.1,0l0,0.1l-0.1,0l0,0.1
		l-0.1,0l0-0.1L77.9,67.9z M77.5,67.2L77.5,67.2l0,0.2l0.1,0l0,0.1l-0.1,0l0,0.1l-0.1,0l0-0.1l-0.1,0.1l0-0.1l0.1-0.1l-0.1-0.1
		l0.1-0.1l0.1,0.1C77.5,67.3,77.5,67.2,77.5,67.2z M76.9,66.9L76.9,66.9l0,0.2l0.1,0l0,0.1l-0.1,0l0,0.1l-0.1,0l0-0.1l-0.1,0.1
		l0-0.1l0.1-0.1L76.7,67l0.1-0.1l0.1,0.1C76.9,67,76.9,66.9,76.9,66.9z M76.1,66.8l0.1-0.1l-0.1-0.1l0.1-0.1l0.1,0.1l0.1-0.1l0.1,0
		l-0.1,0.1l0.1,0l0,0.1l-0.1,0l0,0.1l-0.1,0l0-0.1L76.1,66.8C76.1,66.9,76.1,66.8,76.1,66.8z M75.6,66.6L75.6,66.6l0.1-0.1l-0.1-0.1
		l0.1-0.1l0.1,0.1l0.1-0.1l0.1,0l-0.1,0.1l0.1,0l0,0.1l-0.1,0l0,0.1l-0.1,0l0-0.1C75.7,66.5,75.6,66.6,75.6,66.6z M74.9,66.9
		c0.1,0.2,0,0.5-0.3,0.8c-0.1,0.2-0.3,0.3-0.5,0.5c-0.2,0.1-0.3,0.3-0.5,0.4c0,0.1,0.1,0.3,0.1,0.4c0,0.2,0,0.4,0,0.6l2.8,1.5
		c0.1-0.1,0.1-0.1,0.2-0.2c0.1-0.1,0.2-0.1,0.3-0.1l3.1-5.6l-3.3-1.8L74.9,66.9L74.9,66.9L74.9,66.9z"/>
	<path class="st17" d="M74.1,67.2c-0.1-0.1-0.1-0.2,0-0.3c-0.4,0.2-0.8,0.5-1.2,0.7c-0.4,0.3-0.7,0.8-0.8,1.4
		c-0.2,0.7-0.4,1.3-0.7,1.9c-0.3,0.6-3.8,3.5-10.3,8.8c-0.7,3.9,1.3,3.8,5.8-0.2c3.8-3.6,6.1-5.5,7-5.9c1-0.4,1.8-1,2.4-1.8
		c0,0,0,0.1,0.1,0.1l-0.1-0.1l0,0l-2.7-1.4v0c0,0.2-0.1,0.3-0.1,0.5c0.1-0.2,0.1-0.3,0.1-0.5v0c0.1-0.3,0.1-0.6,0.2-0.9
		c0-0.2,0-0.4,0-0.6c0-0.1,0-0.3-0.1-0.4c0.2-0.1,0.3-0.2,0.5-0.4c0.2-0.1,0.3-0.3,0.5-0.5c0.3-0.3,0.4-0.6,0.3-0.8l0,0
		c-0.1-0.1-0.2-0.1-0.3-0.1c0.1,0.1,0.2,0.2,0.2,0.3v0l0,0c-0.1,0.1-0.2,0.2-0.3,0.2c0,0-0.1,0-0.1,0C74.2,67.3,74.1,67.3,74.1,67.2
		"/>
	<path class="st18" d="M76.9,72.1L76.9,72.1c-0.1,0-0.1-0.1-0.1-0.1c0-0.1,0-0.1,0-0.2c0,0,0,0,0,0c-0.1,0-0.2,0-0.2,0
		c-0.1,0.1-0.1,0.1-0.1,0.1c0,0,0,0,0,0c0,0.1,0,0.1-0.1,0.1c-0.1,0-0.1,0-0.1-0.1v0c0,0,0-0.1,0-0.1c0-0.1,0.1-0.2,0.2-0.3
		c0.1-0.1,0.3-0.1,0.4-0.1c0.1,0,0.1,0.1,0.1,0.2C77,71.9,77,72,76.9,72.1C77,72.1,76.9,72.1,76.9,72.1"/>
	<path class="st18" d="M76.3,72.1C76.3,72.1,76.3,72.1,76.3,72.1L76.2,72c0,0,0-0.1,0-0.1c0,0,0.1,0,0.1,0h0l0.1,0.1
		C76.4,72,76.4,72.1,76.3,72.1C76.3,72.1,76.3,72.1,76.3,72.1"/>
	<path class="st19" d="M73.4,71C73.3,71,73.3,71,73.4,71c-0.1-0.1-0.1-0.1-0.1-0.1c0.1-0.2,0.1-0.3,0.1-0.5v0l0,0
		c0.1-0.3,0.1-0.6,0.2-0.9c0-0.2,0-0.4,0-0.6c0-0.1,0-0.2-0.1-0.4c0,0,0-0.1,0-0.1c0.2-0.1,0.3-0.2,0.5-0.4c0.2-0.1,0.3-0.3,0.4-0.5
		c0.1-0.1,0.2-0.3,0.3-0.5c-0.1,0.1-0.2,0.2-0.4,0.2c-0.1,0-0.1,0-0.2,0c-0.1,0-0.2,0-0.2-0.1c-0.1-0.1-0.1-0.3,0-0.4
		c0,0,0.1-0.1,0.1,0c0,0,0.1,0.1,0,0.1c-0.1,0.1,0,0.1,0,0.2c0,0,0.1,0,0.1,0c0,0,0.1,0,0.1,0c0.1,0,0.2-0.1,0.3-0.2
		c0-0.1-0.1-0.1-0.1-0.2l0,0c0,0-0.1-0.1,0-0.1c0,0,0,0,0.1,0l0,0c0.1,0,0.3,0,0.4,0.1l0,0l0,0c0.1,0.2,0,0.5-0.3,0.9
		c-0.1,0.2-0.3,0.3-0.5,0.5c-0.1,0.1-0.3,0.2-0.5,0.4c0,0.1,0.1,0.2,0.1,0.3c0,0.2,0,0.4,0,0.6c0,0.3-0.1,0.6-0.2,0.9c0,0,0,0,0,0
		C73.6,70.6,73.5,70.8,73.4,71C73.4,71,73.4,71,73.4,71 M76.2,72C76.2,72,76.2,72,76.2,72c-0.1-0.2-0.1-0.3,0-0.4
		c0.1-0.1,0.1-0.1,0.2-0.1c0-0.1-0.1-0.1-0.1-0.2c0-0.1,0-0.2,0.1-0.3c0.1-0.1,0.2-0.2,0.3-0.2c0.1-0.1,0.2-0.1,0.3-0.2
		c0.2-0.1,0.3-0.1,0.5-0.1c0.1,0,0.1,0,0.1,0.1c0,0.1,0,0.1-0.1,0.1c-0.2,0-0.3,0.1-0.5,0.1c-0.1,0-0.2,0.1-0.3,0.1
		c-0.1,0-0.2,0.1-0.2,0.2c0,0,0,0.1,0,0.1c0,0,0.1-0.1,0.1-0.1l0,0l0,0c0,0,0.1,0,0.1-0.1c0.1,0,0.2-0.1,0.3-0.1
		c0.1,0,0.2,0.1,0.2,0.2c0,0.1,0,0.2,0,0.3c0,0.1-0.1,0.1-0.1,0.1c-0.1,0-0.1-0.1-0.1-0.1c0-0.1,0-0.1,0-0.2c0,0,0,0,0,0
		c-0.1,0-0.1,0-0.2,0c0,0-0.1,0-0.1,0.1l0,0c-0.1,0.1-0.1,0.1-0.1,0.2l0,0c0,0,0,0.1-0.1,0.1l0,0c-0.1,0-0.2,0.1-0.3,0.2
		c-0.1,0.1-0.1,0.1-0.1,0.2C76.3,71.9,76.3,72,76.2,72C76.2,72,76.2,72,76.2,72"/>
	<path class="st20" d="M70.4,47.6c-0.2-0.2-0.4-0.5-0.6-0.7c-1.4-1.3-3.3-1.8-5.7-1.4c-2.8,0.5-4.6,2-5.3,4.4l-0.1,0.2
		c-0.5,1.7-0.4,3.6,0.4,5.2c0.3,0.5,0.6,1,0.9,1.4c0.5,0.6,0,1.9-1.5,4l-1.8,2.9l7.6,0.4c0.1-1.1,0.3-2.2,0.7-3.2
		c1.9,0.6,3,0.8,3.3,0.4c0.6-0.7,1.1-1.5,1.5-2.3c0.8-1.4,1.3-2.8,1.7-4.4c0.1-0.3,0.1-0.6,0.2-0.8C72.2,51.6,71.7,49.4,70.4,47.6"
		/>
	<path class="st21" d="M68,46c-0.5-0.1-1-0.1-1.4,0c-0.5,0.1-0.9,0.3-1.3,0.5c-0.8,0.5-1.5,1.2-2,2c-0.1,0.2-0.3,0.4-0.4,0.6l0,0.1
		c-0.1,0.2-0.2,0.5-0.3,0.8c-0.1,0.3-0.1,0.7-0.1,1c0,0.8,0.1,1.6,0.3,2.3c0.2,0.7,0.5,1.3,0.9,1.9l0.1,0.2c0.1,0.2,0.3,0.3,0.4,0.5
		c0.2,0.1,0.4,0.3,0.6,0.3c0.1,0,0.3,0.1,0.4,0.1c0.3,0,0.7,0,1,0c0.3-0.1,0.6-0.2,0.9-0.4c0.2-0.2,0.4-0.5,0.5-0.8l0,0
		c0.1-0.3,0.2-0.6,0.2-0.9c0.1,0.1,0.2,0.1,0.3,0.2c0.1,0,0.2,0,0.3,0c0.3,0,0.5-0.1,0.7-0.3c0.2-0.2,0.4-0.4,0.5-0.7
		c0.1-0.3,0.2-0.5,0.1-0.8c-0.1-0.3-0.2-0.5-0.4-0.6c0.3,0,0.6-0.1,0.9-0.3c0.2-0.1,0.4-0.3,0.5-0.6c0.1-0.3,0.2-0.5,0.2-0.8
		c0-0.3-0.1-0.7-0.3-1c0.2,0.1,0.5,0.1,0.7,0c0.1,0,0.2-0.1,0.3-0.2c0.1-0.1,0.2-0.2,0.3-0.4c0.1-0.2,0.2-0.4,0.2-0.7
		c0-0.3,0-0.5-0.2-0.7c-0.2-0.2-0.5-0.4-0.7-0.5c-0.3-0.1-0.6-0.2-0.9-0.3c-0.1,0-0.2-0.1-0.3-0.1c-0.3-0.1-0.7-0.2-1-0.3
		C68.7,46.2,68.4,46.1,68,46"/>
	<path class="st22" d="M67.9,45.8c-0.1,0.7-0.2,1.3-0.3,2c-0.3,1.5-0.7,3-1.2,4.4c-0.6,1.5-1.4,2.5-2.5,3.2l1,1.5
		c0.8-0.4,1.4-0.9,1.9-1.6c0.4-0.6,0.7-1.2,0.9-1.8c0.7-2,1.1-4.1,1.3-6.2c0-0.2,0.1-0.5,0.1-0.7C68.9,46.1,68.5,45.9,67.9,45.8"/>
	<path class="st20" d="M68.8,54c0-0.1,0-0.2,0-0.4c0-0.1-0.1-0.2-0.1-0.4c-0.1-0.1-0.1-0.2-0.2-0.3c-0.1-0.1-0.2-0.1-0.3-0.2
		c0,0-0.1,0-0.1,0c-0.1,0-0.2,0-0.3,0.1c-0.1,0-0.2,0.1-0.3,0.2c-0.1,0.1-0.2,0.2-0.2,0.3c0,0.1-0.1,0.2-0.2,0.3
		c-0.1,0.1-0.1,0.2-0.1,0.2c-0.1,0.1-0.1,0.3-0.1,0.4c0,0.1,0,0.3,0,0.4c0,0.2,0,0.3,0,0.5l0,0.1c0,0.2,0.1,0.4,0.2,0.6
		c0.1,0.2,0.2,0.4,0.4,0.6c0.1,0,0.1,0.1,0.2,0.1c0,0,0.1,0,0.1,0c0,0,0,0,0.1,0l0,0c0.1,0,0.2-0.1,0.2-0.2c0.2-0.3,0.3-0.5,0.4-0.8
		c0.1-0.2,0.1-0.4,0.2-0.6c0-0.1,0.1-0.2,0.1-0.3c0-0.1,0.1-0.2,0.1-0.3c0-0.1,0-0.1,0-0.2C68.8,54.2,68.8,54.1,68.8,54"/>
	<path class="st23" d="M70.4,53.4c-0.1,0-0.2-0.1-0.2-0.2c0,0,0-0.1,0.1-0.1c0.4-0.4,1-0.7,1.6-0.8c0.1,0,0.2,0.1,0.2,0.1
		s-0.1,0.2-0.1,0.2c-0.5,0.1-1,0.3-1.4,0.7C70.5,53.4,70.4,53.4,70.4,53.4"/>
	<path class="st24" d="M72.2,54.4c-0.1,0-0.2,0-0.3,0c-0.1,0-0.2,0-0.3,0c-0.1,0-0.1,0-0.1-0.1c0,0,0-0.1,0-0.1l0,0l0,0l0,0l0,0
		c0,0,0,0,0,0l0,0c0,0,0,0,0,0l0,0l0,0l-0.1,0.2c0,0.1,0,0.1-0.1,0.1l0,0c0,0,0,0,0,0c0,0,0.1,0.1,0.2,0.1c0.1,0,0.3,0,0.4,0
		c0.1,0,0.2,0,0.3,0V54.4z"/>
	<path class="st24" d="M71.6,54C71.6,54.1,71.6,54.1,71.6,54L71.6,54c0,0.1-0.1,0.1-0.1,0.1l-0.1,0.2l0,0.1c0,0,0,0,0,0c0,0,0,0,0,0
		h0c0,0,0,0,0,0c0,0,0,0,0.1,0l0,0c0,0,0,0,0,0c0,0,0,0,0,0c0,0,0,0,0,0c0.1,0,0.3,0.1,0.4,0c0,0,0.1,0,0.1,0c0,0,0,0,0,0l0,0l0,0
		l0,0v0.1l0.1,0c0.1,0,0.3-0.1,0.4-0.1l0,0c0,0,0,0,0.1,0c0,0,0,0,0.1,0l0,0l0,0l-0.2,0h0l0,0h0l-0.1,0h0c-0.1,0-0.3,0-0.4-0.1l0,0
		l0,0l0,0l-0.1,0c0,0-0.1,0-0.1-0.1C71.7,54.1,71.6,54.1,71.6,54L71.6,54L71.6,54L71.6,54z"/>
	<path class="st25" d="M68.1,82.6c-0.2,0.1-0.3,0.1-0.4,0.1c-0.2,0.1-0.3,0.1-0.4,0.2l-0.1,0.1l0,0c-0.7,0.3-1.3,0.8-1.9,1.3
		L65,84.5c0,0,0,0.1-0.1,0.1c0,0,0,0,0,0.1c0,0,0,0,0,0l0,0c-0.1,0.1-0.1,0.2-0.2,0.2c-0.2,0.2-0.3,0.5-0.3,0.9
		c0,0.3,0.1,0.6,0.2,0.8c0.1,0.3,0.3,0.5,0.6,0.7c0.2,0.2,0.5,0.3,0.8,0.4c0.3,0.1,0.6,0.2,0.8,0.3c1.4,0.3,2.6,0.3,3.7,0
		c0.5-0.1,0.9-0.4,1.2-0.8c0.2-0.2,0.3-0.4,0.3-0.7c0-0.1,0.1-0.2,0.1-0.3c0-0.2,0-0.4,0.1-0.5c0-0.1,0-0.2,0-0.4l0-0.1
		c0-0.3,0-0.6,0-0.8c0,0,0-0.1,0-0.1l0-0.1c0-0.2-0.1-0.5-0.2-0.7v0l0,0l-0.1-0.2l0,0l0,0l0,0c-0.1-0.1-0.2-0.3-0.3-0.4
		c-0.1-0.1-0.2-0.2-0.4-0.3L71,82.4l-0.2-0.1l0,0h0c-0.3-0.1-0.7-0.1-1-0.1l-0.1,0c-0.1,0-0.3,0.1-0.5,0.1
		C68.8,82.4,68.5,82.5,68.1,82.6"/>
	<path class="st14" d="M91.4,90.1c-0.3-1.4-1.5-2-3.5-1.8H72v-1.8c-0.1,0.2-0.2,0.5-0.3,0.7c-0.3,0.4-0.7,0.6-1.2,0.8
		c-1,0.3-2.2,0.3-3.7,0c-0.3-0.1-0.6-0.1-0.8-0.2c-0.3-0.1-0.5-0.2-0.8-0.4c-0.2-0.2-0.4-0.4-0.6-0.7c-0.1-0.2-0.2-0.5-0.2-0.8
		c0-0.3,0.1-0.6,0.3-0.9c0.1-0.1,0.1-0.2,0.2-0.2l0,0c0,0,0,0,0,0c-4.1,1.6-7.9,3.7-11.5,6.1c0.4,2.6,1.9,4.9,4.2,6.2
		c2.3,1.5,5.5,2.2,9.5,2.2c4.3-0.1,8.5-0.7,12.7-1.7c4.3-1.1,7.6-2.4,9.9-3.8C91.2,92.7,91.8,91.5,91.4,90.1"/>
	<path class="st13" d="M88.9,86.4L88.9,86.4l-4.6,3.5l0,0C84.2,89.9,84.1,90,84,90h0c-0.2,0.1-0.5,0.2-0.8,0.2c-0.3,0-0.6,0.1-0.9,0
		h0c-0.1,0-0.2,0-0.3-0.1l-12.9-4.4c0,0-0.1,0-0.1,0.1c0,0-0.1,0-0.1,0c0,0-0.1,0-0.1-0.1c0,0,0-0.1,0-0.1l0,0c0,0-0.1,0-0.1-0.1h0
		c0,0,0-0.1,0-0.1l0,0c0.1-0.1,0.2-0.2,0.3-0.2l0,0c0.1,0,0.1-0.1,0.2-0.1v0l4.4-2.3v0c0.2-0.1,0.5-0.2,0.8-0.3h0
		c0.2,0,0.3-0.1,0.5,0l0,0c0.1,0,0.2,0,0.2,0h0l3.9,0.8l8.1,1.8l2.2,0.5c0.1,0,0.2,0.1,0.3,0.2l0,0c0,0.1,0,0.2-0.1,0.2
		c0,0,0,0,0,0.1c0,0,0,0-0.1,0C89.1,86.2,89.1,86.2,88.9,86.4 M90.5,74.2L90.5,74.2c0.3,0,0.5,0.3,0.6,0.5c0.1,0.2,0.1,0.4,0.1,0.6
		c0,0.2,0,0.3,0,0.5l-1.3,7.5c-0.1,0.4-0.2,0.7-0.5,1v0c-0.2,0.2-0.5,0.3-0.8,0.3l-13.2-2.9c-0.2-0.1-0.4-0.3-0.5-0.5
		c-0.1-0.3-0.1-0.6-0.1-0.9v0l0.9-6.6c0-0.3,0.2-0.6,0.3-0.9l0,0c0.1-0.2,0.3-0.3,0.6-0.3L90.5,74.2 M92.1,75.6
		c0.1-0.5,0-0.9-0.1-1.4c-0.1-0.3-0.4-0.6-0.8-0.7l-14.9-1.9c-0.3,0-0.6,0.1-0.7,0.4l0,0c-0.2,0.3-0.4,0.7-0.4,1.1l-0.9,7.5
		c-0.1,0.4,0,0.8,0.1,1.2c0.1,0.2,0.1,0.3,0.3,0.4c-0.2,0-0.3,0-0.5,0.1h0c-0.3,0-0.6,0.1-0.8,0.3L69,84.9c-0.1,0-0.1,0.1-0.2,0.1
		c-0.1,0.1-0.3,0.2-0.3,0.3c-0.1,0.1-0.1,0.3,0,0.4c0,0,0.1,0,0.1,0.1c0,0-0.1,0.1-0.1,0.1c-0.1,0.1-0.1,0.3,0,0.4
		c0,0,0.1,0.1,0.2,0.1L82,90.9h0c0.1,0,0.2,0.1,0.3,0.1h0c0.3,0,0.6,0,0.9,0v0c0.3,0,0.6-0.1,0.8-0.2h0c0.1-0.1,0.2-0.1,0.4-0.2l0,0
		l4.7-3.5c0.1-0.1,0.2-0.1,0.2-0.2c0.1-0.1,0.1-0.5,0.1-1l0,0c0.3,0,0.6-0.1,0.8-0.4v0c0.3-0.3,0.5-0.8,0.5-1.2L92.1,75.6"/>
	<path class="st26" d="M88.9,86.3L88.9,86.3c0.1-0.1,0.2-0.2,0.2-0.2c0,0,0,0,0.1,0c0,0,0,0,0-0.1c0.1-0.1,0.1-0.1,0.1-0.2h0
		c-0.1-0.1-0.1-0.2-0.3-0.2l-2.2-0.5l-8.1-1.8l-3.9-0.8h0c-0.1,0-0.2,0-0.2,0l0,0c-0.2,0-0.3,0-0.5,0h0c-0.3,0-0.5,0.1-0.8,0.3l0,0
		L69,85.1h0c-0.1,0-0.1,0.1-0.2,0.1l0,0c-0.1,0.1-0.2,0.1-0.3,0.2l0,0c0,0,0,0.1,0,0.1h0c0,0,0.1,0.1,0.1,0.1l0,0c0,0,0,0.1,0,0.1
		s0.1,0.1,0.1,0.1c0,0,0.1,0,0.1,0c0,0,0.1,0,0.1-0.1L82,90.2c0.1,0,0.2,0.1,0.3,0.1h0c0.3,0,0.6,0,0.9,0c0.3,0,0.5-0.1,0.8-0.2l0,0
		c0.1-0.1,0.2-0.1,0.3-0.2l0,0C84.3,89.8,88.9,86.3,88.9,86.3z"/>
	<path class="st16" d="M83,77.7l0.1,0.3L82.7,78l0.2,0.3l-0.3,0.1l-0.2-0.3l-0.3,0.2l-0.2-0.2l0.3-0.2l-0.4-0.2l0.1-0.2l0.4,0.2
		l0-0.3l0.3,0l0,0.3C82.6,77.8,83,77.7,83,77.7z M84.7,77.7l0.3,0l0,0.3l0.4-0.1l0.1,0.3l-0.4,0.1l0.2,0.3L85,78.8l-0.2-0.3
		l-0.3,0.2l-0.2-0.2l0.3-0.2l-0.4-0.2l0.1-0.2l0.4,0.2L84.7,77.7L84.7,77.7z M80,77.1l0.3,0l0,0.3l0.4-0.1l0.1,0.2l-0.4,0.1l0.2,0.3
		l-0.3,0.1L80,77.8L79.8,78l-0.2-0.2l0.3-0.2l-0.3-0.2l0.1-0.2l0.3,0.1C79.9,77.4,80,77.1,80,77.1z M77.5,77.2l0.1-0.2l0.3,0.1
		l0-0.3l0.3,0l0,0.3l0.3-0.1l0.1,0.2l-0.4,0.1l0.2,0.3l-0.2,0.1L78,77.5l-0.3,0.2l-0.2-0.2l0.2-0.2C77.8,77.3,77.5,77.2,77.5,77.2z
		 M88.2,78.7l-0.4,0.1l0.2,0.3l-0.3,0.1l-0.2-0.3l-0.3,0.2l-0.3-0.2l0.3-0.3l-0.4-0.2l0.1-0.2l0.4,0.2l0-0.3l0.3,0l0,0.3l0.4-0.1
		L88.2,78.7L88.2,78.7z M90.5,74.2L90.5,74.2l-13.8-1.7c-0.2,0-0.5,0.1-0.6,0.3l0,0c-0.2,0.3-0.3,0.6-0.3,0.9l-0.9,6.6
		c-0.1,0.3,0,0.6,0.1,0.9c0.1,0.2,0.2,0.4,0.5,0.5l13.2,2.9c0.3,0,0.6-0.1,0.8-0.3v0c0.3-0.3,0.4-0.6,0.5-1l1.3-7.5
		c0-0.2,0-0.3,0-0.5c0-0.2-0.1-0.4-0.1-0.6C91,74.5,90.8,74.3,90.5,74.2z"/>
	<path class="st14" d="M87.8,78.7l0.4-0.1l-0.1-0.3l-0.4,0.1l0-0.3l-0.3,0l0,0.3l-0.4-0.2l-0.1,0.2l0.4,0.2l-0.3,0.3l0.3,0.2
		l0.3-0.2l0.2,0.3l0.3-0.1C88,79.1,87.8,78.7,87.8,78.7z M77.6,77l-0.1,0.2l0.3,0.2l-0.2,0.2l0.2,0.2l0.3-0.2l0.2,0.3l0.2-0.1
		l-0.2-0.3l0.4-0.1l-0.1-0.2l-0.3,0.1l0-0.3l-0.3,0l0,0.3C77.9,77.1,77.6,77,77.6,77z M80.3,77.1l-0.3,0l0,0.3l-0.3-0.1l-0.1,0.2
		l0.3,0.2l-0.2,0.2l0.2,0.2l0.3-0.2l0.2,0.3l0.3-0.1l-0.2-0.3l0.4-0.1l-0.1-0.2l-0.4,0.1C80.2,77.4,80.3,77.1,80.3,77.1z M85.1,77.8
		l-0.3,0l0,0.3l-0.4-0.2l-0.1,0.2l0.4,0.2l-0.3,0.2l0.3,0.2l0.3-0.2l0.2,0.3l0.3-0.1l-0.2-0.3l0.4-0.1L85.4,78L85,78.1L85.1,77.8
		L85.1,77.8z M83.1,78L83,77.7l-0.4,0.1l0-0.3l-0.3,0l0,0.3l-0.4-0.2l-0.1,0.2l0.4,0.2l-0.3,0.2l0.2,0.2l0.3-0.2l0.2,0.3l0.3-0.1
		L82.7,78C82.7,78,83.1,78,83.1,78z"/>
	<path class="st13" d="M70.7,84.9c-0.1,0-0.2-0.1-0.2-0.2c0-0.1,0-0.1,0.1-0.2l3.5-1.8c0.1,0,0.2,0,0.2,0.1c0,0.1,0,0.2-0.1,0.2
		L70.7,84.9C70.7,84.9,70.7,84.9,70.7,84.9"/>
	<path class="st13" d="M84.4,89C84.4,89,84.4,89,84.4,89l-13.8-4.1c-0.1,0-0.1-0.1-0.1-0.2s0.1-0.1,0.2-0.1h0l13.7,4.1
		c0.1,0,0.1,0.1,0.1,0.2C84.5,88.9,84.5,89,84.4,89"/>
	<path class="st13" d="M84.4,89c-0.1,0-0.2-0.1-0.2-0.2c0-0.1,0-0.1,0.1-0.1l3.8-2.6c0.1-0.1,0.2,0,0.2,0c0.1,0.1,0,0.2,0,0.2
		L84.4,89C84.5,89,84.4,89,84.4,89"/>
	<path class="st13" d="M86.5,87.5C86.5,87.5,86.5,87.5,86.5,87.5L72.4,84c-0.1,0-0.2-0.1-0.1-0.2c0-0.1,0.1-0.1,0.2-0.1l14.1,3.5
		c0.1,0,0.2,0.1,0.1,0.2C86.7,87.5,86.6,87.5,86.5,87.5 M87.5,86.9C87.4,86.9,87.4,86.9,87.5,86.9l-14.1-3.3c-0.1,0-0.2-0.1-0.1-0.2
		s0.1-0.1,0.2-0.1l14.1,3.3c0.1,0,0.2,0.1,0.1,0.2C87.6,86.8,87.5,86.9,87.5,86.9 M85.5,88.2C85.5,88.2,85.5,88.2,85.5,88.2l-14-3.8
		c-0.1,0-0.1-0.1-0.1-0.2c0-0.1,0.1-0.1,0.2-0.1h0l14,3.8c0.1,0,0.1,0.1,0.1,0.2C85.6,88.2,85.6,88.2,85.5,88.2"/>
	<path class="st13" d="M77.1,86.8c-0.1,0-0.2-0.1-0.2-0.2c0-0.1,0-0.1,0.1-0.1l3.1-2.3c0.1-0.1,0.2,0,0.2,0c0.1,0.1,0,0.2,0,0.2h0
		l-3.1,2.3C77.2,86.8,77.2,86.8,77.1,86.8 M73.3,85.7c-0.1,0-0.2-0.1-0.2-0.2c0-0.1,0-0.1,0.1-0.1l3.1-2.1c0.1-0.1,0.2,0,0.2,0
		c0.1,0.1,0,0.2,0,0.2L73.3,85.7C73.4,85.7,73.4,85.7,73.3,85.7 M81.4,88.1c-0.1,0-0.2-0.1-0.2-0.2c0,0,0-0.1,0.1-0.1l2.8-2.6
		c0.1-0.1,0.2-0.1,0.2,0c0.1,0.1,0.1,0.2,0,0.2l-2.8,2.6C81.5,88.1,81.4,88.1,81.4,88.1 M72.1,85.2c-0.1,0-0.2-0.1-0.2-0.2
		c0-0.1,0-0.1,0.1-0.1l3-1.9c0.1-0.1,0.2,0,0.2,0.1c0.1,0.1,0,0.2-0.1,0.2L72.1,85.2C72.2,85.2,72.1,85.2,72.1,85.2 M75.2,86.3
		c-0.1,0-0.2-0.1-0.2-0.2c0-0.1,0-0.1,0.1-0.1l2.9-2.2c0.1-0.1,0.2,0,0.2,0c0.1,0.1,0,0.2,0,0.2l-2.9,2.2
		C75.3,86.3,75.3,86.3,75.2,86.3 M79.3,87.5c-0.1,0-0.2-0.1-0.2-0.2c0-0.1,0-0.1,0.1-0.1l2.8-2.5c0.1-0.1,0.2-0.1,0.2,0
		c0.1,0.1,0.1,0.2,0,0.2l-2.8,2.5C79.4,87.5,79.3,87.5,79.3,87.5 M83.1,88.6c-0.1,0-0.2-0.1-0.2-0.2c0,0,0-0.1,0.1-0.1l2.9-2.7
		c0.1-0.1,0.2-0.1,0.2,0c0.1,0.1,0.1,0.2,0,0.2l-2.9,2.7C83.2,88.6,83.1,88.6,83.1,88.6"/>
	<path class="st13" d="M88.2,86.4C88.2,86.4,88.2,86.4,88.2,86.4l-14-3.2c-0.1,0-0.2-0.1-0.1-0.2c0-0.1,0.1-0.1,0.2-0.1l14,3.2
		c0.1,0,0.2,0.1,0.1,0.2C88.3,86.3,88.3,86.4,88.2,86.4"/>
	<path class="st27" d="M56.7,63.5c-3.2,3.4-5,7.7-5.4,12.8c-0.5,4.9,0,9.8,1.3,14.6c3.7,1.5,7.9-0.2,12.8-5.1
		c-1.3-1.3-2.1-3-2.3-4.8c-0.1-1.1,0.2-2.3,0.7-3.3c1.2,0.3,2.6-0.1,3.4-1c0.9-1,0.9-3.7-0.1-8.2c-0.7-2.6-1.7-4.3-3.1-5.2
		C60.8,61.5,58.4,61.6,56.7,63.5"/>
	<path class="st7" d="M58.1,39.9c0-0.1,0.1-0.2,0.2-0.3c-0.2,0-0.4-0.1-0.7-0.1C57.8,39.6,57.9,39.8,58.1,39.9"/>
	<path class="st21" d="M58.1,39.9L58.1,39.9c-0.6-0.4-1.2-0.7-2-0.7c-0.7,0-1.4,0.3-1.9,0.8c-0.3,0.3-0.5,0.6-0.7,1
		c-0.1,0.5-0.2,1,0,1.4c0,0.2,0.1,0.3,0.2,0.4c0,0-0.1,0-0.1,0c-0.1,0-0.2,0-0.3,0c-1.2,0-2.4,0.5-3.3,1.3c-1.8,1.7-1.8,4.5-0.1,6.3
		c0,0,0.1,0.1,0.1,0.1c0.3,0.3,0.6,0.5,0.9,0.7c0.3,0.2,0.5,0.3,0.8,0.4c-0.3,0.1-0.5,0.2-0.7,0.4c-0.8,0.7-0.8,1.9,0,2.7
		c0,0,0,0,0,0c0.6,0.6,1.6,0.7,2.4,0.3c0,0.1,0,0.2,0,0.3c0,0.2,0,0.3,0,0.5c0,1,0.4,1.9,1.1,2.5c1.5,1.4,3.8,1.4,5.2,0
		c0.3-0.3,0.6-0.7,0.8-1.1c0.1,0.3,0.4,0.6,0.6,0.8c0.5,0.5,1.3,0.8,2,0.8c0.7,0,1.5-0.3,2-0.8c0.5-0.5,0.8-1.2,0.8-1.9
		c0-0.3-0.1-0.6-0.1-0.8c0.1,0,0.2,0,0.2,0c0.2,0,0.3-0.1,0.5-0.3c0.2-0.2,0.3-0.5,0.3-0.7c0-0.3-0.1-0.5-0.3-0.7c0.1,0,0.2,0,0.3,0
		c0.4,0,0.7-0.1,1-0.4c0.3-0.3,0.4-0.6,0.4-1c0-0.4-0.2-0.7-0.4-1c-0.1-0.1-0.2-0.2-0.4-0.3c0.2-0.1,0.3-0.2,0.4-0.4
		c0.2-0.3,0.3-0.6,0.3-0.9c0-0.3-0.1-0.6-0.3-0.8c-0.1-0.1-0.1-0.1-0.2-0.2c0.2,0,0.5-0.2,0.6-0.3c0.2-0.2,0.3-0.5,0.3-0.8l0,0
		c0-0.3-0.1-0.6-0.4-0.8c-0.1-0.1-0.2-0.1-0.3-0.2c0.6,0,1.1-0.5,1.1-1.1v0c0-0.3-0.1-0.6-0.4-0.8c-0.2-0.2-0.4-0.3-0.6-0.3
		c0,0,0.1-0.1,0.1-0.1c0.3-0.3,0.5-0.7,0.4-1.1c0-0.4-0.2-0.8-0.5-1.1c-0.3-0.3-0.7-0.5-1.1-0.5c-0.1,0-0.3,0-0.4,0.1
		c-0.1-1-0.6-1.9-1.3-2.5c-0.8-0.8-2-1.3-3.1-1.3c-1.2,0-2.3,0.4-3.1,1.3c-0.2,0.2-0.4,0.4-0.6,0.7l0,0
		C58.2,39.7,58.1,39.8,58.1,39.9"/>
	<path class="st20" d="M59.7,72.1c-0.2,1.4-0.3,2.9-0.4,4.5c-0.2,3.8,0.1,7.6,1,11.3c2.9,1,6.3,1.6,10.1,1.5h6.4
		c1.6,0.2,2.9,0.1,3.7-0.5l1.1-1.3c0.8,0,1.6,0.1,2.2,0.2c0.7,0.1,0.9-0.1,0.8-0.5l-2-1.8c-0.8-0.7-1.8-0.7-3.2,0.1
		c-1,0.6-2.1,1.2-3.2,1.6L71,86.2c-2.7-0.5-4.7-1-5.9-1.5c-0.3-2.4-0.3-4.7,0-7.1l0.7-4.8C63.7,72.3,61.7,72.1,59.7,72.1"/>
	<path class="st28" d="M64.3,64.2c-1.8-0.3-3,0.8-3.7,3.5c-0.4,1.5-0.7,2.9-0.9,4.4c2,0,4,0.2,6,0.6l0.5-3.5
		C66.7,66.2,66.1,64.5,64.3,64.2"/>
</g>
</svg>
