<?xml version="1.0" encoding="utf-8"?>
<!-- Generator: Adobe Illustrator 24.2.0, SVG Export Plug-In . SVG Version: 6.00 Build 0)  -->
<svg version="1.1" id="Layer_1" xmlns="http://www.w3.org/2000/svg" xmlns:xlink="http://www.w3.org/1999/xlink" x="0px" y="0px"
	 viewBox="0 0 152 102" style="enable-background:new 0 0 152 102;" xml:space="preserve">
<style type="text/css">
	.st0{fill:#FFCC00;}
	.st1{fill:#666666;}
	.st2{fill:#DBDBDB;}
	.st3{fill:#8E8E8E;}
	.st4{fill:#E29F33;}
	.st5{fill:#E2A037;}
	.st6{fill:#F5B63F;}
	.st7{fill:#F9D684;}
	.st8{fill:#FCEABF;}
</style>
<g>
	<path class="st0" d="M124.9,26.3c-1.1-0.9-2.3-1.7-3.5-2.5c-1.6-1.1-3.4-2-5.2-2.7c-1.9-0.8-3.9-1.3-6-1.5c-1.2-0.1-2.4-0.1-3.6,0
		c-1,0-2.2,0.2-3.7,0.3c-2.1,0.2-3.3,0.4-3.7,0.4c-1.4,0.1-2.6,0.2-3.6,0.2c-1.3,0-2.6-0.1-3.9-0.3c-1.2-0.2-2.5-0.5-3.6-0.9
		c-1.5-0.6-2.9-1.3-4.3-2.1c-0.5-0.3-1.1-0.7-2-1.2c-0.9-0.6-1.6-1-2-1.2c-1.3-0.8-2.7-1.5-4.2-2.1c-0.9-0.4-1.9-0.6-2.8-0.8
		c-0.1,0-0.2,0-0.4-0.1l-0.3,0c-0.4-0.1-0.8-0.1-1.2-0.1c-0.7,0-1.5,0-2.2,0.1c0,0-0.1,0-0.1,0c-0.2,0-0.5,0.1-0.8,0.1
		c-1.1,0.2-2.2,0.5-3.3,0.9c-2.1,0.8-4,1.9-5.6,3.3c-1.6,1.3-2.9,2.9-4,4.6c-1,1.6-1.8,3.4-2.3,5.2c-0.3,1.1-0.6,2.2-0.7,3.3
		c-0.1,0.7-0.3,1.8-0.4,3.3c-0.2,1.5-0.3,2.5-0.4,3.3c-0.2,1.1-0.4,2.2-0.7,3.2c-0.1,0.4-0.3,0.8-0.4,1.2c-0.2,0.4-0.4,0.8-0.7,1.1
		c-0.3,0.4-0.6,0.7-1,1c-0.3,0.2-0.7,0.5-1.2,0.8c-1.1,0.7-1.9,1.2-2.4,1.6c-0.8,0.5-1.6,1-2.5,1.4c-1.4,0.6-2.8,1.1-4.2,1.5
		c-0.4,0.1-1.1,0.3-2.2,0.6c-0.9,0.2-1.6,0.4-2.1,0.6c-2.9,0.8-5.7,2-8.3,3.3c-0.8,0.4-1.6,0.9-2.4,1.4c-0.8,0.5-1.4,1.1-2,1.7
		c-0.5,0.5-0.9,1.1-1.2,1.7c0,0,0,0-0.1,0.1c0,0.1-0.1,0.1-0.1,0.2c-0.1,0.1-0.2,0.3-0.2,0.4c0,0.1-0.1,0.1-0.1,0.2c0,0,0,0.1,0,0.1
		c-0.2,0.4-0.4,0.9-0.6,1.4l-0.1,0.4c-0.1,0.3-0.2,0.7-0.3,1c-0.3,1.6-0.4,3.2-0.2,4.8c0,0.3,0.1,0.5,0.1,0.8
		c0.1,0.4,0.1,0.7,0.2,1.1c0.6,2.7,1.6,5.3,2.9,7.7c0.6,1.3,1.4,2.5,2.1,3.8c0.8,1.2,1.7,2.4,2.8,3.4c1.1,1.1,2.3,2,3.7,2.7
		c1.4,0.7,3,1.2,4.6,1.5c1.6,0.2,3.2,0.1,4.8-0.2c0.7-0.1,1.5-0.3,2.4-0.5c0.6-0.1,1.4-0.3,2.4-0.6c1.1-0.3,1.9-0.5,2.5-0.6
		c0.9-0.2,1.8-0.4,2.5-0.5c1.7-0.3,3.4-0.4,5-0.2c1.2,0.1,2.4,0.4,3.5,0.8c1.1,0.4,2.1,1,3,1.7c1.2,1,2.3,2.1,3.2,3.4
		c0.3,0.4,0.7,1.1,1.3,1.9c0.6,0.9,1,1.5,1.2,1.9c0.9,1.3,2,2.5,3.2,3.5c1.1,0.9,2.3,1.5,3.7,1.9c0.1,0,0.1,0,0.2,0
		c0.2,0,0.4,0.1,0.7,0.1c1,0.2,2,0.2,3,0.1c0.8-0.1,1.5-0.3,2.3-0.5c0.9-0.3,1.7-0.6,2.5-1.1c0.8-0.4,1.5-0.9,2.2-1.5
		c0.9-0.8,1.7-1.7,2.4-2.6c1-1.6,1.8-3.3,2.2-5c0.2-0.8,0.4-1.7,0.5-2.7c0.1-0.3,0.2-1.2,0.4-2.7c0.2-1.1,0.3-2,0.5-2.7
		c0.2-0.9,0.4-1.8,0.7-2.7c0.6-1.8,1.6-3.6,2.9-5c1.2-1.3,2.5-2.3,4.1-3.2c1.6-0.9,3.3-1.8,5-2.5c1.2-0.5,2.9-1.2,5.3-2.2
		c2.2-0.9,3.9-1.7,5.3-2.4c2.3-1.2,4.5-2.7,6.5-4.4c1.9-1.7,3.6-3.5,5.1-5.5c1.4-2,2.6-4,3.5-6.2c0.2-0.5,0.4-1,0.5-1.4
		c0.1-0.2,0.1-0.4,0.2-0.7c0.5-1.5,0.8-3,0.9-4.5c0.2-1.6,0.1-3.2-0.1-4.8c0-0.2-0.1-0.4-0.1-0.6c-0.1-0.5-0.2-1-0.4-1.5
		c-0.4-1.2-0.9-2.4-1.7-3.4C126.9,28.2,126,27.2,124.9,26.3L124.9,26.3z"/>
	<g>
		<path class="st1" d="M35.9,55.4l0.2,0.9l0.5-0.1L79.9,72c0.8,0.3,1.6,0.3,2.5,0.2c0.8-0.1,1.5-0.5,2-1l30.9-34.8
			c-0.1-0.3-0.1-0.5-0.2-0.5c-0.3-0.2-0.8-0.4-1.2-0.4l-32.6-5.7c0,0,0,0-0.1,0c0,0,0,0,0,0c0,0,0,0,0,0c0,0,0,0,0,0c0,0,0,0-0.1,0
			c-0.1,0-0.2,0-0.3,0c-0.3,0-0.5,0-0.8,0c-0.4,0-0.7,0.1-1.1,0.3L36.8,54.4C36.3,54.6,36,55,35.9,55.4z M60.9,59.8
			c0.5,0.1,0.9,0.2,1.4,0.4c0.4,0.2,0.9,0.4,1.2,0.7c0.7,0.5,1,0.9,1.1,1.4c0,0.2,0,0.5-0.2,0.6c-0.1,0.1-0.3,0.3-0.5,0.3
			c-0.6,0.2-1.2,0.3-1.8,0.2c-0.8-0.1-1.6-0.3-2.3-0.6c-0.6-0.3-1.1-0.6-1.5-1.1l-0.1-0.1c0-0.1-0.1-0.1-0.1-0.2
			c-0.3-0.4-0.3-0.8,0-1.2c0.1-0.1,0.2-0.2,0.2-0.2C59.1,59.7,59.9,59.6,60.9,59.8L60.9,59.8z M109.6,39.8l-24.7,27L43.9,53
			l33.7-19.8L109.6,39.8L109.6,39.8z M115.5,40.2L115.5,40.2C115.5,40.2,115.5,40.2,115.5,40.2L115.5,40.2z"/>
		<path class="st2" d="M84.9,66.8l24.7-27l-32-6.6L43.9,53C43.9,53,84.9,66.8,84.9,66.8z M62.3,60.2c-0.4-0.2-0.9-0.3-1.4-0.4
			c-1-0.2-1.8-0.1-2.4,0.3c-0.1,0.1-0.2,0.1-0.2,0.2c-0.3,0.4-0.3,0.8,0,1.2c0,0.1,0.1,0.1,0.1,0.2l0.1,0.1c0.4,0.4,0.9,0.8,1.5,1.1
			c0.7,0.3,1.5,0.6,2.3,0.6c0.6,0.1,1.2,0,1.8-0.2c0.2-0.1,0.3-0.2,0.5-0.3c0.2-0.2,0.2-0.4,0.2-0.7c0-0.5-0.4-1-1.1-1.4
			C63.2,60.6,62.8,60.3,62.3,60.2L62.3,60.2z"/>
		<path class="st3" d="M115.5,40.3L115.5,40.3l-0.2-3.8L84.3,71.2c-0.5,0.5-1.2,0.9-2,1c-0.8,0.2-1.7,0.1-2.5-0.2L36.6,56.2l-0.5,0
			l0.6,3c0.1,0.3,0.4,0.5,0.7,0.5l43,15.5c0.3,0.1,0.6,0.2,1,0.2c0.5,0.1,1,0,1.5-0.1c0.8-0.1,1.5-0.4,2-1L115.5,40.3L115.5,40.3z"
			/>
	</g>
	<path class="st4" d="M88.2,10.7l-0.4-0.6L83.2,8C83,8,82.9,7.9,82.8,7.9l-0.1-0.1l0,0c-3.2-1.2-7.2-0.5-11.4,2.3
		C62.5,16,56.3,28.9,57.4,39c0.5,4.8,2.6,8.1,5.6,9.6h0l0.1,0c0.3,0.2,4,1.9,4.3,2l1.1-0.6l1.7,0.8c2.4,0,5.2-1,8-2.9
		c8.7-5.9,14.9-18.8,13.8-28.9C91.6,15.3,90.2,12.5,88.2,10.7L88.2,10.7z M77.3,39.7c-4.8,3.2-9.2,1.3-9.8-4.2
		c-0.6-5.5,2.8-12.6,7.6-15.8c4.8-3.2,9.2-1.3,9.8,4.2C85.5,29.4,82.1,36.5,77.3,39.7z"/>
	<path class="st4" d="M66.4,14.3l11.1,4.2c0.3-0.1,0.7-0.2,1-0.3L78,12.8l-6.9-2.6C69.4,11.4,67.8,12.8,66.4,14.3L66.4,14.3z
		 M75.7,49.5L74.8,41c-3.3,1-6.1-0.5-7-4.1L57.6,33c-0.3,2-0.3,4-0.1,6c0.2,1.5,0.5,3.1,1.1,4.5l16.5,6.2
		C75.3,49.6,75.5,49.6,75.7,49.5L75.7,49.5z M67.5,34.5c0-1.8,0.3-3.6,0.8-5.3l0-0.3l-8.8-3.3c-0.7,1.7-1.2,3.5-1.6,5.2L67.5,34.5z
		 M65.5,26.6L65.4,25l-4.9-1.8c-0.2,0.4-0.4,0.8-0.6,1.2L65.5,26.6L65.5,26.6z M71.5,19.5L71.3,18l-6.1-2.2
		c-0.3,0.4-0.6,0.7-0.9,1.1L71.5,19.5z"/>
	<path class="st5" d="M76,12.2C67.3,18.1,61.1,31,62.2,41.1c1.1,10.1,9.1,13.5,17.8,7.7S95,30,93.9,19.9S84.6,6.3,76,12.2z
		 M79.1,40.5c-4.8,3.2-9.2,1.3-9.8-4.2c-0.6-5.5,2.8-12.6,7.6-15.8c4.8-3.2,9.2-1.3,9.8,4.2C87.3,30.2,83.9,37.3,79.1,40.5z"/>
	<path class="st6" d="M93.9,20c-1.1-10.1-9.1-13.6-17.8-7.7S61.1,31.2,62.2,41.3c1.1,10.1,9.1,13.5,17.8,7.7
		C88.8,43.1,95,30.1,93.9,20z M69.4,36.5c-0.6-5.5,2.8-12.6,7.6-15.8c4.8-3.2,9.2-1.3,9.8,4.2c0.6,5.5-2.8,12.6-7.6,15.8
		C74.4,43.9,70,42,69.4,36.5L69.4,36.5z"/>
	<path class="st6" d="M91.8,21.2c-1-8.8-7.9-11.8-15.5-6.7c-7.6,5.1-13,16.4-12,25.2c1,8.8,7.9,11.8,15.5,6.7
		C87.4,41.3,92.8,30,91.8,21.2z"/>
	<path class="st7" d="M90.8,21.9c-0.9-8.2-7.3-11-14.4-6.2c-7.1,4.7-12.1,15.2-11.2,23.4c0.9,8.2,7.3,11,14.4,6.2
		C86.7,40.5,91.7,30.1,90.8,21.9z"/>
	<path class="st5" d="M76.5,16c7-4.7,13.4-2,14.4,6.1c0,0,0-0.1,0-0.1c-0.9-8.2-7.3-11-14.4-6.2c-7.1,4.7-12.1,15.2-11.2,23.4
		c0,0,0,0.1,0,0.1C64.4,31.1,69.4,20.7,76.5,16z"/>
	<path class="st8" d="M72.8,21.7c0,0.1,0.1,0.2,0.2,0.3c0.1,0.1,0.3,0.1,0.4,0.1c0.2,0,0.3,0,0.4-0.1c0.4-0.1,0.7-0.4,1-0.6
		c0.2-0.2,0.4-0.4,0.6-0.7c0-0.1,0.1-0.2,0.1-0.3c0,0,0.1,0,0.1-0.1c0.2-0.3,0.3-0.5,0.3-0.8c0.1-0.2,0.1-0.4,0.1-0.6
		c0-0.2-0.1-0.4-0.3-0.5c-0.1-0.1-0.3-0.2-0.5-0.2c-0.2,0-0.4,0-0.5,0c-0.3,0.1-0.6,0.3-0.9,0.5c-0.5,0.5-0.9,1-1.2,1.7
		C72.7,20.9,72.7,21.3,72.8,21.7z M72.2,22.9c-0.1,0.2-0.1,0.3,0,0.5c0,0.1,0.1,0.2,0.2,0.2c0.1,0.1,0.2,0.1,0.3,0.1
		c0.1,0,0.3-0.1,0.3-0.2c0.1-0.1,0.1-0.2,0.1-0.3c0-0.1,0-0.2-0.1-0.3c-0.1-0.1-0.1-0.2-0.2-0.2c-0.1,0-0.2,0-0.3,0
		C72.3,22.7,72.2,22.8,72.2,22.9L72.2,22.9z M67.7,23.5c0,0.1,0.1,0.1,0.1,0.1c0.1,0,0.1,0.1,0.2,0c0.1,0,0.2,0,0.2-0.1
		c0.2-0.1,0.4-0.3,0.5-0.5c0.1-0.1,0.2-0.3,0.3-0.4c0-0.1,0-0.1,0.1-0.2c0,0,0,0,0.1-0.1c0.1-0.2,0.1-0.3,0.1-0.5c0-0.1,0-0.2,0-0.4
		c0-0.1-0.1-0.2-0.2-0.3c-0.1,0-0.2-0.1-0.3-0.1c-0.1,0-0.2,0-0.3,0.1c-0.2,0.1-0.3,0.2-0.4,0.4c-0.3,0.3-0.5,0.7-0.5,1.1
		C67.5,23,67.6,23.3,67.7,23.5z M67.4,24.2c0,0.1,0,0.2,0,0.3c0,0,0.1,0.1,0.1,0.1c0,0,0.1,0,0.2,0c0.1,0,0.1-0.1,0.2-0.1
		c0-0.1,0.1-0.1,0.1-0.2c0-0.1,0-0.1-0.1-0.2C67.8,24,67.6,24,67.5,24C67.5,24.1,67.4,24.1,67.4,24.2L67.4,24.2z"/>
	<path class="st5" d="M77,18.9c0-0.2-0.1-0.3-0.2-0.3c-0.1-0.1-0.3-0.1-0.4-0.1c0,0-0.1,0-0.1,0c-0.1,0.1-0.2,0.2-0.3,0.3
		c-0.1,0.4-0.2,0.8-0.2,1.2l0,1.3c-0.1,0.1-0.2,0.1-0.2,0.2c-0.5,0.4-1,0.9-1.4,1.4c-0.1,0.1-0.1,0.2-0.2,0.3
		c-0.5,0.8-0.8,1.6-0.9,2.4c-0.2,0.8-0.1,1.7,0.3,2.4c0.4,0.8,1.3,1.4,2.3,1.4c0,0,0.1,0,0.1,0c0,1.2,0.1,2.4,0.1,3.6
		c0,1.8,0,3.4,0,4.8l-0.3-0.1c-0.3-0.1-0.5-0.3-0.7-0.4c-0.2-0.2-0.4-0.3-0.6-0.5c-0.2-0.1-0.5-0.1-0.7,0c-0.1,0.1-0.3,0.2-0.3,0.4
		c-0.1,0.1-0.2,0.3-0.3,0.5c-0.1,0.3-0.1,0.6,0.1,0.9c0.2,0.3,0.4,0.6,0.8,0.9c0.6,0.6,1.3,1,2.2,1.2l0,0.3c0,0.6,0.1,1.1,0.1,1.7
		c0.1,0.5,0.2,0.8,0.5,0.9c0.2,0,0.4,0,0.5-0.2c0,0,0,0,0,0c0.1,0,0.1-0.1,0.1-0.1c0.1-0.1,0.2-0.3,0.2-0.4c0.1-0.3,0.1-0.6,0.1-0.9
		c0-0.3,0-0.7,0-1.1c0.3,0,0.6-0.1,0.9-0.1c0.2,0,0.5-0.1,1-0.2c0,0,0,0,0.1,0c0,0.5,0,1,0.1,1.5l0,0.2c0,0.2,0,0.3,0,0.4
		c0,0.1,0.1,0.3,0.1,0.4c0.1,0.1,0.2,0.2,0.4,0.2c0.2,0,0.4-0.1,0.5-0.2c0.1-0.1,0.2-0.2,0.2-0.3c0.2-0.4,0.3-0.8,0.2-1.2l0-0.4
		c0-0.5,0-0.9,0-1.3c0.3-0.1,0.5-0.3,0.8-0.5c0.2-0.2,0.5-0.4,0.7-0.6c0.2-0.2,0.3-0.3,0.5-0.5c0.5-0.6,0.8-1.2,1.1-1.8
		c0.3-0.7,0.6-1.4,0.7-2.2c0.1-0.7,0.2-1.5,0.1-2.2c0-0.5-0.1-0.9-0.3-1.3c0-0.1,0-0.1-0.1-0.2c-0.2-0.5-0.4-0.9-0.7-1.3
		c-0.2-0.2-0.4-0.4-0.6-0.6c-0.2-0.2-0.3-0.3-0.5-0.5c0,0-0.1-0.1-0.1-0.1c-0.4-0.3-0.9-0.5-1.5-0.6c-0.2,0-0.3-0.1-0.5-0.1
		c0-0.5,0-0.9-0.1-1.2c-0.1-1.1-0.1-1.9-0.2-2.4c0-0.6-0.1-1.1-0.1-1.6l0,0c0.1,0,0.2,0,0.4,0.1c0.1,0,0.3,0,0.4,0
		c0.3,0,0.6-0.2,0.8-0.5c0.2-0.3,0.2-0.6,0.1-0.9c0-0.3-0.1-0.6-0.3-0.8c-0.3-0.3-0.8-0.5-1.3-0.4c-0.1,0-0.2,0-0.3,0v0
		c0-0.6-0.1-1.1-0.2-1.7c0-0.2-0.1-0.5-0.3-0.7c0,0,0,0,0,0c0,0,0,0,0,0c-0.1-0.1-0.3-0.1-0.4,0c-0.2,0.1-0.3,0.3-0.3,0.5
		c-0.1,0.2-0.1,0.4-0.1,0.6c0,0.1,0,0.3,0,0.6l0.1,0.6c0,0.1,0,0.1,0,0.2c-0.6,0.2-1.2,0.4-1.8,0.7c-0.1,0-0.1,0.1-0.2,0.1
		c0-0.2,0-0.3,0-0.5c0,0,0,0,0,0c0-0.3,0-0.5,0-0.8C77.1,19.1,77.1,19,77,18.9z M77.3,22.7c0.2-0.1,0.5-0.3,0.7-0.4
		c0.4-0.1,0.7-0.2,1.1-0.3c0,1.5,0.1,3.3,0.2,5.2c-0.6,0-1,0-1.3,0c-0.2,0-0.5,0-0.7,0l0-1.9C77.4,24.2,77.3,23.3,77.3,22.7z
		 M75.3,26.2C75.3,26.2,75.3,26.1,75.3,26.2c0-0.1,0-0.2,0-0.3c0,0,0-0.1,0-0.1c0-0.5,0.2-1.1,0.5-1.6c0,0.9,0,1.8,0,2.7
		c-0.1-0.1-0.2-0.1-0.2-0.2C75.4,26.5,75.3,26.3,75.3,26.2z M78.6,29.5c0.3,0,0.5,0,0.8,0c0,0.3,0,0.6,0,0.9l0,0.4
		c0,1.3,0.1,2.7,0.1,4.2l0.1,1.7c0,0,0,0.1,0,0.1c0,0.4,0,0.8,0,1.1c-0.4,0.2-0.9,0.4-1.4,0.5c-0.2,0-0.4,0-0.6,0c0-0.1,0-0.2,0-0.3
		c-0.1-1.4-0.2-2.4-0.2-3l0-5.5C77.4,29.5,78.6,29.5,78.6,29.5z M80.9,30.9c0-0.4,0-0.8,0-1.2c0.1,0,0.2,0.1,0.3,0.1
		c0.5,0.2,0.9,0.6,1.2,1.1c0.3,0.5,0.5,1.1,0.5,1.7c0,0.6-0.1,1.2-0.3,1.8c-0.1,0.5-0.3,1-0.6,1.4c-0.2,0.4-0.4,0.7-0.7,1
		c0,0,0,0,0,0c0-0.4-0.1-0.8-0.1-1C81,34.6,80.9,33,80.9,30.9L80.9,30.9z"/>
	<path class="st6" d="M77.5,18.5c0-0.2-0.1-0.3-0.2-0.3c-0.1-0.1-0.2-0.1-0.4-0.1c0,0-0.1,0-0.1,0c-0.1,0.1-0.2,0.2-0.3,0.3
		c-0.1,0.4-0.2,0.8-0.2,1.2l0,1.3c-0.1,0.1-0.2,0.1-0.2,0.2c-0.5,0.4-1,0.9-1.4,1.4c-0.1,0.1-0.1,0.2-0.2,0.3
		c-0.5,0.8-0.8,1.6-0.9,2.4c-0.2,0.8-0.1,1.7,0.3,2.4c0.4,0.8,1.3,1.4,2.3,1.4c0,0,0.1,0,0.1,0c0,1.2,0.1,2.4,0.1,3.6
		c0,1.8,0,3.4,0,4.8l-0.3-0.1c-0.3-0.1-0.5-0.3-0.7-0.4c-0.2-0.2-0.4-0.3-0.6-0.5c-0.2-0.1-0.5-0.1-0.7,0c-0.1,0.1-0.3,0.2-0.3,0.4
		c-0.1,0.1-0.2,0.3-0.3,0.5c-0.1,0.3-0.1,0.6,0.1,0.9c0.2,0.3,0.4,0.6,0.8,0.9c0.6,0.6,1.3,1,2.2,1.2l0,0.3c0,0.6,0.1,1.1,0.1,1.7
		c0.1,0.5,0.2,0.8,0.5,0.9c0.2,0,0.4,0,0.5-0.2c0,0,0,0,0,0c0.1,0,0.1-0.1,0.1-0.1c0.1-0.1,0.2-0.3,0.2-0.4c0.1-0.3,0.1-0.6,0.1-0.9
		c0-0.3,0-0.7,0-1.1c0.3,0,0.6-0.1,0.9-0.1c0.2,0,0.5-0.1,1-0.2l0.1,0c0,0.5,0,1,0.1,1.5l0,0.2c0,0.2,0,0.3,0,0.4
		c0,0.1,0.1,0.3,0.1,0.4c0.1,0.1,0.2,0.2,0.4,0.2c0.2,0,0.4-0.1,0.5-0.2c0.1-0.1,0.2-0.2,0.2-0.3c0.2-0.4,0.3-0.8,0.2-1.2l0-0.4
		c0-0.5,0-0.9,0-1.3c0.3-0.1,0.5-0.3,0.8-0.5c0.2-0.2,0.5-0.4,0.7-0.6c0.2-0.2,0.3-0.3,0.5-0.5c0.5-0.6,0.8-1.2,1.1-1.8
		c0.3-0.7,0.6-1.4,0.7-2.2c0.1-0.7,0.2-1.5,0.1-2.2c0-0.5-0.1-0.9-0.3-1.3c0-0.1,0-0.1-0.1-0.2c-0.2-0.5-0.4-0.9-0.7-1.3
		c-0.2-0.2-0.4-0.4-0.6-0.6c-0.2-0.2-0.3-0.3-0.5-0.5c0,0-0.1-0.1-0.1-0.1c-0.4-0.3-0.9-0.5-1.5-0.6c-0.2,0-0.3-0.1-0.5-0.1
		c0-0.5,0-0.9-0.1-1.2c-0.1-1.1-0.1-1.9-0.2-2.4c0-0.6-0.1-1.1-0.1-1.6l0,0c0.1,0,0.2,0,0.4,0.1c0.1,0,0.3,0,0.4,0
		c0.3,0,0.6-0.2,0.8-0.5c0.2-0.3,0.2-0.6,0.1-0.9c0-0.3-0.1-0.6-0.3-0.8c-0.3-0.3-0.8-0.5-1.3-0.4c-0.1,0-0.2,0-0.3,0v0
		c0-0.6-0.1-1.1-0.2-1.7c0-0.2-0.1-0.5-0.3-0.7c0,0,0,0,0,0c0,0,0,0,0,0c-0.1-0.1-0.3-0.1-0.4,0c-0.2,0.1-0.3,0.3-0.3,0.5
		c-0.1,0.2-0.1,0.4-0.1,0.6c0,0.1,0,0.3,0,0.6l0.1,0.6c0,0.1,0,0.1,0,0.2c-0.6,0.2-1.2,0.4-1.8,0.7c-0.1,0-0.1,0.1-0.2,0.1
		c0-0.2,0-0.3,0-0.5c0,0,0,0,0,0c0-0.3,0-0.5,0-0.8C77.6,18.7,77.5,18.6,77.5,18.5L77.5,18.5z M77.8,22.3c0.2-0.1,0.5-0.3,0.7-0.4
		c0.4-0.1,0.7-0.2,1.1-0.3c0,1.5,0.1,3.3,0.2,5.2c-0.6,0-1,0-1.3,0.1c-0.2,0-0.5,0-0.7,0l0-1.9C77.8,23.8,77.8,23,77.8,22.3
		L77.8,22.3z M75.7,25.8C75.7,25.8,75.7,25.8,75.7,25.8c0-0.1,0-0.2,0-0.3c0,0,0-0.1,0-0.1c0-0.5,0.2-1.1,0.5-1.6c0,0.9,0,1.8,0,2.7
		c-0.1-0.1-0.2-0.1-0.2-0.2C75.9,26.1,75.8,26,75.7,25.8z M79.1,29.1c0.3,0,0.5,0,0.8,0c0,0.3,0,0.6,0,0.9l0,0.4
		c0,1.3,0.1,2.7,0.1,4.2l0.1,1.7c0,0,0,0.1,0,0.1c0,0.4,0,0.8,0,1.1c-0.4,0.2-0.9,0.4-1.4,0.5c-0.2,0-0.4,0-0.6,0c0-0.1,0-0.2,0-0.3
		c-0.1-1.4-0.2-2.4-0.2-3l0-5.5C78.2,29.1,78.6,29.1,79.1,29.1L79.1,29.1z M81.4,30.5c0-0.4,0-0.8,0-1.2c0.1,0,0.2,0.1,0.3,0.1
		c0.5,0.2,0.9,0.6,1.2,1.1c0.3,0.5,0.5,1.1,0.5,1.7c0,0.6-0.1,1.2-0.3,1.8c-0.1,0.5-0.3,1-0.6,1.4c-0.2,0.4-0.4,0.7-0.7,1
		c0,0,0,0,0,0c0-0.4-0.1-0.8-0.1-1C81.5,34.2,81.4,32.6,81.4,30.5L81.4,30.5z"/>
	<path class="st7" d="M89.1,35.6c-0.1,0-0.2,0-0.2,0.1c-0.1,0.1-0.1,0.2-0.1,0.2c0,0,0,0.1,0,0.1c0,0,0.1,0.1,0.1,0.1
		c0.1,0,0.1,0,0.2,0c0.1,0,0.1,0,0.2-0.1c0,0,0.1-0.1,0.1-0.1c0-0.1,0-0.1,0-0.2c0,0,0-0.1-0.1-0.1C89.2,35.6,89.2,35.6,89.1,35.6
		L89.1,35.6z M90.4,32.8c-0.1,0-0.1,0.1-0.1,0.1c0,0.1-0.1,0.2-0.2,0.3L90,33.4c-0.1,0.2-0.2,0.3-0.3,0.5l-0.2,0.4l-0.1,0.3
		l-0.1,0.3c0,0,0,0.1,0,0.1c0,0,0,0.1,0,0.1c0,0.1,0.1,0.1,0.1,0.1c0.1,0,0.1,0,0.2,0c0.1,0,0.3-0.1,0.3-0.2
		c0.1-0.1,0.1-0.2,0.2-0.3c0.1-0.2,0.3-0.4,0.4-0.7c0-0.1,0.1-0.1,0.1-0.2l0.1-0.2l0.1-0.3c0-0.1,0-0.1,0-0.2c0-0.1,0-0.2-0.1-0.2
		c-0.1,0-0.1-0.1-0.2-0.1C90.5,32.8,90.4,32.8,90.4,32.8L90.4,32.8z"/>
</g>
</svg>
