<?xml version="1.0" encoding="utf-8"?>
<!-- Generator: Adobe Illustrator 24.2.0, SVG Export Plug-In . SVG Version: 6.00 Build 0)  -->
<svg version="1.1" id="Layer_1" xmlns="http://www.w3.org/2000/svg" xmlns:xlink="http://www.w3.org/1999/xlink" x="0px" y="0px"
	 viewBox="0 0 180 154" style="enable-background:new 0 0 180 154;" xml:space="preserve">
<style type="text/css">
	.st0{fill:#FFCC00;}
	.st1{fill:#CCCCCC;}
	.st2{fill:#C77A7A;}
	.st3{fill:#FFFFFF;}
	.st4{fill:#E5AC98;}
	.st5{fill:#3F2202;}
	.st6{fill:#323232;}
	.st7{fill:none;}
	.st8{fill:#3E4166;}
	.st9{fill:#666666;}
	.st10{fill:#E5AB98;}
	.st11{fill:#FFBEA9;}
	.st12{fill:#F7F7F7;}
	.st13{fill:#F7C846;}
	.st14{fill:#D29C8B;}
	.st15{fill:#EDEDED;}
</style>
<g id="Symbols">
	<g id="desktop_x2F_componente_x2F_beneficios" transform="translate(-1346.000000, -549.000000)">
		<g id="Group-8" transform="translate(146.000000, 0.000000)">
			<g id="Group-5-Copy-3" transform="translate(1081.000000, 332.000000)">
				<g id="plano102" transform="translate(119.000000, 217.000000)">
					<path id="Path" class="st0" d="M24.9,18.9c1.3-0.6,2.6-1.1,4-1.6c15.1-4.5,30.8,4.4,46.1,0.5c10.2-2.6,18.7-9,28.5-12.5
						c10.8-3.9,22.8-7.3,34.2-4c11.8,3.5,24.4,16,26,27.5c1.1,7.9-4.2,14.4-4.3,22c-0.1,2.6,0.3,5.2,1,7.6
						c2.8,9.6,7.7,18.7,11.4,28.1c4.9,12.4,11.4,25.7,4.6,38.5c-5.8,11-18.6,22.5-32.4,22.7c-4.6,0.1-9.9-0.1-16.1-0.6
						c-3.5-0.2-8.8-0.7-15.9-1.3c-6.2-0.5-11.5-0.7-16-0.7c-5.2-0.1-10.5,0.3-15.6,1c-3.3,0.5-7.4,1.3-12.4,2.5
						c-1.3,0.3-3.4,0.8-6.1,1.5c-2.4,0.6-4.4,1-6.1,1.4c-4,0.9-8.2,1.5-12.3,1.8c-1.2,0.1-2.3,0.1-3.4,0.1c-3,0-5.9-0.2-8.8-0.8
						C16.1,150,9.4,138.5,7.2,123c-1.1-7.9,1-15.8,5.8-22.1c1-1.3,2.1-2.5,2.5-4.1c0.9-3.1-1.1-6.3-2.9-9.1
						C7.4,79.5,3.5,70.4,1.1,60.9C-3.6,43.2,8.8,26.7,24.9,18.9z"/>
					<rect id="Rectangle" x="109.1" y="61.7" class="st1" width="16.3" height="24.8"/>
					<g id="Layer5_0_FILL" transform="translate(71.234043, 54.382979)">
						<path id="Path_1_" class="st2" d="M11.4,13.1c-1.8-3.2-3-7.3-3.6-12.4l-7.4,14c3,1.2,6.2,2,9.4,2.5
							C12.7,17.7,13.2,16.3,11.4,13.1z"/>
					</g>
					<g id="Layer4_0_FILL" transform="translate(15.319149, 8.425532)">
						<path id="Path_2_" class="st3" d="M45.5,72.3c1.3,4.8,4.5,8.4,9.5,10.7l2.3-8.6C53.6,72.6,49.5,71.9,45.5,72.3z"/>
						<path id="Path_3_" class="st4" d="M68,34.3c1.9-6.8,1-14.2-2.7-20.3C61.8,7.8,56,3.3,49.1,1.6l0,0C42.3-0.2,35,0.8,28.9,4.3
							s-10.6,9.4-12.4,16.2l-15,56c-3.8,14.2,4.6,28.8,18.8,32.7l0,0c6.8,1.8,14.1,0.9,20.2-2.7S51.2,97.1,53,90.3l2-7.3
							c-5-2.3-8.2-5.9-9.5-10.7c4-0.4,8.1,0.3,11.8,2L68,34.3z"/>
					</g>
					<g id="Layer3_0_FILL" transform="translate(13.787234, 1.531915)">
						<path id="Path_4_" class="st5" d="M83.5,31.1c7-3.5,10-10,9-19.6c-1-9.5-6.9-13-17.7-10.4C64,3.7,56.2,4.7,51.4,4.3
							s-7.8-0.7-9.1-0.8L40,3.3c-5.8-0.4-11.7,0-17.4,1.3c-8.2,1.7-14.5,8-18.9,18.9S-1,44.8,2.8,55C6.7,65.1,12.1,70.2,19,70.2
							s11.4-2.2,13.3-6.6c-3.8-3-5.3-7.3-4.5-12.9s3.2-8.4,7.1-8.6c2.1,0.1,3.4,1.5,4,4.2c-3.8,17.8-7.2,33.8-10.3,48.1
							s-0.4,22.1,7.8,23.5c8.3,1.4,14-1.2,17.2-7.7c3.2-6.5,5.1-14.4,5.7-23.7c-3.7-0.5-6.4-1.8-8.2-4s-1.6-2.9,0.6-2.2
							c1.8,0.6,3.7,1.1,5.5,1.4c1.5,0.2,2.5,0.4,3,0.5c1-2.3,1.6-4.7,1.7-7.2c-4.6-0.8-8-0.9-10.2-0.3c-2.4,0.7-4.6,1.9-6.5,3.6
							c-2.1,1.8-2.9,0.7-2.4-3.2c0.5-4.1,1.3-8.2,2.4-12.2c1.1-4.2,5.8-24.4,8.2-32.3C66.5,34.5,76.5,34.7,83.5,31.1z"/>
					</g>
					<g id="Layer1_0_FILL" transform="translate(73.531915, 49.787234)">
						<path id="Path_5_" class="st6" d="M0.9,1C0.5,1.4,0.3,1.9,0.2,2.4C0.1,2.9,0.1,3.5,0.2,4c0,0.4,0.3,0.7,0.7,0.9
							c0.4,0.1,0.7-0.1,1-0.4c0.3-0.4,0.6-0.9,0.7-1.4c0.1-0.5,0.1-1.1,0-1.6c0-0.4-0.3-0.7-0.7-0.9C1.5,0.5,1.1,0.7,0.9,1L0.9,1z"
							/>
					</g>
					<g id="Layer1_0_FILL-2" transform="translate(73.531915, 49.787234)">
						<path id="Path_6_" class="st6" d="M0.9,1C0.5,1.4,0.3,1.9,0.2,2.4C0.1,2.9,0.1,3.5,0.2,4c0,0.4,0.3,0.7,0.7,0.9
							c0.4,0.1,0.7-0.1,1-0.4c0.3-0.4,0.6-0.9,0.7-1.4c0.1-0.5,0.1-1.1,0-1.6c0-0.4-0.3-0.7-0.7-0.9C1.5,0.5,1.1,0.7,0.9,1L0.9,1z"
							/>
					</g>
					<g id="Layer1_0_1_STROKES" transform="translate(68.936170, 40.595745)">
						<path id="Path_7_" class="st5" d="M1.9,4.8c-0.5,0-0.9-0.3-1.1-0.8s0-1,0.3-1.3c2.4-2.2,5.8-3,9-2.1c0.6,0.2,0.9,0.8,0.8,1.4
							s-0.8,1-1.4,0.8c-2.4-0.7-5-0.1-6.8,1.6C2.4,4.7,2.2,4.8,1.9,4.8z"/>
					</g>
					<path id="Path_8_" class="st7" d="M171.7,86.7c-3.7-9.3-8.6-18.4-11.4-28.1c-0.7-2.5-1-5.1-1-7.6c0.1-7.6,5.5-14.1,4.3-22
						c-1.7-11.5-14.2-24-26-27.5c-11.4-3.4-23.4,0.1-34.2,4C93.7,8.9,85.1,15.3,75,17.9c-15.2,3.9-31-5-46-0.5
						c-1.4,0.4-2.7,0.9-4,1.5C8.8,26.7-3.6,43.2,1.1,60.9c2.4,9.5,6.3,18.5,11.5,26.8l0.2,0.3c8.4-3.7,19,1.6,31.9,15.9
						c9.5,10.6,17.2,22.8,22.7,35.9C78.1,120.6,87.8,103,88,100.3c0.3-3.5,0.6-6.9,0.8-10.3c0.1-3.1,1.4-6,3.6-8.2
						c2-2,4.3-4,6.8-6.1c0.8-0.7,1.7-1.3,2.7-1.7l9.8-29.8c0.2-0.5,0.6-1,1.1-1.2c0.5-0.3,1.1-0.3,1.6-0.1l24.2,8
						c0.5,0.2,1,0.6,1.2,1.1c0.3,0.5,0.3,1.1,0.1,1.6l-6.3,19.1c1.2,0.9,1.5,1.8,1.1,2.9c-0.5,1.1-1.5,1.8-2.6,1.8l-1.7,5l2.9,1.2
						c1,0.4,1.4,1.1,1.2,1.9c-0.3,0.9-1.1,1.5-2.1,1.6c-1.2,0.2-2.3,0.1-3.5-0.2l-1.1,3.3c0.8,1.7,1.5,3.4,2.1,5.1
						c0.6,1.6,0,3.3-1.4,4.2c-0.4,0.2-0.7,0.5-1.1,0.7c0.3,0.7,0.4,1.4,0.1,2.1c-0.3,0.8-0.9,1.5-1.6,2c-0.8,0.6-1.7,1.1-2.6,1.5
						c-0.2,0.1-0.3,0.2-0.5,0.2c-0.8,0.4-1.7,0.6-2.7,0.6c-0.2,0-0.4-0.1-0.6-0.2l-0.7-0.6H119l0.7,0.6c-0.3-0.2-0.5-0.4-0.7-0.6
						c-4.6,6.2-8.4,9.8-11.5,10.8c-2.2,0.7-10.3,13.9-17.3,28.8c1.9-0.1,3.8-0.1,5.8-0.1c4.4,0,9.7,0.2,16,0.7
						c7,0.6,12.3,1,15.9,1.3c6.2,0.4,11.5,0.6,16.1,0.6c13.7-0.2,26.6-11.7,32.4-22.7C183.1,112.4,176.7,99.1,171.7,86.7z"/>
					<path id="Path_9_" class="st8" d="M99.7,93.2L99.7,93.2c0.1,2.1,0.1,4.1-0.1,6.2C99.8,97.3,99.9,95.3,99.7,93.2L99.7,93.2z"/>
					<path id="Path_10_" class="st8" d="M98.2,86.8c0.4,0.8,0.7,1.6,0.9,2.5l0,0C98.9,88.4,98.6,87.6,98.2,86.8L98.2,86.8z"/>
					<path id="Path_11_" class="st8" d="M101,83.7c-0.9,1.1-1.8,2.2-2.8,3.2c0.4,0.8,0.7,1.6,0.9,2.5L101,83.7z"/>
					<path id="Shape" class="st9" d="M119.3,104c0.5-0.7,1.1-1.2,1.8-1.6c-0.6,0-1-0.5-1.2-1.2c-0.1-0.4,0-0.9,0.2-1.3l-20.3-6.7
						l0,0c0.1,2.1,0.1,4.1-0.1,6.2l19.3,6.4l0.1,0.1h0.1l-0.1-0.1C118.7,105.2,118.8,104.5,119.3,104z M111.1,100.1
						c-0.3,1.1-1.5,1.7-2.6,1.4s-1.7-1.5-1.4-2.6s1.5-1.7,2.6-1.4c0,0,0.1,0,0.1,0C110.9,97.9,111.4,99.1,111.1,100.1L111.1,100.1z"
						/>
					<path id="Path_12_" class="st9" d="M104.1,74.2l8.4-25.6l23.9,7.9l-13.3,40.5c0.9-0.6,2-1.1,3-1.5l1.8-5.4l0,0.1l1.1-3.3
						l1.5-4.5l1.7-5l1.6-4.7l6.3-19.1c0.2-0.5,0.1-1.1-0.1-1.6c-0.2-0.5-0.7-0.9-1.2-1.1l-24.2-8c-0.5-0.2-1.1-0.1-1.6,0.1
						c-0.5,0.2-0.9,0.7-1.1,1.2l-9.8,29.8h0.1C102.7,73.6,103.5,73.7,104.1,74.2L104.1,74.2z"/>
					<polygon id="Path_13_" class="st10" points="119,105.8 119.7,106.4 119,105.8 118.9,105.7 					"/>
					<path id="Path_14_" class="st10" d="M126.1,95.5c-1,0.4-2.1,0.9-3,1.5c-0.6,0.4-1.2,0.8-1.7,1.3c-0.5,0.4-1,1-1.3,1.6
						c-0.2,0.4-0.3,0.8-0.2,1.3c0.2,0.8,0.7,1.2,1.2,1.2c-0.4-0.6-0.3-1.2,0.4-2l0.1-0.1c0.2-0.2,0.4-0.4,0.6-0.5
						c0.5-0.4,1.1-0.6,1.7-0.6c0.4,0,0.8,0.2,0.9,0.5c0.2,0.5,0.3,1.1,0.3,1.7c-0.3,0.1-0.6,0.2-0.9,0.3H124
						c-0.9,0.3-1.9,0.5-2.9,0.5c-0.7,0.4-1.4,0.9-1.8,1.6c-0.4,0.5-0.5,1.2-0.2,1.8l0.1,0.1l0.7,0.6c0-0.1,0-0.3,0-0.4
						c0.1-0.6,0.5-1.1,1-1.4c0.6-0.5,1.2-0.7,2-0.7c0.3,0.1,0.5,0.2,0.6,0.5c0.2,0.5,0.3,1,0.3,1.5c0.9-0.4,1.8-0.8,2.6-1.5
						c0.7-0.5,1.2-1.2,1.6-2c0.2-0.7,0.2-1.5-0.1-2.1c0.4-0.2,0.7-0.5,1.1-0.7c1.4-0.9,2-2.7,1.4-4.2c-0.6-1.8-1.3-3.5-2.1-5.1
						l0-0.1L126.1,95.5z"/>
					<path id="Path_15_" class="st10" d="M123.1,97c0.9-0.6,2-1.1,3-1.5C125,95.9,124,96.4,123.1,97c-0.6,0.4-1.2,0.8-1.7,1.3
						C121.9,97.9,122.5,97.4,123.1,97L123.1,97z"/>
					<path id="Path_16_" class="st10" d="M99.3,102.8c0.2-1.2,0.3-2.3,0.4-3.4v0l0,0C99.6,100.5,99.4,101.6,99.3,102.8z"/>
					<path id="Path_17_" class="st10" d="M102,73.9c0.7-0.3,1.5-0.2,2.1,0.3c0,0,0.1,0.1,0.1,0.1c0,0-0.1-0.1-0.1-0.1
						C103.5,73.7,102.7,73.6,102,73.9L102,73.9z"/>
					<path id="Path_18_" class="st10" d="M107.5,116.7c3.1-1,6.9-4.6,11.5-10.9c0.2,0.3,0.4,0.5,0.7,0.6l-0.7-0.6l-0.1-0.1
						l-19.3-6.3v0c-0.1,1.1-0.2,2.2-0.4,3.4c0.2-1.2,0.3-2.3,0.4-3.4l0,0c0.2-2.1,0.2-4.1,0.1-6.2c-0.1-1.3-0.3-2.6-0.6-3.9
						c-0.2-0.9-0.5-1.7-0.9-2.5c1-1,1.9-2.1,2.8-3.2c0.9-1.2,1.7-2.4,2.4-3.7c1.5-2.6,1.7-4.5,0.8-5.6c0,0-0.1-0.1-0.1-0.1
						c-0.6-0.5-1.4-0.7-2.1-0.3c0.8,0.2,1.5,0.9,1.6,1.7l0,0c-0.5,0.8-1.2,1.5-2,1.8c-0.3,0.1-0.6,0.2-0.9,0.3
						c-0.4,0.1-0.8-0.1-1.2-0.3c-0.5-0.4-0.6-1-0.3-1.8c-2.5,2.1-4.8,4.2-6.8,6.1C90.3,84,89,86.9,88.9,90
						c-0.2,3.4-0.5,6.8-0.8,10.3c-0.2,2.7-9.9,20.3-20.6,39.6c1.2,2.7,2.3,5.5,3.3,8.4c3.7-0.8,6.9-1.5,9.6-1.8
						c3.3-0.5,6.5-0.7,9.8-0.9C97.2,130.6,105.3,117.4,107.5,116.7z"/>
					<path id="Path_19_" class="st10" d="M120.1,99.9c-0.2,0.4-0.3,0.8-0.2,1.3C119.8,100.7,119.8,100.3,120.1,99.9
						c0.3-0.6,0.8-1.1,1.3-1.6C120.9,98.8,120.4,99.3,120.1,99.9L120.1,99.9z"/>
					<path id="Path_20_" class="st11" d="M122.1,99.9c0.5-0.4,1.1-0.6,1.7-0.6C123.2,99.3,122.6,99.5,122.1,99.9
						c-0.2,0.1-0.4,0.3-0.6,0.5C121.7,100.2,121.9,100,122.1,99.9z"/>
					<path id="Path_21_" class="st11" d="M124,101.9h0.1c0.3-0.1,0.6-0.2,0.9-0.3c0.1-0.6,0-1.2-0.3-1.7c-0.2-0.3-0.6-0.6-0.9-0.5
						c-0.6,0-1.2,0.2-1.7,0.6c-0.2,0.1-0.4,0.3-0.6,0.5l-0.1,0.1c-0.7,0.7-0.8,1.4-0.4,2C122.1,102.4,123.1,102.2,124,101.9z"/>
					<path id="Path_22_" class="st11" d="M120.7,104.5c-0.6,0.3-0.9,0.9-1,1.5c0,0.1,0,0.3,0,0.4c0-0.1,0-0.3,0-0.4
						C119.8,105.4,120.1,104.8,120.7,104.5z"/>
					<path id="Path_23_" class="st11" d="M122.6,103.8c-0.7,0-1.4,0.2-1.9,0.7c-0.6,0.3-0.9,0.9-1,1.5c0,0.1,0,0.3,0,0.4
						c0.2,0.1,0.4,0.2,0.6,0.2c0.9,0,1.8-0.2,2.7-0.6c0.2,0,0.4-0.1,0.5-0.2c0-0.5-0.1-1.1-0.3-1.5
						C123.1,104.1,122.9,103.9,122.6,103.8z"/>
					<path id="Path_24_" class="st11" d="M99.5,77.4c0.3,0.2,0.7,0.3,1.2,0.3c0.3,0,0.6-0.1,0.9-0.3c0.8-0.4,1.5-1,2-1.8l0,0
						c-0.1-0.8-0.8-1.5-1.6-1.7h-0.1c-1,0.4-1.9,1-2.7,1.7C98.8,76.2,99,77,99.5,77.4L99.5,77.4z"/>
					<path id="Path_25_" class="st11" d="M103.6,75.6L103.6,75.6c-0.1-0.8-0.8-1.5-1.6-1.7C102.8,74.1,103.5,74.8,103.6,75.6z"/>
					<path id="Path_26_" class="st1" d="M109.8,97.5c-0.7-0.3-1.5-0.1-2,0.3c-0.6,0.5-0.8,1.2-0.7,1.9c0.1,0.7,0.6,1.3,1.3,1.6l0,0
						c0,0,0.1,0,0.1,0c1.1,0.3,2.2-0.3,2.5-1.3C111.4,99.1,110.8,97.9,109.8,97.5L109.8,97.5z"/>
					<path id="Shape_1_" class="st12" d="M99.1,89.3c0.3,1.3,0.5,2.6,0.6,3.9l20.4,6.7c0.3-0.6,0.8-1.1,1.3-1.6
						c0.5-0.5,1.1-0.9,1.7-1.3l13.3-40.5l-23.9-7.9l-8.4,25.6c0,0,0.1,0.1,0.1,0.1c0.9,1.1,0.6,3-0.8,5.6c-0.7,1.3-1.5,2.5-2.4,3.7
						L99.1,89.3L99.1,89.3z M108.6,77.4l2.4-7.6c0.1-0.3,0.2-0.6,0.4-0.8c0.2-0.2,0.4-0.5,0.7-0.6c0.5-0.2,1-0.3,1.5-0.2l1.1-3.4
						c0.4-1.2,1.4-2.2,2.6-2.7c1.4-0.5,2.9-0.6,4.3-0.1l0,0c1.4,0.4,2.6,1.3,3.4,2.6c0.7,1.1,0.9,2.4,0.5,3.7l-1.1,3.4
						c0.5,0.2,0.9,0.6,1.2,1.1c0.2,0.4,0.3,0.9,0.2,1.4c0,0.2-0.1,0.3-0.1,0.4l-2.4,7.6c-0.2,0.6-0.6,1.1-1.2,1.4
						c-0.5,0.3-1.2,0.4-1.8,0.2l-10.3-3.4c-0.6-0.2-1.1-0.6-1.4-1.2C108.5,78.7,108.4,78,108.6,77.4L108.6,77.4z"/>
					<path id="Path_27_" class="st13" d="M99.1,89.3L99.1,89.3c0.3,1.3,0.5,2.6,0.6,3.9l0,0C99.6,91.9,99.4,90.6,99.1,89.3z"/>
					<path id="Path_28_" class="st3" d="M124,68c0.3-0.9,0.1-1.8-0.4-2.6c-0.3-0.4-0.6-0.8-1.1-1.1l-0.2-0.1
						c-0.2-0.1-0.4-0.2-0.6-0.3l-0.1-0.1c-0.1-0.1-0.3-0.1-0.4-0.2l0,0c-1-0.4-2-0.4-3,0c-0.9,0.3-1.6,1-1.8,1.8l-1.1,3.2l7.6,2.5
						L124,68z"/>
					<path id="Path_29_" class="st14" d="M132.5,87.1c1-0.1,1.8-0.7,2.1-1.6c0.2-0.8-0.1-1.5-1.2-1.9l-2.9-1.2l-1.5,4.5
						C130.1,87.2,131.3,87.3,132.5,87.1z"/>
					<path id="Path_30_" class="st14" d="M134.8,75.5c0.4-1,0-2-1.1-2.9l-1.6,4.7C133.3,77.2,134.3,76.5,134.8,75.5L134.8,75.5z"/>
					<path id="Path_31_" class="st15" d="M67.5,139.8c-5.6-13.1-13.2-25.2-22.7-35.9C31.9,89.7,21.3,84.4,12.9,88.1
						c1.7,2.7,3.6,5.7,2.7,8.7c-0.5,1.5-1.6,2.8-2.5,4.1c-4.8,6.3-6.9,14.3-5.8,22.1c2.2,15.5,8.9,27,24.1,29.9
						c2.9,0.6,5.9,0.8,8.8,0.8c1.1,0,2.3-0.1,3.4-0.1c4.1-0.3,8.2-0.9,12.3-1.8c1.6-0.4,3.5-0.8,5.8-1.3l0.3-0.1
						c2.7-0.7,4.7-1.2,6.1-1.5c1-0.2,1.9-0.5,2.8-0.7C69.8,145.3,68.7,142.6,67.5,139.8z"/>
					<g id="Layer4_0_FILL-2" transform="translate(108.000000, 61.276596)">
						<path id="Shape_2_" class="st9" d="M13.6,0.6L13.6,0.6C15,1,16.2,1.9,17,3.2c0.8,1.1,1,2.4,0.6,3.7l-1.1,3.4
							c1,0.4,1.6,1.4,1.5,2.5c0,0.2,0,0.3-0.1,0.4l-2.3,7.6c-0.2,0.6-0.6,1.1-1.2,1.4c-0.6,0.3-1.2,0.4-1.8,0.2L2.1,19.1
							c-0.6-0.2-1.1-0.6-1.4-1.2c-0.3-0.6-0.4-1.2-0.2-1.8l2.3-7.6C3,8.2,3.1,7.9,3.3,7.6C3.5,7.4,3.8,7.2,4,7
							c0.5-0.3,1-0.3,1.5-0.2l1.1-3.4C7,2.2,8,1.2,9.3,0.7C10.6,0.2,12.2,0.2,13.6,0.6L13.6,0.6z M13.1,2.2L13.1,2.2
							c-0.9-0.3-1.9-0.3-2.8,0l-0.2,0.1c-0.9,0.3-1.6,1-1.9,1.8l-1,3.2L15,9.7l1-3.2c0.3-0.9,0.1-1.8-0.4-2.6l0,0
							C15,3.1,14.1,2.5,13.1,2.2L13.1,2.2z"/>
					</g>
					<g id="Layer2_0_FILL" transform="translate(111.829787, 70.468085)">
						<path id="Path_32_" class="st3" d="M0.9,3.7C0.5,4.7,0.5,5.8,1,6.8C1.1,7,1.1,7.1,1.2,7.2l1-0.6c0-0.1-0.1-0.2-0.1-0.2
							c-0.7-1.5,0-3.3,1.5-4c0,0,0,0,0.1,0C4.4,2.1,5.2,2,6,2.3l0.2,0.1L5.9,3.1l1.9-0.7L6.9,0.6L6.6,1.3L6.4,1.2
							C4.2,0.4,1.8,1.5,0.9,3.7z"/>
						<path id="Path_33_" class="st3" d="M9.9,7.1c0.4-1,0.5-2.2,0-3.2c0-0.1-0.1-0.2-0.2-0.3L8.7,4.1c0,0.1,0.1,0.2,0.1,0.2
							c0.3,0.7,0.3,1.6,0,2.3S7.9,7.9,7.2,8.2c0,0,0,0-0.1,0c-0.8,0.3-1.6,0.3-2.3,0L4.6,8.2l0.3-0.7L3,8.1L3.8,10l0.3-0.8l0.2,0.1
							C6.5,10.2,9,9.2,9.9,7.1L9.9,7.1z"/>
					</g>
				</g>
			</g>
		</g>
	</g>
</g>
</svg>
