
<svg width="230px" height="339px" viewBox="0 0 230 339" version="1.1" xmlns="http://www.w3.org/2000/svg" xmlns:xlink="http://www.w3.org/1999/xlink">
    <!-- Generator: Sketch 51.3 (57544) - http://www.bohemiancoding.com/sketch -->
    <desc>Created with Sketch.</desc>
    <defs>
        <polygon id="path-1" points="0.413473684 0.00167368421 207.882105 0.00167368421 207.882105 318 0.413473684 318"></polygon>
        <polygon id="path-3" points="0 339 230 339 230 0 0 0"></polygon>
    </defs>
    <g id="Page-1" stroke="none" stroke-width="1" fill="none" fill-rule="evenodd">
        <g id="Inicio" transform="translate(-1125.000000, -2589.000000)">
            <g id="Page-1" transform="translate(1125.000000, 2589.000000)">
                <g id="Group-3" transform="translate(22.000000, 21.000000)">
                    <mask id="mask-2" fill="white">
                        <use xlink:href="#path-1"></use>
                    </mask>
                    <g id="Clip-2"></g>
                    <path d="M0.413473684,241.999674 L0.413473684,306.821463 C0.413473684,312.988989 5.46610526,318.001674 11.664,318.001674 L196.632421,318.001674 C202.847158,318.001674 207.891368,312.988989 207.891368,306.821463 L207.891368,11.1902526 C207.891368,5.01435789 202.847158,0.00167368421 196.632421,0.00167368421 L11.664,0.00167368421 C5.46610526,0.00167368421 0.413473684,5.01435789 0.413473684,11.1902526 L0.413473684,189.094516 L0.413473684,241.999674 Z" id="Fill-1" fill="#FCD603" mask="url(#mask-2)"></path>
                </g>
                <mask id="mask-4" fill="white">
                    <use xlink:href="#path-3"></use>
                </mask>
                <g id="Clip-5"></g>
                <polygon id="Fill-4" fill="#FFFFFF" mask="url(#mask-4)" points="42 250 179 250 179 49 42 49"></polygon>
                <path d="M126,286.995957 C126,295.834976 118.833165,303 110,303 C101.158746,303 94,295.834976 94,286.995957 C94,278.165024 101.158746,271 110,271 C118.833165,271 126,278.165024 126,286.995957" id="Fill-6" fill="#B5B5B5" mask="url(#mask-4)"></path>
                <path d="M201.990557,0 L18.0010661,0 C8.07493147,0 0,8.02785979 0,17.8961314 L0,194.942085 C0,198.681202 3.04904051,201.720796 6.81008224,201.720796 C10.571124,201.720796 13.628541,198.681202 13.628541,194.942085 L13.628541,17.8961314 C13.628541,15.4977667 15.5886384,13.5490953 18.0010661,13.5490953 L201.990557,13.5490953 C204.411362,13.5490953 206.371459,15.4977667 206.371459,17.8961314 L206.371459,312.103869 C206.371459,314.502233 204.411362,316.450905 201.990557,316.450905 L18.0010661,316.450905 C15.5886384,316.450905 13.628541,314.502233 13.628541,312.103869 L13.628541,247.589522 C13.628541,243.850405 10.571124,240.819138 6.81008224,240.819138 C3.04904051,240.819138 0,243.850405 0,247.589522 L0,312.103869 C0,321.97214 8.07493147,330 18.0010661,330 L201.990557,330 C211.925069,330 220,321.97214 220,312.103869 L220,17.8961314 C220,8.02785979 211.925069,0 201.990557,0" id="Fill-7" fill="#5C5C60" mask="url(#mask-4)"></path>
                <path d="M48.6532733,243.432685 L172.346727,243.432685 L172.346727,56.5673148 L48.6532733,56.5673148 L48.6532733,243.432685 Z M35,257 L186,257 L186,43 L35,43 L35,257 Z" id="Fill-8" fill="#5C5C60" mask="url(#mask-4)"></path>
                <polygon id="Fill-9" fill="#5C5C60" mask="url(#mask-4)" points="88 33 132 33 132 22 88 22"></polygon>
                <path d="M119.303242,287.495791 C119.303242,292.90883 114.90883,297.303242 109.504209,297.303242 C104.09117,297.303242 99.696758,292.90883 99.696758,287.495791 C99.696758,282.09117 104.09117,277.696758 109.504209,277.696758 C114.90883,277.696758 119.303242,282.09117 119.303242,287.495791 M86,287.495791 C86,300.451728 96.5482715,311 109.504209,311 C122.460147,311 133,300.451728 133,287.495791 C133,274.539853 122.460147,264 109.504209,264 C96.5482715,264 86,274.539853 86,287.495791" id="Fill-10" fill="#5C5C60" mask="url(#mask-4)"></path>
                <polygon id="Fill-11" fill="#5C5C60" mask="url(#mask-4)" points="78 212 89 212 89 201 78 201"></polygon>
                <polygon id="Fill-12" fill="#5C5C60" mask="url(#mask-4)" points="104 212 115 212 115 201 104 201"></polygon>
                <polygon id="Fill-13" fill="#5C5C60" mask="url(#mask-4)" points="132 212 143 212 143 201 132 201"></polygon>
                <path d="M4.29447853,222.518519 C5.15337423,222.839506 6.09815951,223 7.03435583,223 C8.83803681,223 10.6417178,222.35 11.9386503,221.074074 C12.6257669,220.512346 13.1325153,219.790123 13.4760736,218.987654 C13.8196319,218.185185 14,217.382716 14,216.5 C14,214.734568 13.2269939,213.12963 11.9386503,211.845679 C11.3288344,211.283951 10.5558282,210.802469 9.70552147,210.481481 C7.98773006,209.839506 6.00368098,209.839506 4.29447853,210.481481 C3.42699387,210.802469 2.7398773,211.283951 2.05276074,211.845679 C0.773006135,213.049383 0,214.734568 0,216.5 C0,217.382716 0.171779141,218.185185 0.515337423,218.987654 C0.858895706,219.790123 1.36564417,220.512346 2.05276074,221.074074 C2.7398773,221.716049 3.42699387,222.197531 4.29447853,222.518519" id="Fill-14" fill="#5C5C60" mask="url(#mask-4)"></path>
            </g>
        </g>
    </g>
</svg>