
<svg width="15px" height="15px" viewBox="0 0 15 15" version="1.1" xmlns="http://www.w3.org/2000/svg" xmlns:xlink="http://www.w3.org/1999/xlink">
    <!-- Generator: Sketch 51.3 (57544) - http://www.bohemiancoding.com/sketch -->
    <desc>Created with Sketch.</desc>
    <defs>
        <polygon id="path-1" points="0 0 15 0 15 14.3220339 0 14.3220339"></polygon>
    </defs>
    <g id="Page-1" stroke="none" stroke-width="1" fill="none" fill-rule="evenodd">
        <g id="Inicio" transform="translate(-1115.000000, -4508.000000)">
            <g id="Group-8-Copy-4" transform="translate(1000.000000, 4403.000000)">
                <g id="Group-3" transform="translate(115.000000, 105.000000)">
                    <mask id="mask-2" fill="white">
                        <use xlink:href="#path-1"></use>
                    </mask>
                    <g id="Clip-2"></g>
                    <path d="M10.3205474,8.73515381 L10.9850334,12.6060991 L7.49998659,10.7797345 L4.01496785,12.6060991 L4.6794258,8.73515381 L1.85886502,5.99416654 L5.75606133,5.42918753 L7.49998659,1.90506104 L9.24393988,5.42918753 L13.1411362,5.99416654 L10.3205474,8.73515381 Z M14.2317624,4.79708231 L10.1355006,4.20133711 L8.30468753,0.498207374 C7.97662211,-0.161867112 7.0261548,-0.170257889 6.69531368,0.498207374 L4.86447253,4.20133711 L0.768210797,4.79708231 C0.0336593851,4.90336549 -0.260733142,5.80677252 0.271977145,6.32420379 L3.23550055,9.20503734 L2.53456596,13.2745644 C2.40839773,14.0101838 3.18503326,14.5611502 3.83550056,14.2171284 L7.49998659,12.2956403 L11.1645007,14.2171284 C11.814968,14.5583533 12.5915754,14.0101838 12.4654072,13.2745644 L11.7644726,9.20503734 L14.7280241,6.32420379 C15.2607344,5.80677252 14.9663418,4.90336549 14.2317624,4.79708231 Z" id="Fill-1" fill="#FFD200" mask="url(#mask-2)"></path>
                </g>
            </g>
        </g>
    </g>
</svg>