
<svg width="280px" height="346px" viewBox="0 0 280 346" version="1.1" xmlns="http://www.w3.org/2000/svg" xmlns:xlink="http://www.w3.org/1999/xlink">
    <!-- Generator: Sketch 51.3 (57544) - http://www.bohemiancoding.com/sketch -->
    <desc>Created with Sketch.</desc>
    <defs>
        <polygon id="path-1" points="0.187373676 0.820219532 258.828939 0.820219532 258.828939 325.70932 0.187373676 325.70932"></polygon>
    </defs>
    <g id="Page-1" stroke="none" stroke-width="1" fill="none" fill-rule="evenodd">
        <g id="Inicio" transform="translate(-535.000000, -2000.000000)">
            <g id="Group-18" transform="translate(535.000000, 2000.000000)">
                <g id="Group-9" transform="translate(21.000000, 20.000000)">
                    <mask id="mask-2" fill="white">
                        <use xlink:href="#path-1"></use>
                    </mask>
                    <g id="Clip-8"></g>
                    <path d="M258.789521,317.91932 L249.271673,232.41792 C248.984248,229.85132 247.308976,227.64552 244.902824,226.68612 L216.7024,215.41932 C202.659673,209.81052 191.762188,198.36332 186.851339,184.07072 L177.826218,157.72412 C199.645824,141.98832 213.852794,116.39612 213.852794,87.45832 C213.852794,37.52852 171.585006,-2.50388 120.842309,1.03852 C78.4020667,4.01512 43.9440061,38.12712 40.618097,80.48012 C38.2283697,110.89392 51.597703,138.29832 73.4173091,155.49372 L66.5191273,194.73072 C65.2298242,202.09432 60.1957939,208.27712 53.2483394,211.04872 L14.1175818,226.68612 C11.7032182,227.64552 10.0361576,229.85132 9.74873333,232.41792 L6.32427879,263.19252 L1.05209697,305.16832 L0.230884848,317.91932 C-0.228993939,322.07672 3.01479394,325.70932 7.20297576,325.70932 L251.801006,325.70932 C255.989188,325.70932 259.2494,322.07672 258.789521,317.91932" id="Fill-7" fill="#FCD603" mask="url(#mask-2)"></path>
                </g>
                <path d="M5.91411043,294.157293 C7.10245399,295.359058 8.86503067,296 10.5398773,296 C12.2147239,296 13.8895706,295.359058 15.0779141,294.157293 C16.2822086,292.875409 17,291.192937 17,289.510465 C17,287.827993 16.2822086,286.145521 15.0779141,284.863638 C13.2515337,283.101048 10.4521472,282.460106 8.06748466,283.501636 C7.26993865,283.822107 6.55214724,284.302814 5.91411043,284.863638 C4.71779141,286.145521 4,287.827993 4,289.510465 C4,290.39176 4.15153374,291.192937 4.47055215,291.994114 C4.87730061,292.795291 5.35582822,293.516351 5.91411043,294.157293" id="Fill-53" fill="#5C5C60"></path>
                <path d="M133.508218,13.3694687 C177.686105,13.3694687 213.629944,49.3199455 213.629944,93.4958914 C213.629944,137.680054 177.686105,173.630531 133.508218,173.630531 C89.3221128,173.630531 53.3700562,137.680054 53.3700562,93.4958914 C53.3700562,49.3199455 89.3221128,13.3694687 133.508218,13.3694687 M133.508218,187 C185.057304,187 227,145.050929 227,93.4958914 C227,41.9490706 185.057304,0 133.508218,0 C81.950914,0 40,41.9490706 40,93.4958914 C40,145.050929 81.950914,187 133.508218,187" id="Fill-55" fill="#5C5C60"></path>
                <path d="M11.989355,275.958975 C12.2374968,275.98359 12.49391,276 12.7420518,276 C16.1250516,276 19.036582,273.472885 19.4170661,270.059638 L23.0812932,238.987606 L73.7683906,218.869142 C77.2258329,217.49892 78.8966544,213.617993 77.5153317,210.196541 C76.134009,206.775089 72.1968259,205.109491 68.7724691,206.479712 L18.0771004,226.589971 C13.3375921,228.477103 10.053849,232.776481 9.49966564,237.797892 L6.04222329,268.590957 C5.62865364,272.250352 8.30031363,275.548729 11.989355,275.958975" id="Fill-57" fill="#5C5C60"></path>
                <path d="M271.911628,323.744219 L262.410509,237.898549 C261.843891,232.843476 258.575572,228.545841 253.870177,226.66048 L203.556127,206.481355 C200.148206,205.106441 196.247574,206.777744 194.876194,210.210912 C193.504813,213.64408 195.163609,217.54653 198.596165,218.921444 L249.131936,239.380492 L258.296369,325.604881 L13.3941442,324.921541 L14.2235418,312.119199 C14.4616857,308.430807 11.677866,305.236396 7.99074199,305.005872 C4.44321958,304.70125 1.13384103,307.558107 0.895697169,311.246499 L0.0827232823,323.744219 C-0.344293304,327.613737 0.895697169,331.507954 3.48243226,334.414209 C6.08559107,337.328698 9.81377435,339 13.7144066,339 L258.296369,339 C262.197001,339 265.925184,337.320464 268.520131,334.405976 C271.115078,331.491488 272.355068,327.605504 271.911628,323.744219" id="Fill-59" fill="#5C5C60"></path>
            </g>
        </g>
    </g>
</svg>