
<svg width="294px" height="294px" viewBox="0 0 294 294" version="1.1" xmlns="http://www.w3.org/2000/svg" xmlns:xlink="http://www.w3.org/1999/xlink">
    <!-- Generator: Sketch 51.3 (57544) - http://www.bohemiancoding.com/sketch -->
    <desc>Created with Sketch.</desc>
    <defs></defs>
    <g id="Page-1" stroke="none" stroke-width="1" fill="none" fill-rule="evenodd">
        <g id="Inicio" transform="translate(-1093.000000, -1401.000000)">
            <g id="Group-2" transform="translate(1093.000000, 1400.000000)">
                <path d="M27.7668244,177.169102 C21.1338976,162.820468 17.4338,146.836907 17.4338,129.992859 C17.4338,67.8154439 67.8225317,17.4338829 129.992776,17.4338829 C192.155849,17.4338829 242.54458,67.8154439 242.54458,129.992859 C242.54458,192.155932 192.155849,242.544663 129.992776,242.544663 C97.7459951,242.544663 68.6758488,228.99198 48.1532146,207.271834" id="Fill-1" fill="#FCD603"></path>
                <path d="M201.615478,228.369561 L261.71338,282.74522 C269.020356,290.052195 280.930941,290.052195 288.237917,282.74522 C295.559234,275.416732 295.559234,263.506146 288.237917,256.199171 L229.753429,200.23161" id="Fill-3" fill="#B5B5B5"></path>
                <path d="M27.360961,177.663166 C25.1380341,176.730971 22.628278,177.304629 20.9790098,178.88219 C20.4053512,179.455849 19.9751073,180.101215 19.688278,180.818288 C19.4014488,181.535361 19.2580341,182.252434 19.2580341,183.041215 C19.2580341,183.829995 19.4014488,184.547068 19.688278,185.264141 C19.9751073,185.981215 20.4053512,186.62658 20.9790098,187.128532 C22.0546195,188.275849 23.5604732,188.849507 25.1380341,188.849507 C25.8551073,188.849507 26.6438878,188.706093 27.360961,188.419263 C28.0063268,188.132434 28.7234,187.70219 29.2253512,187.128532 C30.300961,186.052922 30.9463268,184.547068 30.9463268,183.041215 C30.9463268,181.535361 30.300961,180.029507 29.2253512,178.88219 C28.7234,178.380239 28.0063268,177.949995 27.360961,177.663166" id="Fill-14" fill="#5C5C60"></path>
                <path d="M237.146454,119.3938 C237.146454,54.1114585 184.040015,0.99784878 118.764844,0.99784878 C53.4825024,0.99784878 0.368892683,54.1114585 0.368892683,119.3938 C0.368892683,136.725459 4.03313659,153.418922 11.2468927,169.015263 C12.5949902,171.940922 16.0584537,173.210141 18.9841122,171.862044 C21.9097707,170.506776 23.186161,167.043312 21.8308927,164.117654 C15.3342098,150.06302 12.0356732,135.018824 12.0356732,119.3938 C12.0356732,60.5436049 59.9146488,12.6646293 118.764844,12.6646293 C177.607868,12.6646293 225.479673,60.5436049 225.479673,119.3938 C225.479673,178.236824 177.607868,226.108629 118.764844,226.108629 C89.0995268,226.108629 61.5424049,214.233898 41.1631854,192.664337 C38.9474293,190.326678 35.2616732,190.219117 32.9168439,192.434873 C30.5720146,194.643459 30.4716244,198.336385 32.6802098,200.674044 C55.2895268,224.602776 85.8583561,237.77541 118.764844,237.77541 C184.040015,237.77541 237.146454,184.668971 237.146454,119.3938" id="Fill-16" fill="#5C5C60"></path>
                <path d="M286.29178,252.136234 L235.501488,199.746868 C233.257049,197.430722 229.571293,197.373356 227.255146,199.617795 C224.939,201.862234 224.881634,205.555161 227.126073,207.871307 L277.980902,260.32521 C280.418951,262.756088 281.759878,266.004429 281.759878,269.467893 C281.759878,272.924185 280.418951,276.179698 277.973732,278.617746 C273.119146,283.501015 264.636171,283.55838 259.645341,278.56038 L207.241634,227.762917 C204.925488,225.518478 201.22539,225.568673 198.988122,227.88482 C196.743683,230.200966 196.80822,233.893893 199.117195,236.138332 L251.456366,286.871259 C256.088659,291.510722 262.262659,294.063502 268.84539,294.063502 C275.420951,294.063502 281.594951,291.510722 286.234415,286.871259 C290.873878,282.224624 293.426659,276.043454 293.426659,269.467893 C293.426659,262.892332 290.873878,256.711161 286.29178,252.136234" id="Fill-18" fill="#5C5C60"></path>
                <path d="M72.3737951,171.626844 C70.8822829,171.626844 69.3836,171.053185 68.2506244,169.92021 C40.385161,142.061917 40.3779902,96.7142098 68.2506244,68.8272341 C70.5237463,66.5469415 74.2095024,66.5397707 76.4969659,68.8272341 C78.7772585,71.1003561 78.7772585,74.7932829 76.4969659,77.0735756 C53.1777463,100.407137 53.1777463,138.354649 76.4969659,161.666698 C78.7772585,163.94699 78.7772585,167.639917 76.4969659,169.92021 C75.3639902,171.053185 73.8653073,171.626844 72.3737951,171.626844" id="Fill-20" fill="#FBFBFD"></path>
            </g>
        </g>
    </g>
</svg>