
<svg width="292px" height="316px" viewBox="0 0 292 316" version="1.1" xmlns="http://www.w3.org/2000/svg" xmlns:xlink="http://www.w3.org/1999/xlink">
    <!-- Generator: Sketch 51.3 (57544) - http://www.bohemiancoding.com/sketch -->
    <desc>Created with Sketch.</desc>
    <defs>
        <polygon id="path-1" points="0.22616 0.0462842489 193.62716 0.0462842489 193.62716 309.008394 0.22616 309.008394"></polygon>
        <polygon id="path-3" points="0 0.790207598 12.9478556 0.790207598 12.9478556 13.7328 0 13.7328"></polygon>
        <polygon id="path-5" points="0 316 292 316 292 0 0 0"></polygon>
    </defs>
    <g id="Page-1" stroke="none" stroke-width="1" fill="none" fill-rule="evenodd">
        <g id="Inicio" transform="translate(-529.000000, -3203.000000)">
            <g id="Page-1" transform="translate(529.000000, 3202.000000)">
                <path d="M26,144.983837 L26,158.296047 L26,310.340005 C26,314.004558 28.9989641,317 32.6427831,317 L199.357217,317 C203.008805,317 206,314.004558 206,310.340005 L206,26.6444345 C206,22.9876614 203.008805,20 199.357217,20 L32.6427831,20 C28.9989641,20 26,22.9876614 26,26.6444345 L26,103.942394 L26,117.262384 L26,144.983837 Z" id="Fill-1" fill="#FCD603"></path>
                <path d="M95.9961716,187 C77.2140525,187 62,171.780005 62,153 C62,134.21234 77.2140525,119 95.9961716,119 C114.778291,119 130,134.21234 130,153 C130,171.780005 114.778291,187 95.9961716,187" id="Fill-3" fill="#B5B5B5"></path>
                <path d="M69.5403939,152.496146 C69.5403939,137.080788 82.0807879,124.540394 97.4961462,124.540394 C112.911504,124.540394 125.459606,137.080788 125.459606,152.496146 C125.459606,167.911504 112.911504,180.459606 97.4961462,180.459606 C82.0807879,180.459606 69.5403939,167.911504 69.5403939,152.496146 M138,152.496146 C138,130.167 119.825293,112 97.4961462,112 C75.159292,112 57,130.167 57,152.496146 C57,174.825293 75.159292,193 97.4961462,193 C119.825293,193 138,174.825293 138,152.496146" id="Fill-5" fill="#5C5C60"></path>
                <g id="Group-9" transform="translate(1.000000, 1.000000)">
                    <mask id="mask-2" fill="white">
                        <use xlink:href="#path-1"></use>
                    </mask>
                    <g id="Clip-8"></g>
                    <path d="M142.59176,296.378654 C144.54956,286.807375 152.17016,265.794033 180.93656,257.208604 L180.93656,296.378654 L142.59176,296.378654 Z M12.91676,257.425957 C41.25416,266.189926 48.65636,286.846188 50.53616,296.378654 L12.91676,296.378654 L12.91676,257.425957 Z M142.69316,12.6713672 L180.93656,12.6713672 L180.93656,51.2281717 C152.60696,42.790232 144.79136,22.5453868 142.69316,12.6713672 Z M12.91676,50.9952939 L12.91676,12.6713672 L50.39576,12.6713672 C48.24296,22.4367105 40.43516,42.4642031 12.91676,50.9952939 Z M187.27796,0.0416266925 L6.57536,0.0416266925 C3.06536,0.0416266925 0.22616,2.86721092 0.22616,6.36037823 L0.22616,96.7557857 C0.22616,100.24119 3.06536,103.074537 6.57536,103.074537 C10.07756,103.074537 12.91676,100.24119 12.91676,96.7557857 L12.91676,64.1994663 C51.94016,54.014943 61.11296,24.6179994 63.24236,12.6713672 L129.86216,12.6713672 C132.01496,24.6645749 141.22676,54.2866338 180.67916,64.3469556 C180.76496,64.3702434 180.85076,64.3624808 180.93656,64.378006 L180.93656,244.066533 C180.85076,244.08982 180.76496,244.05877 180.67916,244.082058 C140.57936,254.305394 131.69516,284.796863 129.75296,296.378654 L63.36716,296.378654 C61.42496,284.843439 52.58756,254.584847 12.91676,244.229547 L12.91676,137.711232 C12.91676,134.218064 10.07756,131.39248 6.57536,131.39248 C3.06536,131.39248 0.22616,134.218064 0.22616,137.711232 L0.22616,302.689643 C0.22616,306.18281 3.06536,309.008394 6.57536,309.008394 L187.27796,309.008394 C190.78796,309.008394 193.62716,306.18281 193.62716,302.689643 L193.62716,6.36037823 C193.62716,2.86721092 190.78796,0.0416266925 187.27796,0.0416266925 Z" id="Fill-7" fill="#5C5C60" mask="url(#mask-2)"></path>
                </g>
                <g id="Group-12" transform="translate(0.000000, 109.000000)">
                    <mask id="mask-4" fill="white">
                        <use xlink:href="#path-3"></use>
                    </mask>
                    <g id="Clip-11"></g>
                    <path d="M4.05007778,13.2528 C4.76507778,13.6528 5.63896667,13.7328 6.5208,13.7328 C8.26063333,13.7328 9.84952222,13.0848 11.0411889,11.8928 C11.6767444,11.2528 12.1613556,10.5328 12.4791333,9.7328 C12.7969111,9.0128 12.9478556,8.1248 12.9478556,7.2528 C12.9478556,5.5728 12.2328556,3.8928 11.0411889,2.6928 C9.21396667,0.8528 6.43341111,0.2928 4.05007778,1.2528 C3.25563333,1.5728 2.54857778,2.0528 1.90507778,2.6928 C0.713411111,3.8928 -0.00158888889,5.5728 -0.00158888889,7.2528 C-0.00158888889,8.1248 0.165244444,9.0128 0.562466667,9.7328 C0.880244444,10.5328 1.34896667,11.2528 1.90507778,11.8928 C2.54857778,12.4448 3.25563333,12.9328 4.05007778,13.2528" id="Fill-10" fill="#5C5C60" mask="url(#mask-4)"></path>
                </g>
                <path d="M90,86.7 L90,45.2923077 C90,41.8307692 92.9267846,39 96.5039658,39 C100.081147,39 103,41.8307692 103,45.2923077 L103,86.7 C103,90.1615385 100.081147,93 96.5039658,93 C92.9267846,93 90,90.1615385 90,86.7" id="Fill-13" fill="#FEFEFF"></path>
                <path d="M90,265.7 L90,224.292308 C90,220.830769 92.9267846,218 96.5039658,218 C100.081147,218 103,220.830769 103,224.292308 L103,265.7 C103,269.161538 100.081147,272 96.5039658,272 C92.9267846,272 90,269.161538 90,265.7" id="Fill-15" fill="#FEFEFF"></path>
                <path d="M261.876945,159 L117.130834,159 C103.867432,159 93,169.803095 93,183.005159 L93,279.00258 C93,292.189166 103.859653,303 117.130834,303 L261.876945,303 C275.140347,303 286,292.189166 286,279.00258 L286,182.99742 C286,169.803095 275.140347,159 261.876945,159" id="Fill-17" fill="#FFFFFF"></path>
                <mask id="mask-6" fill="white">
                    <use xlink:href="#path-5"></use>
                </mask>
                <g id="Clip-20"></g>
                <polygon id="Fill-19" fill="#5C5C60" mask="url(#mask-6)" points="160 259 233 259 233 247 160 247"></polygon>
                <polygon id="Fill-21" fill="#5C5C60" mask="url(#mask-6)" points="160 278 185 278 185 266 160 266"></polygon>
                <path d="M119.959116,279 L145.025826,279 C147.220294,279 149,277.221512 149,275.028545 L149,249.978991 C149,247.786024 147.220294,246 145.025826,246 L119.959116,246 C117.764648,246 116.000024,247.786024 116.000024,249.978991 L116.000024,275.028545 C115.992483,277.221512 117.764648,279 119.959116,279" id="Fill-22" fill="#B5B5B5" mask="url(#mask-6)"></path>
                <path d="M121.467463,274.267899 L142.532578,274.267899 L142.532578,252.732101 L121.467463,252.732101 L121.467463,274.267899 Z M121.467463,276.490343 L121.467463,276.505994 L121.467463,276.490343 Z M144.73181,287 L119.260568,287 C116.517276,287 113.934903,285.904429 111.996207,283.91675 C110.057511,281.929071 108.992378,279.284049 109.000041,276.482517 L109.000041,250.501832 C109.000041,244.70313 113.605401,240 119.260568,240 L144.73181,240 C150.39464,240 155,244.70313 155,250.501832 L155,276.505994 C155,282.289044 150.39464,287 144.73181,287 Z" id="Fill-23" fill="#5C5C60" mask="url(#mask-6)"></path>
                <polygon id="Fill-24" fill="#B5B5B5" mask="url(#mask-6)" points="93 220 286 220 286 195 93 195"></polygon>
                <path d="M99.6162197,189.086336 L99.6162197,183.375834 C99.6162197,173.584186 107.572115,165.623622 117.358021,165.623622 L261.649733,165.623622 C271.420131,165.623622 279.38378,173.584186 279.38378,183.368075 L279.38378,189.086336 L99.6162197,189.086336 Z M279.38378,279.624166 C279.38378,289.415814 271.420131,297.376378 261.649733,297.376378 L117.358021,297.376378 C107.572115,297.376378 99.6162197,289.415814 99.6162197,279.624166 L99.6162197,225.77786 L279.38378,225.77786 L279.38378,279.624166 Z M99.6162197,213.154238 L279.38378,213.154238 L279.38378,201.709958 L99.6162197,201.709958 L99.6162197,213.154238 Z M261.649733,153 L117.358021,153 C100.616522,153 87,166.616753 87,183.375834 L87,189.086336 L87,225.77786 L87,279.624166 C87,296.375488 100.616522,310 117.358021,310 L261.649733,310 C278.383478,310 292,296.375488 292,279.624166 L292,225.77786 L292,189.086336 L292,183.368075 C292,166.616753 278.383478,153 261.649733,153 Z" id="Fill-25" fill="#5C5C60" mask="url(#mask-6)"></path>
            </g>
        </g>
    </g>
</svg>