<?xml version="1.0" encoding="utf-8"?>
<!-- Generator: Adobe Illustrator 18.1.1, SVG Export Plug-In . SVG Version: 6.00 Build 0)  -->
<svg version="1.1" id="Layer_1" xmlns="http://www.w3.org/2000/svg" xmlns:xlink="http://www.w3.org/1999/xlink" x="0px" y="0px"
	 viewBox="0 0 71.6 58.8" enable-background="new 0 0 71.6 58.8" xml:space="preserve">
<path fill="#FFFFFF" d="M71.3,39.3L71.3,39.3c0-0.1-3.2-8.9-3.2-8.9c-0.2-0.5-0.4-0.9-0.7-1.2c1.2-0.3,2.2-1,2.8-2
	c0.3-0.5,0.5-1.1,0.5-2c0-0.6-0.1-1.2-0.4-2l-2.9-7.3c-0.8-1.6-1.8-2.9-4-3.4c0.4-1.1,0.3-2.4-0.4-3.5l0.2,0.4l-2.6-6l-0.1-0.1
	c-1.4-2.4-3.2-2.7-4.4-2.9c-4-0.6-12.7-0.5-19.9,0.2c-3.3,0.3-7,0.8-11.4,1.6c-3.3,0.7-7.7,1.6-12.3,3c-1.6,0.5-2.8,1.4-3.4,2.6
	C8.8,8.3,8.6,9,8.6,9.8c0,0.5,0.1,1.1,0.3,1.8l2.3,6.6c0.2,0.5,0.6,1.4,1.4,2.2c-2.1,0.7-8.4,2.9-8.4,2.9c-2.6,1-4.3,3.3-4.3,5.7
	c0,0.4,0,0.7,0.1,1.1c0,0.1,2.5,9.9,2.5,9.9C3,41.4,4,42.5,5.3,43.2c1.5,0.7,3.3,0.8,5,0.1c3.9-1.5,8.1-2.9,12.5-4.2
	c-0.3,1.1-0.2,2.3,0.2,3.5c0,0,4.2,12,4.2,12c1.1,3.2,4.4,4.9,7.7,3.8l20.2-7.6L65.2,47l3.2-1.2C71.1,44.6,72.2,42.2,71.3,39.3"/>
<path fill="#E21F26" d="M68.7,40.1c0.4,1.3,0.3,2.5-1.3,3.1c-1.9,0.8-3.3,1.3-5.6,2.2c-1.2,0.4-2.3,0.9-3.6,1.4
	c-1.3,0.5-2.6,1-4,1.5C48.5,50.5,42,52.9,34,55.9c-1.7,0.6-3.5-0.3-4.1-2.2c-1.3-4.2-2.8-8.3-4.3-12.1c-0.6-1.7,0.3-3.3,2-3.8
	c4.1-1.2,7.8-2.1,11.3-2.9c3.5-0.9,6.6-1.6,9.6-2.3c6-1.4,9.8-2.2,13.9-2.9c2-0.3,2.7,0.5,3.2,1.8C66.7,34.2,67.7,37.1,68.7,40.1"/>
<path fill="#FED307" d="M64.8,16.9c-0.6-1.1-1.1-1.8-3.1-1.8C56,15,49.4,15.5,39.4,16.9c-5,0.7-10.4,1.8-16.3,3.2
	c-3,0.8-5.9,1.5-8.9,2.5c-3.1,1-6,2-8.9,3.1c-1.7,0.7-2.8,2.2-2.5,3.6c0.8,3.1,1.5,6.2,2.4,9.8c0.4,1.6,2.2,2.3,4.1,1.5
	c6.5-2.5,13.4-4.6,19.7-6.3c6.4-1.7,11.9-2.9,16.9-4.1c10-2.2,15.2-2.9,20.5-3.8c1.2-0.2,1.8-1,1.2-2.3L64.8,16.9z"/>
<path fill="#1E4282" d="M58.1,4.7c-0.8-1.3-1.5-1.4-2.5-1.6C52,2.5,43.5,2.6,36.5,3.4C32.9,3.7,29.3,4.2,25.3,5
	c-4,0.8-7.9,1.7-12.1,2.9c-1.4,0.4-2.2,1.2-1.7,2.8c0.7,2.2,1.4,4,2.3,6.6c0.6,1.7,2.1,1.7,3.6,1.2c4.6-1.4,9.1-2.4,13.4-3.3
	c4.3-0.9,8.2-1.4,11.9-1.9c7.4-0.9,13.7-1.1,17.3-1.1c0.8,0,1.4-0.8,0.8-1.7L58.1,4.7z"/>
</svg>
