<?xml version="1.0" encoding="utf-8"?>
<!-- Generator: Adobe Illustrator 18.1.1, SVG Export Plug-In . SVG Version: 6.00 Build 0)  -->
<svg version="1.1" id="Layer_1" xmlns="http://www.w3.org/2000/svg" xmlns:xlink="http://www.w3.org/1999/xlink" x="0px" y="0px"
	 viewBox="0 0 188.4 45.2" enable-background="new 0 0 188.4 45.2" xml:space="preserve">
<path fill="#1E4282" d="M5.7,35.7c-0.3,0-1.3,0-1.7,0v5.8c0.5,0.1,1.2,0.1,2.2,0.1c2.6,0,3.9-1.2,3.9-3.1C10,36.5,8.2,35.7,5.7,35.7
	 M6.2,27.1c-0.8,0-1.6,0-2.3,0.1v5.4c0.5,0,1,0,1.6,0c2.7,0,4.1-1.1,4.1-3C9.6,28.2,8.7,27.1,6.2,27.1 M6,45c-1.2,0-3.4-0.1-6-0.1
	V24c1.7-0.1,4.4-0.2,6.9-0.2c4.4,0,6.9,1.8,6.9,5.2c0,2.1-1.3,3.9-3.2,4.7v0.1c2.4,0.5,3.6,2.6,3.6,4.7C14.2,41.5,12.1,45,6,45"/>
<path fill="#1E4282" d="M24.3,37.7C20,37.7,19,39,19,40.3c0,1,0.7,1.7,1.9,1.7c2,0,3.4-1.9,3.4-3.9V37.7z M24.6,44.9
	c0-0.9,0-1.9,0.2-2.8l0,0C24,44,22,45.2,19.7,45.2c-2.9,0-4.5-1.7-4.5-4.3c0-3.9,3.7-5.9,9.1-5.9v-0.9c0-1.7-0.8-2.6-3.1-2.6
	c-1.4,0-3.3,0.5-4.7,1.3l-0.3-3.5c1.6-0.6,3.6-1,5.7-1c5.1,0,6.5,2.1,6.5,5.6l0.1,10.9L24.6,44.9z"/>
<path fill="#1E4282" d="M154.3,37.7c-4.3,0-5.2,1.3-5.2,2.6c0,1,0.7,1.7,1.9,1.7c2,0,3.4-1.9,3.4-3.9V37.7z M154.6,44.9
	c0-0.9,0-1.9,0.2-2.8l0,0c-0.8,1.8-2.7,3.1-5.1,3.1c-2.9,0-4.5-1.7-4.5-4.3c0-3.9,3.7-5.9,9.1-5.9v-0.9c0-1.7-0.8-2.6-3.1-2.6
	c-1.4,0-3.3,0.5-4.7,1.3l-0.3-3.5c1.6-0.6,3.6-1,5.7-1c5.1,0,6.5,2.1,6.5,5.6l0.1,10.9L154.6,44.9z"/>
<path fill="#1E4282" d="M53.1,45.2c-4.4,0-7.1-2.3-7.1-7.8c0-5,2.6-8.9,8.2-8.9c1.1,0,2.2,0.2,3.2,0.5L57,32.5
	c-0.9-0.3-1.8-0.6-2.9-0.6c-2.6,0-3.9,2-3.9,5c0,2.8,1,4.7,3.7,4.7c1.1,0,2.3-0.2,3.1-0.7l0.3,3.5C56.3,44.9,54.8,45.2,53.1,45.2"/>
<path fill="#1E4282" d="M66.2,31.9c-1.8,0-3.6,1.4-3.6,4.7c0,3.3,1.2,5,3.5,5c2,0,3.5-1.7,3.5-4.9C69.6,33.6,68.6,31.9,66.2,31.9
	 M65.8,45.2c-4.5,0-7.4-2.4-7.4-8.1c0-5,3.3-8.7,8.1-8.7c4.5,0,7.4,2.5,7.4,8.1C73.8,41.6,70.5,45.2,65.8,45.2"/>
<path fill="#1E4282" d="M89.1,31.9c-1.8,0-3.6,1.4-3.6,4.7c0,3.3,1.2,5,3.5,5c2,0,3.5-1.7,3.5-4.9C92.6,33.6,91.5,31.9,89.1,31.9
	 M88.7,45.2c-4.5,0-7.4-2.4-7.4-8.1c0-5,3.3-8.7,8.1-8.7c4.5,0,7.4,2.5,7.4,8.1C96.7,41.6,93.4,45.2,88.7,45.2"/>
<path fill="#1E4282" d="M141.6,26.7c-1.4,0-2.5-1.1-2.5-2.5c0-1.4,1.1-2.5,2.5-2.5c1.4,0,2.5,1.1,2.5,2.5
	C144.2,25.5,143,26.7,141.6,26.7 M143.7,44.9h-4.3V28.8c2-0.3,2-0.2,4.3-0.1V44.9z"/>
<path fill="#1E4282" d="M39.7,28.4c-2.6,0-4.4,1.3-5.4,3.3l0,0l0.1-2.9c-1.4,0.1-2.7,0.4-3.8,0.9v15.3h4.1v-7.8
	c0-2.8,1.6-5.2,3.7-5.2c1.5,0,1.9,1,1.9,2.7v10.3h4V33.6C44.4,30.7,43.3,28.4,39.7,28.4"/>
<path fill="#1E4282" d="M75.6,23.2v21.7h3.9V22.3C78,22.4,76.7,22.7,75.6,23.2"/>
<path fill="#1E4282" d="M129.8,42c-0.8,0-1.5-0.1-2-0.3v-4.3c0-2.6,1.2-4.9,3.2-4.9c1.8,0,2.6,1.4,2.6,4.3
	C133.6,40.6,132,42,129.8,42 M132.2,29.2c-2.1,0-3.8,1.1-4.5,2.7h0c0.2-0.8,0.2-2.1,0.2-3v-6.6c-1.5,0.1-2.8,0.5-3.9,1v21.2
	c1.7,0.5,3.5,0.8,5.6,0.8c5.2,0,8.1-3.6,8.1-8.8C137.7,31.9,135.8,29.2,132.2,29.2"/>
<path fill="#1E4282" d="M117,28.4c-2.7,0-4.4,1.7-5.1,3.3c-0.4-1.6-1.6-3.3-4.4-3.3c-2.3,0-4.3,1.3-5.2,3.3h0
	c0.1-0.9,0.2-2.1,0.2-2.9c-1.5,0.1-2.8,0.5-3.9,1v15.2h4.1v-7.7c0-3,1.7-5.3,3.6-5.3c1.6,0,1.9,1.2,1.9,2.8v10.2h4v-7.7
	c0-3.2,1.8-5.3,3.6-5.3c1.5,0,1.9,1.1,1.9,2.8v10.2h4.1V33.8C121.7,30.1,120,28.4,117,28.4"/>
<path fill="#FFFFFF" d="M188.2,23L188.2,23c0,0-1.9-5.2-1.9-5.2c-0.1-0.3-0.2-0.5-0.4-0.7c0.7-0.2,1.3-0.6,1.6-1.2
	c0.2-0.3,0.3-0.7,0.3-1.1c0-0.3-0.1-0.7-0.2-1.2l-1.7-4.3c-0.5-0.9-1.1-1.7-2.4-2c0.3-0.7,0.2-1.4-0.2-2.1l0.1,0.2L181.9,2l0-0.1
	c-0.8-1.4-1.9-1.6-2.6-1.7c-2.3-0.4-7.4-0.3-11.6,0.1c-2,0.2-4.1,0.5-6.7,1c-1.9,0.4-4.5,0.9-7.2,1.7c-1,0.3-1.6,0.8-2,1.5
	c-0.1,0.3-0.3,0.7-0.3,1.2c0,0.3,0,0.7,0.2,1l1.3,3.9c0.1,0.3,0.4,0.8,0.8,1.3c-1.2,0.4-4.9,1.7-4.9,1.7c-1.5,0.6-2.5,1.9-2.5,3.3
	c0,0.2,0,0.4,0.1,0.6c0,0,1.4,5.8,1.4,5.8c0.3,0.9,0.8,1.5,1.6,1.9c0.9,0.4,1.9,0.5,2.9,0.1c2.3-0.9,4.8-1.7,7.3-2.5
	c-0.2,0.6-0.1,1.3,0.1,2.1c0,0,2.5,7,2.5,7c0.6,1.9,2.6,2.9,4.5,2.2l11.8-4.4l5.9-2.3l1.9-0.7C188.1,26.1,188.7,24.7,188.2,23"/>
<path fill="#E21F26" d="M186.7,23.5c0.2,0.8,0.2,1.5-0.8,1.8c-1.1,0.4-1.9,0.7-3.3,1.3c-0.7,0.3-1.4,0.5-2.1,0.8
	c-0.7,0.3-1.5,0.6-2.3,0.9c-3.3,1.3-7.1,2.7-11.8,4.4c-1,0.3-2-0.2-2.4-1.3c-0.8-2.5-1.6-4.9-2.5-7.1c-0.4-1,0.2-2,1.2-2.3
	c2.4-0.7,4.5-1.2,6.6-1.7c2.1-0.5,3.9-0.9,5.6-1.3c3.5-0.8,5.7-1.3,8.1-1.7c1.2-0.2,1.6,0.3,1.9,1C185.5,20.1,186.1,21.7,186.7,23.5
	"/>
<path fill="#FED307" d="M184.5,9.9c-0.3-0.7-0.6-1-1.8-1.1c-3.3-0.1-7.2,0.2-13.1,1c-2.9,0.4-6.1,1-9.6,1.9
	c-1.7,0.5-3.5,0.9-5.2,1.5c-1.8,0.6-3.5,1.2-5.2,1.8c-1,0.4-1.6,1.3-1.5,2.1c0.4,1.8,0.9,3.6,1.4,5.7c0.3,0.9,1.3,1.3,2.4,0.9
	c3.8-1.5,7.8-2.7,11.6-3.7c3.8-1,7-1.7,9.9-2.4c5.8-1.3,8.9-1.7,12-2.2c0.7-0.1,1-0.6,0.7-1.4L184.5,9.9z"/>
<path fill="#1E4282" d="M180.5,2.7c-0.4-0.8-0.9-0.8-1.5-0.9c-2.1-0.3-7.1-0.3-11.2,0.2c-2.1,0.2-4.2,0.5-6.5,0.9
	c-2.3,0.5-4.6,1-7.1,1.7c-0.8,0.3-1.3,0.7-1,1.7c0.4,1.3,0.8,2.3,1.3,3.8c0.3,1,1.2,1,2.1,0.7c2.7-0.8,5.3-1.4,7.8-1.9
	c2.5-0.5,4.8-0.8,6.9-1.1c4.3-0.5,8-0.6,10.1-0.7c0.5,0,0.8-0.4,0.4-1L180.5,2.7z"/>
</svg>
