<svg width="134px" height="33px" viewBox="0 0 134 33" version="1.1" xmlns="http://www.w3.org/2000/svg" xmlns:xlink="http://www.w3.org/1999/xlink">
    <!-- Generator: Sketch 51.3 (57544) - http://www.bohemiancoding.com/sketch -->
    <desc>Created with Sketch.</desc>
    <defs>
        <polygon id="path-1" points="0 0.15572 10.0206084 0.15572 10.0206084 15.01532 0 15.01532"></polygon>
        <polygon id="path-3" points="0.374848131 0.15328 11.2981569 0.15328 11.2981569 12 0.374848131 12"></polygon>
        <polygon id="path-5" points="0.129576141 0.15328 11.0536873 0.15328 11.0536873 12 0.129576141 12"></polygon>
    </defs>
    <g id="Page-1" stroke="none" stroke-width="1" fill="none" fill-rule="evenodd">
        <g id="Soporte-Preguntas-Frecuentas" transform="translate(-1772.000000, -1024.000000)">
            <g id="logos/grupo-Bancolombia/principal" transform="translate(1752.000000, 1005.000000)">
                <g id="Page-1" transform="translate(20.706107, 19.333333)">
                    <g id="Group-3" transform="translate(0.000000, 16.687480)">
                        <mask id="mask-2" fill="white">
                            <use xlink:href="#path-1"></use>
                        </mask>
                        <g id="Clip-2"></g>
                        <path d="M4.21856589,15.01532 C3.34001559,15.01532 1.82200903,14.97252 -8.02329047e-05,14.97252 L-8.02329047e-05,0.26172 C1.22266923,0.19892 3.10292735,0.15572 4.88209202,0.15572 C8.00676249,0.15572 9.74019439,1.44212 9.74019439,3.80092 C9.74019439,5.26252 8.82152763,6.54772 7.45235312,7.09252 L7.45235312,7.13332 C9.16211631,7.50612 10.0206084,8.94852 10.0206084,10.43012 C10.0206084,12.56932 8.58564289,15.01532 4.21856589,15.01532 M4.41313069,2.44612 C3.83224446,2.44612 3.27623043,2.46732 2.78199574,2.48812 L2.78199574,6.32932 C3.12820072,6.35172 3.46959173,6.35172 3.918896,6.35172 C5.82202049,6.35172 6.80928639,5.56332 6.80928639,4.25532 C6.80928639,3.16412 6.16621965,2.44612 4.41313069,2.44612 M4.00354171,8.46652 C3.79052335,8.46652 3.08327029,8.46652 2.78199574,8.49012 L2.78199574,12.61452 C3.12820072,12.65892 3.6621507,12.70132 4.30642092,12.70132 C6.12128923,12.70132 7.04557229,11.82852 7.04557229,10.49852 C7.04557229,9.05772 5.82202049,8.46652 4.00354171,8.46652" id="Fill-1" fill="#063E85" mask="url(#mask-2)"></path>
                    </g>
                    <path d="M17.3950955,31.68288 C17.3950955,31.01768 17.4179619,30.33008 17.5082239,29.73248 L17.4837528,29.71008 C16.9437854,30.99528 15.5742097,31.88728 13.9121851,31.88728 C11.8903159,31.88728 10.7197178,30.72008 10.7197178,28.88728 C10.7197178,26.16328 13.3698107,24.71608 17.1704433,24.71608 L17.1704433,24.09728 C17.1704433,22.91048 16.6100165,22.28968 14.9901142,22.28968 C13.9779761,22.28968 12.6300633,22.63208 11.6873266,23.18288 L11.4402093,20.73008 C12.5606618,20.31688 14.0012436,20.01928 15.4390173,20.01928 C19.0366607,20.01928 20.0483976,21.48888 20.0483976,23.98448 L20.137055,31.65208 L17.3950955,31.68288 Z M17.1704433,26.61728 C14.1344302,26.61728 13.460875,27.51088 13.460875,28.42888 C13.460875,29.16168 13.955912,29.64128 14.7871249,29.64128 C16.2056427,29.64128 17.1704433,28.26648 17.1704433,26.89408 L17.1704433,26.61728 Z" id="Fill-4" fill="#063E85"></path>
                    <path d="M109.343448,31.68288 C109.343448,31.01768 109.369524,30.33008 109.458181,29.73248 L109.434914,29.71008 C108.898557,30.99528 107.524167,31.88728 105.860137,31.88728 C103.838268,31.88728 102.670077,30.72008 102.670077,28.88728 C102.670077,26.16328 105.319367,24.71608 109.122407,24.71608 L109.122407,24.09728 C109.122407,22.91048 108.556364,22.28968 106.939671,22.28968 C105.927532,22.28968 104.585236,22.63208 103.635278,23.18288 L103.390568,20.73008 C104.510619,20.31688 105.948393,20.01928 107.388975,20.01928 C110.987421,20.01928 111.998355,21.48888 111.998355,23.98448 L112.08621,31.65208 L109.343448,31.68288 Z M109.122407,26.61728 C106.083184,26.61728 105.409228,27.51088 105.409228,28.42888 C105.409228,29.16168 105.907474,29.64128 106.735077,29.64128 C108.151589,29.64128 109.122407,28.26648 109.122407,26.89408 L109.122407,26.61728 Z" id="Fill-6" fill="#063E85"></path>
                    <path d="M37.5608739,31.86744 C34.4550581,31.86744 32.5234509,30.21624 32.5234509,26.34304 C32.5234509,22.79224 34.3447379,20.06744 38.3006212,20.06744 C39.0664443,20.06744 39.8735873,20.18064 40.5940788,20.38944 L40.3024322,22.93064 C39.6950691,22.69864 38.997444,22.51744 38.2785572,22.51744 C36.4584737,22.51744 35.534993,23.89624 35.534993,26.04424 C35.534993,27.99344 36.2755427,29.32384 38.1862893,29.32384 C38.9541182,29.32384 39.7837265,29.16184 40.3938977,28.84304 L40.6149394,31.33744 C39.848314,31.63664 38.7499255,31.86744 37.5608739,31.86744" id="Fill-8" fill="#063E85"></path>
                    <g id="Group-12" transform="translate(40.918781, 19.887480)">
                        <mask id="mask-4" fill="white">
                            <use xlink:href="#path-3"></use>
                        </mask>
                        <g id="Clip-11"></g>
                        <path d="M5.58798111,12.00008 C2.42199069,12.00008 0.374848131,10.32928 0.374848131,6.27568 C0.374848131,2.72208 2.69077092,0.15328 6.08422163,0.15328 C9.25141554,0.15328 11.2981569,1.94248 11.2981569,5.86248 C11.2981569,9.43648 8.9397107,12.00008 5.58798111,12.00008 M5.88163354,2.62968 C4.60111638,2.62968 3.34306444,3.64088 3.34306444,5.97328 C3.34306444,8.31048 4.1746785,9.50328 5.83549962,9.50328 C7.25241272,9.50328 8.33154529,8.33848 8.33154529,6.02288 C8.33154529,3.82248 7.56772803,2.62968 5.88163354,2.62968" id="Fill-10" fill="#063E85" mask="url(#mask-4)"></path>
                    </g>
                    <g id="Group-15" transform="translate(57.366527, 19.887480)">
                        <mask id="mask-6" fill="white">
                            <use xlink:href="#path-5"></use>
                        </mask>
                        <g id="Clip-14"></g>
                        <path d="M5.34471494,12.00008 C2.17711987,12.00008 0.129576141,10.32928 0.129576141,6.27568 C0.129576141,2.72208 2.44509777,0.15328 5.84095546,0.15328 C9.0089517,0.15328 11.0536873,1.94248 11.0536873,5.86248 C11.0536873,9.43648 8.69604337,12.00008 5.34471494,12.00008 M5.64117553,2.62968 C4.35785022,2.62968 3.09739128,3.64088 3.09739128,5.97328 C3.09739128,8.31048 3.92820301,9.50328 5.59544277,9.50328 C7.00673956,9.50328 8.08948261,8.33848 8.08948261,6.02288 C8.08948261,3.82248 7.32486303,2.62968 5.64117553,2.62968" id="Fill-13" fill="#063E85" mask="url(#mask-6)"></path>
                    </g>
                    <path d="M101.611644,31.66004 L98.5531658,31.66004 L98.5531658,20.31844 C99.9724858,20.13524 99.946009,20.20284 101.611644,20.24724 L101.611644,31.66004 Z M100.171865,18.80604 C99.2066628,18.80604 98.3979151,18.00364 98.3979151,17.01724 C98.3979151,16.05604 99.2066628,15.25524 100.171865,15.25524 C101.164346,15.25524 101.968279,16.03404 101.968279,17.01724 C101.968279,18.00364 101.164346,18.80604 100.171865,18.80604 Z" id="Fill-16" fill="#063E85"></path>
                    <path d="M28.1013743,20.0192 C26.2832967,20.0192 24.9767038,20.9608 24.3003404,22.3128 L24.279881,22.2896 L24.3548988,20.2488 C23.3495805,20.34 22.448565,20.5476 21.692771,20.8676 L21.692771,31.66 L24.5915859,31.66 L24.5915859,26.1632 C24.5915859,24.1664 25.7413234,22.4736 27.2015622,22.4736 C28.2554215,22.4736 28.5739461,23.1828 28.5739461,24.3724 L28.5739461,31.66 L31.4282317,31.66 L31.4282317,23.6632 C31.4282317,21.6704 30.6186817,20.0192 28.1013743,20.0192" id="Fill-18" fill="#063E85"></path>
                    <path d="M53.4691734,16.39068 L53.4691734,31.65988 L56.2476389,31.65988 L56.2476389,15.71148 C55.1889657,15.81308 54.2474325,16.04028 53.4691734,16.39068" id="Fill-20" fill="#063E85"></path>
                    <path d="M93.4618263,20.59696 C91.9634768,20.59696 90.7828496,21.34016 90.2505043,22.51536 L90.2264344,22.51536 C90.3339465,21.95016 90.3965282,21.05136 90.3965282,20.39776 L90.3965282,15.71216 C89.3374539,15.81776 88.401537,16.04816 87.623679,16.40456 L87.623679,31.34976 C88.8392075,31.70296 90.0788059,31.87816 91.6188765,31.87816 C95.2799039,31.87816 97.3787967,29.34616 97.3787967,25.67816 C97.3787967,22.47376 96.0080176,20.59696 93.4618263,20.59696 M91.812639,29.64976 C91.2305493,29.64976 90.7828496,29.58416 90.3965282,29.45456 L90.3965282,26.39896 C90.3965282,24.58976 91.2550203,22.91056 92.6663171,22.91056 C93.9123341,22.91056 94.4892087,23.93256 94.4892087,25.96336 C94.4892087,28.64576 93.3727678,29.64976 91.812639,29.64976" id="Fill-22" fill="#063E85"></path>
                    <path d="M82.7228125,20.0192 C80.8361358,20.0192 79.5977409,21.1876 79.0818433,22.3128 C78.8106561,21.2112 77.9810478,20.0192 75.9996963,20.0192 C74.3400786,20.0192 72.9897588,20.914 72.3166048,22.3128 L72.2917326,22.3128 C72.3775818,21.702 72.4201052,20.8192 72.426925,20.2568 C71.3891124,20.3584 70.4692421,20.5816 69.7042214,20.93 L69.7042214,31.66 L72.5885943,31.66 L72.5885943,26.2064 C72.5885943,24.078 73.8221752,22.4736 75.148024,22.4736 C76.2528311,22.4736 76.4750762,23.3176 76.4750762,24.4416 L76.4750762,31.66 L79.3081001,31.66 L79.3081001,26.2064 C79.3081001,23.9844 80.6114836,22.4736 81.8695356,22.4736 C82.9245983,22.4736 83.1989948,23.228 83.1989948,24.4416 L83.1989948,31.66 L86.0745421,31.66 L86.0745421,23.8212 C86.0745421,21.2356 84.8810776,20.0192 82.7228125,20.0192" id="Fill-24" fill="#063E85"></path>
                    <path d="M133.125404,16.22176 L133.114974,16.19416 C133.114974,16.19416 131.787119,12.54496 131.782706,12.53536 C131.702875,12.34336 131.608601,12.17976 131.508711,12.03336 C132.01819,11.90056 132.422965,11.61776 132.654036,11.20336 C132.759542,11.00856 132.859031,10.73736 132.859031,10.39576 C132.859031,10.15696 132.813699,9.88416 132.68653,9.58056 L131.507106,6.58256 C131.17775,5.92976 130.756929,5.38736 129.836256,5.19856 C130.014774,4.73256 129.962623,4.20456 129.664959,3.73376 L129.748401,3.89376 L128.678495,1.42936 L128.645199,1.37056 C128.058696,0.36736 127.308117,0.25056 126.811074,0.17056 C125.168306,-0.09064 121.562639,-0.04664 118.587603,0.26576 C117.202382,0.38376 115.696009,0.59776 113.859077,0.93616 C112.491507,1.21096 110.687871,1.59416 108.745432,2.16376 C108.064656,2.38016 107.604521,2.73176 107.354194,3.22416 C107.251496,3.42256 107.16003,3.70256 107.16003,4.05456 C107.16003,4.27296 107.194129,4.51736 107.288804,4.79096 L108.233145,7.51176 C108.301343,7.70856 108.482269,8.09056 108.829677,8.40376 C107.9764,8.70576 105.370836,9.61736 105.370836,9.61736 C104.284884,10.04376 103.599294,10.98336 103.599294,11.95216 C103.599294,12.09896 103.615341,12.24296 103.645829,12.38616 C103.652649,12.41416 104.665188,16.46936 104.665188,16.46936 C104.84491,17.08576 105.239656,17.55616 105.78885,17.82616 C106.400626,18.13416 107.162036,18.15456 107.870091,17.88376 C109.481971,17.27376 111.241478,16.68416 113.048323,16.13496 C112.92677,16.59136 112.949637,17.08576 113.123742,17.57976 C113.123742,17.57976 114.874424,22.52016 114.884453,22.55136 C115.342984,23.88896 116.724595,24.58936 118.054455,24.13736 L126.432375,21.00336 L130.612911,19.39936 L131.927928,18.88736 C133.034741,18.43696 133.481638,17.44256 133.125404,16.22176" id="Fill-26" fill="#FFFFFF"></path>
                    <path d="M132.03552,16.53932 C132.195184,17.08572 132.143835,17.57692 131.495954,17.84132 C130.719701,18.15652 130.14403,18.36252 129.188054,18.73732 C128.699035,18.92172 128.227667,19.10492 127.687298,19.31292 C127.162174,19.51012 126.6202,19.72492 126.029285,19.94532 C123.673647,20.84492 121.000287,21.84732 117.660592,23.07652 C116.945316,23.31892 116.218405,22.94652 115.955242,22.18292 C115.408855,20.43732 114.788655,18.74772 114.185304,17.17612 C113.928157,16.45332 114.304449,15.80052 115.002476,15.58772 C116.698198,15.11212 118.213798,14.73732 119.686473,14.37772 C121.149119,14.01772 122.440467,13.71372 123.671641,13.44292 C126.140408,12.88332 127.725409,12.54492 129.412305,12.25132 C130.227472,12.10772 130.519921,12.45772 130.738957,12.97692 C131.218749,14.13972 131.640774,15.31252 132.03552,16.53932" id="Fill-28" fill="#E30520"></path>
                    <path d="M130.449637,6.99732 C130.215758,6.53892 130.009158,6.27092 129.15909,6.25572 C126.798237,6.20612 124.049859,6.38412 119.905027,6.99452 C117.826995,7.29812 115.585288,7.72772 113.143399,8.33172 C111.91744,8.65572 110.702714,8.96132 109.46793,9.37932 C108.174174,9.77732 106.987931,10.20412 105.778821,10.67132 C105.063143,10.95612 104.635502,11.59772 104.752642,12.14612 C105.064748,13.42452 105.385278,14.71012 105.764379,16.19052 C105.95092,16.83132 106.687458,17.12332 107.464915,16.82772 C110.168363,15.80372 112.99216,14.92252 115.633828,14.21012 C118.289136,13.51372 120.554914,12.99332 122.636155,12.53572 C126.760528,11.64212 128.920799,11.35532 131.135227,10.96812 C131.638287,10.87852 131.85973,10.55332 131.636682,10.00852 L130.449637,6.99732 Z" id="Fill-30" fill="#FFD300"></path>
                    <path d="M127.664993,1.93756 C127.347271,1.39756 127.037572,1.34836 126.624774,1.28596 C125.129633,1.04876 121.627066,1.08236 118.694954,1.39236 C117.21907,1.51676 115.714703,1.74196 114.067121,2.04716 C112.431172,2.37436 110.786397,2.74596 109.065802,3.25236 C108.487724,3.43196 108.136304,3.76516 108.36216,4.42796 C108.667045,5.32436 108.938232,6.08436 109.303292,7.14156 C109.547601,7.84076 110.154162,7.84636 110.795624,7.65196 C112.718807,7.08556 114.546512,6.65036 116.334101,6.30116 C118.128911,5.94196 119.721535,5.71956 121.245157,5.51356 C124.299223,5.14636 126.920031,5.06916 128.393508,5.04876 C128.73169,5.04236 128.960353,4.73796 128.708021,4.34356 L127.664993,1.93756 Z" id="Fill-32" fill="#063E85"></path>
                    <path d="M8.21003255,4.51648 C7.40409302,4.20328 6.47660065,4.01008 5.53225936,4.01008 C3.54489031,4.01008 2.10952365,5.26328 2.10952365,7.51568 C2.10952365,9.64608 3.27570892,10.90088 5.32285148,10.90088 C5.80023726,10.90088 6.2226635,10.83968 6.60898494,10.71928 L6.60898494,7.21448 L8.55302822,7.21448 L8.55302822,12.01728 C7.55172157,12.41688 6.31292552,12.64368 5.09900167,12.64368 C1.90051693,12.64368 0.000200582262,10.76368 0.000200582262,7.69368 C0.000200582262,4.53128 2.1564599,2.27808 5.65140522,2.27808 C6.6535142,2.27808 7.64278592,2.45848 8.50970245,2.71328 L8.21003255,4.51648 Z" id="Fill-34" fill="#063E85"></path>
                    <path d="M33.8485375,12.644 C31.7432261,12.644 30.382476,11.554 30.382476,8.9176 C30.382476,6.6048 31.9209419,4.9364 34.1794982,4.9364 C36.2880189,4.9364 37.6499725,6.0992 37.6499725,8.6484 C37.6499725,10.9736 36.0766052,12.644 33.8485375,12.644 M34.0451081,6.5452 C33.19143,6.5452 32.3546008,7.204 32.3546008,8.7228 C32.3546008,10.2416 32.9094113,11.018 34.0154219,11.018 C34.9565539,11.018 35.6750395,10.2588 35.6750395,8.7528 C35.6750395,7.318 35.1663629,6.5452 34.0451081,6.5452" id="Fill-36" fill="#063E85"></path>
                    <path d="M11.4945671,6.57408 L11.4656832,6.57408 C11.5551429,6.05248 11.5976664,5.45648 11.5976664,5.06888 C11.0248034,5.05128 10.4070101,5.06088 9.80125163,5.09208 L9.80125163,12.49928 L11.7035738,12.49928 L11.7035738,9.46888 C11.7035738,7.41288 12.3939779,6.51448 13.7679664,6.79888 L13.8574261,4.92008 C12.572095,4.81368 11.8536093,5.63648 11.4945671,6.57408" id="Fill-38" fill="#063E85"></path>
                    <path d="M21.3178025,5.08504 L19.4182885,5.08504 L19.4182885,8.66224 C19.4182885,9.96064 18.6548724,11.06344 17.6848566,11.06344 C16.9816152,11.06344 16.771405,10.60024 16.771405,9.82704 L16.771405,5.06904 C16.1616349,5.05104 15.5013181,5.06264 14.8570479,5.09824 L14.8570479,10.28784 C14.8570479,11.58544 15.3946083,12.65824 17.0827087,12.65824 C18.2974348,12.65824 19.1643514,12.04744 19.5980102,11.16704 L19.6276964,11.18344 C19.553481,11.59944 19.539039,12.16664 19.539039,12.50504 C20.1026752,12.52664 20.7160558,12.51224 21.3178025,12.48824 L21.3178025,5.08504 Z" id="Fill-40" fill="#063E85"></path>
                    <path d="M26.9564507,4.9362 C25.835597,4.9362 25.0432971,5.4562 24.6252837,6.3226 L24.5947952,6.3226 C24.6537664,5.9342 24.6678071,5.4414 24.6678071,5.069 C24.106578,5.0526 23.5004184,5.0606 22.9050902,5.0918 L22.9050902,16.0882 L24.8017961,16.0882 L24.8017961,12.5422 C25.1175126,12.5858 25.4019382,12.6002 25.7601781,12.6002 C28.332445,12.6002 29.6787532,10.9734 29.6787532,8.3938 C29.6787532,6.2026 28.7219758,4.9362 26.9564507,4.9362 M25.8027016,11.1234 C25.4155778,11.1234 25.101466,11.0794 24.8017961,10.9878 L24.8017961,8.9314 C24.8017961,7.6626 25.4019382,6.501 26.403646,6.501 C27.2733707,6.501 27.6741341,7.2146 27.6741341,8.603 C27.6741341,10.4374 26.8966772,11.1234 25.8027016,11.1234" id="Fill-42" fill="#063E85"></path>
                </g>
            </g>
        </g>
    </g>
</svg>